<?xml version="1.0" encoding="utf-8"?>
<!-- Generator: Adobe Illustrator 17.0.0, SVG Export Plug-In . SVG Version: 6.00 Build 0)  -->
<!DOCTYPE svg PUBLIC "-//W3C//DTD SVG 1.1//EN" "http://www.w3.org/Graphics/SVG/1.1/DTD/svg11.dtd">
<svg version="1.1" id="Layer_1" xmlns="http://www.w3.org/2000/svg" xmlns:xlink="http://www.w3.org/1999/xlink" x="0px" y="0px"
	 width="667.801px" height="158.059px" viewBox="0 0 667.801 158.059" enable-background="new 0 0 667.801 158.059"
	 xml:space="preserve">
<g>
	<rect x="0" y="0" fill="#FFFFFF" width="667.801" height="158.059"/>
</g>
<g>
	<path fill="none" stroke="#000000" stroke-width="0.25" d="M104.862,68.48"/>
</g>
<g>
	<rect x="0.006" y="80.02" fill="#D32E3F" width="101.559" height="47.649"/>
</g>
<g>
	<path fill="#FFFFFF" d="M92.614,95.087c-0.548,0.334-2.669,0.356-3.955,0.356c-0.024-1.548-0.024-3.239-0.024-4.835
		c0-0.858,0.047-1.776,0.071-2.682c0.023-0.453-0.12-0.691-0.93-0.691h-0.952c0.07,1.167,0.119,2.3,0.119,3.396v2.503
		c0,0.88-0.024,1.762-0.072,2.667c-0.023,0.358,0.048,0.691,0.858,0.691c3.954,0,4.264,0,4.264,0c0.334,0,0.62-0.404,0.62-0.667
		C92.614,95.825,92.614,95.587,92.614,95.087z M70.605,91.894l-1.024,0.024c0.119,0.357,0.119,1.358,0.119,2.001
		c0,0.453-0.024,0.906-0.024,1.358c-0.549,0.238-1.382,0.31-1.979,0.31c-2.216,0-3.525-1.573-3.525-3.693
		c0-2.12,1.215-3.787,3.455-3.787c1.215,0,2.478,0.738,3.073,1.286l0.286-0.81c0.119-0.429-0.049-0.691-0.311-0.811
		c-0.953-0.404-1.715-0.619-3.049-0.619c-3.098,0-5.361,1.453-5.361,4.74c0,3.146,2.312,4.718,5.289,4.718
		c1.12,0,2.693-0.309,3.812-0.643c0-0.453,0-0.834,0-1.216c0-0.739,0-1.405,0.024-2.168C71.415,92.228,71.13,91.87,70.605,91.894z
		 M79.661,103.215h-1.525c0.024,0.191-0.023,0.571-0.119,0.762c-0.309,0.645-0.69,1.312-1.048,1.955
		c-0.405,0.737-1.143,1.952-1.525,2.549c-0.929-1.501-1.716-3.05-2.55-4.599c-0.189-0.356-0.523-0.644-1.19-0.644h-1.858
		c1.596,2.287,2.835,4.36,4.169,6.623c0,1.312,0.024,3.003-0.095,4.384c-0.024,0.406,0.238,0.644,0.763,0.644h1.691
		c-0.167-1.667-0.167-3.549-0.167-5.146c1.096-1.979,2.359-3.812,3.718-5.813c0.094-0.144,0.142-0.286,0.118-0.404
		C80.042,103.358,79.924,103.215,79.661,103.215z M55.365,89.361c0-0.834,0.738-1.31,1.524-1.31c0.858,0,1.549,0.476,2.002,1.144
		c0.168-0.286,0.5-0.739,0.5-1.144c0-0.786-1.787-0.977-2.383-0.977c-1.596,0-3.167,0.882-3.167,2.621
		c0,3.097,4.335,2.239,4.335,4.265c0,0.978-0.69,1.572-1.668,1.572c-1,0-2.119-0.548-2.645-1.358
		c-0.071,0.357-0.237,0.739-0.237,1.121c0,0.38,0.143,0.666,0.5,0.833c0.571,0.31,1.311,0.453,1.954,0.453
		c1.834,0,3.597-1.049,3.597-3.05C59.678,90.625,55.365,91.506,55.365,89.361z M51.623,87.204l-1.239,0.023
		c0,0.334-0.5,1.239-1.024,2.12c-0.525,0.835-1.049,1.668-1.286,2.002c-0.739-1.192-1.454-2.407-2.169-3.598
		c-0.238-0.406-0.572-0.524-1.025-0.524h-1.5c1.287,1.763,2.477,3.573,3.621,5.431v1.05c0.023,0.857-0.071,1.786-0.071,2.287
		c0,0.381,0.333,0.476,0.619,0.476h1.263c-0.143-1.311-0.143-2.668-0.143-4.002c0.666-1.143,1.405-2.24,2.191-3.311
		c0.31-0.477,0.667-0.93,0.978-1.382c0.047-0.096,0.119-0.19,0.119-0.31C51.957,87.275,51.79,87.204,51.623,87.204z M41.041,87.26
		H35.8c0.024,0.5,0.071,0.951,0.119,1.453c0.024,0.881,0.048,2.741,0.048,3.409c0,1.597-0.071,2.451-0.071,3.689
		c0,0.478,0.262,0.667,0.714,0.667h1.143c-0.071-1.071-0.142-2.117-0.142-3.188v-1.216c0.833,0,2.93,0.024,3.668,0.238
		c0-0.429,0.119-1.238-0.524-1.238c-0.691,0-1.883,0.143-3.144,0.143v-1.933c0-0.358,0.022-0.715,0.048-1.073
		c0.977,0,3.001-0.022,3.93,0.335C41.589,88.069,41.732,87.26,41.041,87.26z M31.345,91.408c0-1.835,0.096-2.264,0.096-3.408
		c0-0.523-0.19-0.785-0.763-0.785h-1.096c0.096,0.904,0.144,1.882,0.144,4.287c0,2.289-0.096,2.789-0.096,4.194
		c0,0.477,0.237,0.763,0.715,0.763h1.144C31.393,95.41,31.345,93.861,31.345,91.408z M38.56,110.562
		c-0.953,0.478-2.217,0.478-3.599,0.478c-0.357,0-0.404-0.215-0.429-0.644c0-0.357,0-0.858,0-1.191v-2.145
		c1.286,0,2.646,0.047,3.503,0.334l0.047-0.739c0.024-0.5-0.262-0.69-0.952-0.69c-0.763,0-1.645,0.119-2.621,0.119
		c0-0.572,0.023-1.311,0.023-1.883c0-0.476,0.024-1.191,0.047-1.667c2.789,0,3.479,0.237,3.885,0.404c0-0.214,0-0.523,0-0.523
		c0-0.477-0.357-0.93-0.905-0.93c0,0-0.5,0-5.242,0c0.239,0.263,0.262,1.215,0.262,1.549c0.048,1.406,0.025,3.407,0.025,5.122
		c0,1.001-0.025,2.026-0.072,3.074c-0.023,0.523,0.095,0.834,0.643,0.834c1.477,0,4.526,0,4.526,0c0.478,0,0.859-0.238,0.859-0.739
		C38.56,111.325,38.56,111.11,38.56,110.562z M22.711,101.367c-1.62-0.834-3.716-1.312-5.622-1.312
		c-6.385,0-10.627,5.146-10.627,11.437c0,6.1,4.647,10.054,10.579,10.054c1.977,0,4.622-0.571,6.219-1.786l-0.238-2.025
		c-1.073,1.12-3.217,2.025-4.766,2.025c-5.266,0-8.767-4.36-8.767-9.436c0-4.336,2.477-8.625,7.243-8.625
		c1.597,0,3.217,0.502,4.407,1.549c0.571,0.502,1.311,1.502,1.382,2.24c0.452-0.69,1.215-1.906,1.215-2.739
		C23.735,102.104,23.211,101.629,22.711,101.367z M79.136,87.153c-3.05,0-5.123,1.62-5.123,4.74c0,2.932,2.287,4.718,5.123,4.718
		c2.858,0,5.146-1.763,5.146-4.718C84.281,88.939,81.994,87.153,79.136,87.153z M79.136,95.658c-2.144,0-3.217-1.811-3.217-3.765
		c0-1.977,1.072-3.787,3.217-3.787c2.168,0,3.24,1.763,3.24,3.787C82.376,94.086,81.589,95.658,79.136,95.658z M88.321,101.51
		c-1.691,0-3.454,0-5.169,0.023c0.214,0.262,0.357,0.834,0.381,1.216c0.119,1.571,0.191,3.097,0.191,4.692
		c-1.621,0-3.336,0-4.957,0.024c0.215,0.262,0.333,0.833,0.382,1.215c0.143,1.691,0.19,3.287,0.19,4.979
		c0,2.168-0.048,4.36-0.143,6.527c-0.024,0.334,0.285,0.572,0.643,0.572h3.859c4.17,0,7.268-2.238,7.481-6.433
		c2.646-0.905,4.385-3.074,4.385-6.386C95.565,103.32,92.61,101.51,88.321,101.51z M91.157,112.874
		c-0.333-3.239-2.358-4.837-5.289-5.29c0-1.786,0.071-3.334,0.143-4.979c0.548-0.071,0.834-0.119,1.406-0.119
		c3.43,0,5.812,2.049,5.812,5.575C93.229,110.134,92.562,111.897,91.157,112.874z M88.274,113.684h-1.62
		c-0.405,0-0.62-0.214-0.644-0.548c-0.096-1.429-0.166-2.858-0.166-4.146c1.763,0.786,2.906,2.407,3.002,4.67
		C88.655,113.66,88.465,113.684,88.274,113.684z M83.914,119.617H82.27c-0.403,0-0.642-0.191-0.667-0.525
		c-0.094-1.571-0.143-3.002-0.143-4.598c0-1.979,0.049-4.074,0.168-5.957c0.523-0.07,0.856-0.096,1.404-0.096
		c0.239,0,0.477,0,0.692,0.025c0,1.93-0.048,3.859-0.144,5.79c0,0.332,0.286,0.548,0.644,0.548h3.859c0.237,0,0.5,0,0.739-0.025
		C88.584,117.567,87.06,119.617,83.914,119.617z M60.964,101.557c-2.119,0-4.431,0.048-6.266,0.048
		c0.357,0.5,0.501,1.454,0.596,3.384c0.071,1.405,0.119,2.835,0.119,4.265c0,1.739-0.024,3.478-0.072,5.217
		c-0.047,0.953-0.119,1.883-0.119,2.835c0,0.453,0.382,0.691,0.787,0.691h4.765c5.29,0,9.244-2.93,9.244-8.481
		C70.018,103.82,66.253,101.557,60.964,101.557z M61.012,116.591h-2.024c-0.477,0-0.715-0.167-0.811-0.643
		c-0.072-0.477-0.095-1.168-0.118-1.668c-0.049-1.072-0.072-2.668-0.072-4.002c0-2.454,0.118-4.909,0.214-7.339
		c0.572-0.095,1.168-0.143,1.764-0.143c4.24,0,7.17,2.406,7.17,6.861C67.134,113.589,65.229,116.591,61.012,116.591z
		 M48.211,111.563c2.478-0.786,4.265-2.739,4.265-5.433c0-3.431-3.073-4.693-6.052-4.693c-1.93,0-3.883,0.048-5.837,0.072
		c0.238,0.404,0.333,1.381,0.333,1.882c0,2.358,0.049,4.503,0.049,6.146c0,4.551-0.215,7.172-0.215,8.029
		c0,0.357,0.144,0.405,0.453,0.405c1.024,0,2.001-0.023,3.002-0.023c-0.143-0.144-0.239-0.477-0.311-0.906
		c-0.214-1.524-0.31-3.312-0.31-4.979c0.644,0,1.378-0.024,2.021-0.048c0.842,1.331,1.886,2.88,3.073,4.454
		c1.796,2.356,4.235,5.075,7.077,5.075c0.738,0,1.375-0.071,2.113-0.143C54.549,120.232,50.213,114.566,48.211,111.563z
		 M45.233,110.896c-0.572,0-1.097,0.023-1.669,0.023c0-0.737,0-1.763,0-2.883c0-1.715,0.024-3.669,0.144-5.337
		c0.501-0.047,1.072-0.095,1.62-0.095c2.431,0,4.384,1.287,4.384,3.907C49.712,109.157,47.782,110.896,45.233,110.896z
		 M23.606,92.527c1.239-0.381,2.312-1.239,2.312-2.717c0-1.977-1.739-2.549-3.384-2.549c-0.738,0-1.501-0.024-2.239-0.024
		c-0.357,0-0.738,0.024-1.096,0.024c0.119,0.166,0.19,0.405,0.213,0.62c0.072,1.024,0.049,2.597,0.049,3.884
		c0,0.904-0.023,1.834-0.049,2.739c-0.022,0.452-0.046,0.882-0.046,1.334c0,0.428,0.262,0.596,0.667,0.596
		c0.404,0,0.809-0.023,1.215-0.048c-0.143-0.762-0.167-2.453-0.167-3.598c0.238,0,0.978,0,0.978,0
		c0.714,1.145,1.405,2.24,2.239,3.336c0.691,0.953,1.478,1.334,2.668,1.334c0.144,0,0.357,0,0.5,0
		C26.871,97.078,24.87,94.457,23.606,92.527z M21.581,92.027h-0.524v-0.93c0-0.691,0.024-2.335,0.048-3.049
		c0.286,0,0.549-0.024,0.811-0.024c1.216,0,2.358,0.69,2.358,2.002C24.273,91.599,22.892,92.051,21.581,92.027z M13.443,87.293
		l-3.359-0.024c0.142,0.216,0.19,0.954,0.215,1.668c0.048,1.335,0,2.693,0,4.003c0,0.93-0.048,1.834-0.048,2.764
		c0,0.429,0.19,0.762,0.666,0.762h1.144c-0.096-1.119-0.119-2.405-0.119-3.598c0.286,0.024,0.571,0.024,0.857,0.024
		c1.882,0,3.932-0.905,3.932-3.073C16.731,87.889,15.087,87.317,13.443,87.293z M12.681,92.13c-0.238,0-0.548-0.048-0.738-0.048
		c0,0,0-2.859,0-3.955l0.929-0.023c1.215-0.024,2.144,0.476,2.144,1.834C15.016,91.392,13.991,92.13,12.681,92.13z M32.292,115.327
		l-4.956-11.341c-0.166-0.428-0.31-0.715-0.81-0.715h-0.311l-5.718,12.151c-0.119,0.238-0.143,0.382-0.143,0.572
		c0,0.238,0.262,0.286,0.477,0.286h1.262c-0.022-0.072-0.022-0.191-0.022-0.286c0-0.215,0.048-0.453,0.142-0.715l1.214-2.954h4.909
		l1.334,3.312c0.167,0.404,0.357,0.618,0.834,0.618h2.43C32.696,116.09,32.411,115.59,32.292,115.327z M23.929,111.278l2.073-4.813
		l1.906,4.813H23.929z"/>
</g>
<g>
	<rect x="0.006" y="29.981" fill="#D32E3F" width="101.559" height="47.65"/>
</g>
<g>
	<path fill="#FFFFFF" d="M94.782,35.914h-9.815c0.333,1.929,0.38,5.433,0.38,9.482c0,3.265-0.261,8.793-0.261,9.769
		c0,0.62,0.356,0.952,0.977,0.952h2.501c-0.166-0.381-0.238-0.952-0.262-1.381c-0.214-2.932-0.286-5.909-0.286-8.84
		c0.405-0.023,1.359-0.095,1.501-0.095c1.406,0,3.359,0,4.646,0.548c0.119-0.31,0.285-0.644,0.285-0.977
		c0-0.738-0.762-0.906-1.358-0.906h-5.074c0-2.382,0.096-4.765,0.19-7.146h1.572c1.406,0,5.075,0,6.195,0.69
		c0.119-0.334,0.096-0.738,0.096-1.096C96.069,36.247,95.449,35.914,94.782,35.914z M82.226,36.963h-8.481
		c0.478,0.834,0.453,6.742,0.453,7.957c0,2.549-0.238,6.194-0.238,7.649c0,0.476,0.215,0.928,0.763,0.928h2.525
		c-0.238-0.642-0.357-1.786-0.404-3.287c-0.049-1.334-0.049-2.978-0.049-4.836c0.357,0,1.024-0.071,1.478-0.071
		c1.334,0,2.645,0.023,3.884,0.548c0-0.357,0.095-0.715,0.095-1.072c0-0.549-0.477-0.787-0.977-0.787h-4.456
		c0-1.882,0.096-3.74,0.167-5.622c0.549,0,1.097-0.023,1.645-0.023c1.549,0,3.74,0.047,5.146,0.69v-0.071
		C83.774,37.892,83.465,36.963,82.226,36.963z M70.271,45.492c0-1.359,0.047-2.717,0.07-4.051c0.023-0.715,0.096-1.453,0.096-2.167
		c0-0.358-0.357-0.548-0.667-0.548h-2.287c0.333,1.69,0.31,4.525,0.31,6.312c0,1.311-0.024,2.645-0.071,3.979
		c0,0.595-0.048,1.238-0.048,1.834c0,0.452,0.286,0.786,0.738,0.786c0.738,0,1.453-0.024,2.192-0.048
		C70.294,50.495,70.271,46.754,70.271,45.492z M92.876,61.168l-1.215,0.025c-0.023,0.309-0.5,1.238-1.048,2.12
		c-0.501,0.833-1.05,1.667-1.264,1.978c-0.763-1.168-1.452-2.383-2.191-3.574c-0.238-0.405-0.548-0.523-1-0.523h-1.525
		c1.311,1.762,2.501,3.572,3.646,5.432v1.024c0,0.882-0.096,1.763-0.096,2.264c0,0.357,0.333,0.477,0.645,0.477h1.238
		c-0.12-1.312-0.143-2.621-0.143-3.955c0.666-1.144,1.428-2.24,2.191-3.312c0.333-0.477,0.666-0.929,0.976-1.381
		c0.072-0.096,0.12-0.191,0.12-0.31C93.21,61.24,93.044,61.168,92.876,61.168z M83.878,61.193h-6.743
		c-0.5,0-1.001,0.285-1.001,0.833v0.501c0.692-0.144,2.191-0.167,3.026-0.167c0.048,1.097,0.048,2.168,0.048,3.264
		c0,1.882-0.096,2.765-0.096,4.146c0,0.476,0.286,0.62,0.739,0.62h1.143c-0.143-1.312-0.143-2.621-0.143-4.694
		c0-1.096-0.023-2.525,0.023-3.335c0.906,0,1.788,0.119,2.431,0.119c0.453,0,0.572-0.453,0.572-0.834V61.193z M74.604,65.339
		c0-1.836,0.094-2.264,0.094-3.407c0-0.525-0.19-0.786-0.762-0.786H72.84c0.095,0.905,0.143,1.882,0.143,4.287
		c0,2.288-0.096,2.812-0.096,4.194c0,0.477,0.239,0.763,0.715,0.763h1.144C74.649,69.341,74.604,67.792,74.604,65.339z
		 M66.229,63.289c0-0.834,0.738-1.286,1.525-1.286c0.857,0,1.548,0.452,2.002,1.119c0.166-0.285,0.5-0.738,0.5-1.144
		c0-0.785-1.787-0.952-2.359-0.952c-1.62,0-3.192,0.857-3.192,2.597c0,3.097,4.336,2.239,4.336,4.265
		c0,0.976-0.691,1.597-1.668,1.597c-1.001,0-2.12-0.572-2.644-1.383c-0.072,0.358-0.239,0.738-0.239,1.12
		c0,0.382,0.144,0.667,0.5,0.834c0.572,0.309,1.312,0.477,1.955,0.477c1.833,0,3.597-1.048,3.597-3.073
		C70.542,64.553,66.229,65.433,66.229,63.289z M52.949,69.008c-0.739,0.357-1.978,0.381-2.787,0.381h-0.645
		c-0.357,0-0.357-0.191-0.357-0.5c-0.024-0.239-0.024-1.931-0.024-2.169v-0.714c0.93,0,2.502,0.023,3.36,0.285
		c0.022-0.238,0.047-0.5,0.047-0.738c0-0.43-0.309-0.548-0.69-0.548c-0.882,0-1.835,0.096-2.717,0.096c0-0.596,0-1.025,0-1.573
		c0-0.452,0.048-0.929,0.071-1.405c0.883,0,2.86,0,3.67,0.333c0-0.549,0-1.262-0.786-1.262h-4.86
		c0.096,0.118,0.166,0.381,0.191,0.523c0.071,1.12,0.071,2.24,0.071,3.359c0,1.549-0.071,3.098-0.071,4.646
		c0,0.381,0.119,0.619,0.548,0.619h4.265c0.405,0,0.715-0.215,0.715-0.644V69.008z M45.338,61.146h-1.289
		c0.119,0.357-0.167,1.167-0.31,1.477c-0.715,1.763-1.671,3.971-2.41,5.467c-0.481-1-1.212-2.791-1.809-4.22
		c-0.309-0.715-0.548-1.342-0.857-2.057c-0.238-0.549-0.595-0.645-1.167-0.667c-0.358,0-0.807-0.024-1.188-0.024
		c1.43,3.05,2.859,6.123,4.123,9.269h1.214c1.215-2.955,2.597-5.814,3.955-8.721c0.023-0.047,0.048-0.095,0.048-0.166
		C45.648,61.312,45.528,61.146,45.338,61.146z M22.759,36.819c-1.597-0.833-3.692-1.31-5.6-1.31
		c-6.385,0-10.625,5.146-10.625,11.436C6.534,53.068,11.18,57,17.112,57c1.976,0,4.623-0.572,6.219-1.787l-0.238-2.025
		c-1.072,1.144-3.217,2.025-4.789,2.025c-5.242,0-8.744-4.36-8.744-9.436c0-4.336,2.479-8.601,7.243-8.601
		c1.596,0,3.216,0.5,4.407,1.55c0.548,0.475,1.311,1.475,1.383,2.238c0.452-0.715,1.215-1.93,1.215-2.764
		C23.808,37.558,23.283,37.082,22.759,36.819z M34.361,65.339c0-1.836,0.096-2.264,0.096-3.407c0-0.525-0.167-0.786-0.739-0.786
		h-1.119c0.096,0.905,0.144,1.882,0.144,4.287c0,2.288-0.096,2.812-0.096,4.194c0,0.477,0.238,0.763,0.738,0.763h1.119
		C34.409,69.341,34.361,67.792,34.361,65.339z M29.351,61.193h-0.952c0.07,1.548,0.095,3.097,0.095,4.645v1.596
		c-2.239-2.072-4.312-4.193-6.504-6.337h-0.645c0.024,0.428,0.024,0.881,0.024,1.334c0,1.786,0.023,4.217-0.072,5.36
		c-0.07,1.216-0.166,1.525-0.166,2.192c0,0.31,0.166,0.405,0.477,0.405c0.334,0,0.667-0.024,1.024-0.024
		c-0.143-0.976-0.167-1.954-0.167-2.954c0-1.144,0.048-2.217,0.048-3.36c2.217,2.169,4.408,4.194,6.504,6.481h0.644
		c-0.047-1.549-0.071-3.098-0.071-4.622c0-0.857,0.071-1.645,0.095-2.431c0.024-0.667,0.12-1.405,0.12-1.811
		C29.805,61.359,29.638,61.193,29.351,61.193z M17.946,61.146h-0.858c0.143,0.977,0.166,1.596,0.166,2.572
		c0,0.548-0.024,1.549-0.024,2.335c0,1.882-0.572,3.359-2.764,3.359c-2.525,0-2.787-1.524-2.787-3.67
		c0-1.38,0.143-3.001,0.143-4.168c0-0.311-0.19-0.429-0.5-0.429H9.989c0.07,1.024,0.095,1.691,0.095,3.287
		c0,0.668-0.048,1.573-0.048,2.264c0,2.739,1.549,3.836,4.17,3.836c2.501,0,4.074-1.335,4.169-3.884
		c0.071-2.431,0.214-4.193,0.214-5.003C18.589,61.24,18.304,61.146,17.946,61.146z M56.113,37.034c-2.144,0-4.455,0.023-6.265,0.023
		c0.334,0.524,0.476,1.479,0.571,3.406c0.096,1.407,0.119,2.837,0.119,4.265c0,1.74-0.023,3.455-0.071,5.194
		c-0.024,0.953-0.097,1.907-0.097,2.859c0,0.429,0.382,0.691,0.787,0.691h4.741c5.313,0,9.269-2.931,9.269-8.481
		C65.168,39.297,61.403,37.034,56.113,37.034z M56.161,52.068h-2.025c-0.5,0-0.738-0.168-0.809-0.668
		c-0.097-0.477-0.097-1.144-0.119-1.644c-0.049-1.073-0.072-2.669-0.072-4.003c0-2.453,0.095-4.908,0.191-7.362
		c0.595-0.095,1.191-0.119,1.786-0.119c4.241,0,7.147,2.407,7.147,6.862C62.261,49.041,60.378,52.068,56.161,52.068z M59.831,66.435
		c1.238-0.357,2.311-1.215,2.311-2.692c0-1.979-1.715-2.549-3.383-2.549c-0.738,0-1.478-0.025-2.239-0.025
		c-0.358,0-0.716,0-1.097,0.025c0.143,0.166,0.191,0.404,0.215,0.619c0.071,1.024,0.048,2.572,0.048,3.859
		c0,0.93-0.024,1.859-0.048,2.764c-0.024,0.429-0.048,0.882-0.048,1.31c0,0.454,0.263,0.597,0.667,0.597
		c0.404,0,0.811-0.024,1.216-0.024c-0.143-0.762-0.167-2.454-0.167-3.598c0.237,0,0.977,0,0.977,0
		c0.715,1.144,1.405,2.216,2.239,3.336c0.691,0.953,1.478,1.334,2.669,1.334c0.143,0,0.357,0,0.5,0
		C63.095,71.009,61.116,68.363,59.831,66.435z M57.806,65.958h-0.524v-0.93c0-0.691,0.024-2.358,0.071-3.05
		c0.263,0,0.524-0.023,0.787-0.023c1.215,0,2.358,0.69,2.358,2.002C60.498,65.529,59.116,65.958,57.806,65.958z M33.266,50.757
		L28.31,39.416c-0.191-0.429-0.31-0.714-0.81-0.714l-0.311,0.025l-5.717,12.126c-0.119,0.262-0.144,0.381-0.144,0.596
		c0,0.215,0.263,0.262,0.476,0.262h1.263c-0.023-0.071-0.023-0.189-0.023-0.286c0-0.213,0.048-0.451,0.143-0.715l1.215-2.953h4.885
		l1.357,3.335c0.168,0.405,0.358,0.596,0.835,0.596h2.43C33.672,51.521,33.385,51.019,33.266,50.757z M24.879,46.707l2.097-4.812
		l1.906,4.812H24.879z M42.903,47.07c2.479-0.787,4.265-2.74,4.265-5.433c0-3.431-3.072-4.693-6.051-4.693
		c-1.931,0-3.884,0.048-5.837,0.071c0.237,0.405,0.333,1.382,0.333,1.882c0,2.359,0.048,4.503,0.048,6.147
		c0,4.551-0.214,7.172-0.214,8.029c0,0.357,0.142,0.406,0.451,0.406c1.025,0,2.002-0.025,3.003-0.025
		c-0.143-0.143-0.238-0.477-0.31-0.904c-0.214-1.526-0.309-3.312-0.309-4.98c0.643,0,1.377-0.023,2.021-0.047
		c0.841,1.331,1.887,2.88,3.073,4.455c1.795,2.355,4.236,5.073,7.077,5.073c0.738,0,1.375-0.07,2.114-0.142
		C49.241,55.738,44.905,50.072,42.903,47.07z M39.926,46.403c-0.571,0-1.096,0.023-1.668,0.023c0-0.738,0-1.763,0-2.883
		c0-1.716,0.024-3.669,0.143-5.337c0.501-0.048,1.072-0.096,1.62-0.096c2.431,0,4.385,1.287,4.385,3.908
		C44.405,44.664,42.475,46.403,39.926,46.403z"/>
</g>
<g>
	<path fill="#231F20" d="M131.689,44.289v-15.33h5.145c2.163,0,3.848,0.738,5.053,2.213c1.206,1.475,1.809,3.279,1.809,5.413
		c0,2.164-0.588,3.988-1.764,5.475c-1.175,1.486-2.665,2.229-4.469,2.229H131.689z M133.61,42.66h3.11
		c1.647,0,2.898-0.568,3.752-1.707c0.854-1.138,1.279-2.639,1.279-4.503c0-1.513-0.405-2.871-1.218-4.077
		c-0.812-1.205-2.083-1.808-3.813-1.808h-3.11V42.66z"/>
	<path fill="#231F20" d="M153.903,40.908l1.64,0.338c-0.3,0.969-0.884,1.771-1.752,2.405c-0.868,0.635-1.891,0.952-3.065,0.952
		c-1.551,0-2.805-0.545-3.763-1.636c-0.958-1.09-1.438-2.52-1.438-4.288c0-1.807,0.498-3.266,1.493-4.379
		c0.996-1.112,2.246-1.669,3.752-1.669c1.482,0,2.674,0.513,3.576,1.538c0.902,1.026,1.365,2.561,1.387,4.605h-8.242
		c0,1.714,0.359,2.871,1.078,3.47c0.719,0.599,1.479,0.898,2.279,0.898C152.294,43.144,153.311,42.398,153.903,40.908z
		 M153.802,37.461c-0.015-0.637-0.119-1.201-0.314-1.695c-0.194-0.494-0.523-0.916-0.988-1.264
		c-0.464-0.349-1.021-0.522-1.673-0.522c-0.876,0-1.619,0.314-2.229,0.943c-0.61,0.629-0.952,1.475-1.027,2.538H153.802z"/>
	<path fill="#231F20" d="M166.28,32.946l-3.922,11.343h-1.817l-4.065-11.343h1.956l3.159,9.22l3.121-9.22H166.28z"/>
	<path fill="#231F20" d="M175.466,40.908l1.64,0.338c-0.3,0.969-0.884,1.771-1.752,2.405c-0.868,0.635-1.891,0.952-3.065,0.952
		c-1.551,0-2.805-0.545-3.763-1.636c-0.958-1.09-1.438-2.52-1.438-4.288c0-1.807,0.498-3.266,1.493-4.379
		c0.996-1.112,2.246-1.669,3.752-1.669c1.482,0,2.674,0.513,3.576,1.538c0.902,1.026,1.365,2.561,1.387,4.605h-8.242
		c0,1.714,0.359,2.871,1.078,3.47c0.719,0.599,1.479,0.898,2.279,0.898C173.856,43.144,174.874,42.398,175.466,40.908z
		 M175.364,37.461c-0.015-0.637-0.119-1.201-0.314-1.695c-0.194-0.494-0.523-0.916-0.988-1.264
		c-0.464-0.349-1.021-0.522-1.673-0.522c-0.876,0-1.619,0.314-2.229,0.943c-0.61,0.629-0.952,1.475-1.027,2.538H175.364z"/>
	<path fill="#231F20" d="M181.71,44.289h-1.763v-15.33h1.763V44.289z"/>
	<path fill="#231F20" d="M189.302,44.604c-1.557,0-2.771-0.577-3.643-1.731c-0.872-1.153-1.309-2.585-1.309-4.294
		c0-1.806,0.49-3.248,1.472-4.327c0.98-1.079,2.201-1.619,3.66-1.619c1.566,0,2.799,0.567,3.701,1.703
		c0.902,1.135,1.354,2.554,1.354,4.255c0,1.769-0.487,3.213-1.461,4.333C192.102,44.043,190.845,44.604,189.302,44.604z
		 M189.436,43.144c0.898,0,1.651-0.37,2.258-1.112c0.606-0.74,0.91-1.894,0.91-3.459c0-1.572-0.318-2.712-0.955-3.419
		c-0.637-0.708-1.381-1.062-2.234-1.062c-0.877,0-1.617,0.357-2.225,1.072c-0.605,0.715-0.909,1.848-0.909,3.397
		c0,1.64,0.304,2.813,0.909,3.521C187.798,42.79,188.546,43.144,189.436,43.144z"/>
	<path fill="#231F20" d="M198.949,48.119h-1.763V32.946h1.594v2.201c0.801-1.677,1.993-2.516,3.578-2.516
		c1.338,0,2.419,0.561,3.241,1.681c0.822,1.12,1.233,2.538,1.233,4.255c0,1.851-0.423,3.319-1.269,4.406
		c-0.846,1.087-1.932,1.63-3.256,1.63c-1.423,0-2.542-0.678-3.358-2.033V48.119z M198.949,36.979v3.2
		c0.112,0.857,0.476,1.566,1.089,2.126c0.614,0.56,1.255,0.839,1.921,0.839c0.771,0,1.454-0.337,2.05-1.011
		c0.595-0.674,0.893-1.838,0.893-3.492c0-1.431-0.27-2.533-0.809-3.308c-0.539-0.775-1.254-1.163-2.145-1.163
		c-0.704,0-1.335,0.274-1.893,0.82C199.498,35.537,199.129,36.199,198.949,36.979z"/>
	<path fill="#231F20" d="M216.963,40.908l1.64,0.338c-0.3,0.969-0.884,1.771-1.752,2.405c-0.868,0.635-1.891,0.952-3.066,0.952
		c-1.551,0-2.805-0.545-3.763-1.636c-0.958-1.09-1.438-2.52-1.438-4.288c0-1.807,0.498-3.266,1.493-4.379
		c0.996-1.112,2.246-1.669,3.752-1.669c1.482,0,2.674,0.513,3.576,1.538c0.902,1.026,1.365,2.561,1.387,4.605h-8.242
		c0,1.714,0.359,2.871,1.078,3.47c0.719,0.599,1.479,0.898,2.279,0.898C215.354,43.144,216.371,42.398,216.963,40.908z
		 M216.861,37.461c-0.015-0.637-0.119-1.201-0.314-1.695c-0.194-0.494-0.523-0.916-0.988-1.264
		c-0.464-0.349-1.021-0.522-1.673-0.522c-0.876,0-1.619,0.314-2.229,0.943c-0.61,0.629-0.952,1.475-1.027,2.538H216.861z"/>
	<path fill="#231F20" d="M230.305,28.959v15.33h-1.595v-1.943c-0.795,1.506-1.99,2.258-3.588,2.258
		c-1.327,0-2.418-0.557-3.272-1.669c-0.854-1.113-1.282-2.521-1.282-4.222c0-1.738,0.424-3.186,1.27-4.344
		c0.846-1.158,1.969-1.737,3.369-1.737c1.362,0,2.475,0.621,3.336,1.864v-5.537H230.305z M228.542,37.326
		c0-0.996-0.304-1.793-0.91-2.393c-0.606-0.599-1.314-0.899-2.123-0.899c-0.875,0-1.596,0.39-2.161,1.168
		c-0.565,0.779-0.849,1.872-0.849,3.279c0,1.521,0.261,2.677,0.781,3.471c0.521,0.794,1.233,1.19,2.139,1.19
		c0.824,0,1.551-0.345,2.18-1.033c0.629-0.688,0.943-1.497,0.943-2.426V37.326z"/>
	<path fill="#231F20" d="M248.509,44.289h-1.595v-2.168c-0.808,1.655-2.011,2.482-3.61,2.482c-1.159,0-2.069-0.382-2.73-1.146
		c-0.662-0.765-0.992-1.852-0.992-3.26v-7.251h1.763v7.243c0,1.123,0.234,1.896,0.702,2.319c0.468,0.423,0.982,0.635,1.544,0.635
		c0.569,0,1.084-0.161,1.544-0.483c0.461-0.321,0.845-0.78,1.151-1.375c0.307-0.596,0.46-1.245,0.46-1.949v-6.39h1.764V44.289z"/>
	<path fill="#231F20" d="M250.509,41.347l1.684-0.349c0.375,1.431,1.558,2.146,3.549,2.146c0.734,0,1.356-0.164,1.865-0.493
		c0.509-0.329,0.764-0.793,0.764-1.391c0-0.891-0.648-1.455-1.944-1.694l-2.392-0.454c-0.936-0.18-1.681-0.531-2.234-1.055
		c-0.554-0.524-0.831-1.217-0.831-2.078c0-0.951,0.378-1.746,1.134-2.387c0.757-0.64,1.775-0.96,3.055-0.96
		c2.464,0,3.983,0.962,4.561,2.886l-1.617,0.349c-0.465-1.183-1.419-1.774-2.864-1.774c-0.719,0-1.309,0.147-1.769,0.443
		c-0.461,0.295-0.691,0.708-0.691,1.239c0,0.838,0.588,1.364,1.765,1.582l2.212,0.396c2.312,0.42,3.47,1.541,3.47,3.363
		c0,1.043-0.431,1.885-1.292,2.525c-0.86,0.642-2.006,0.962-3.436,0.962C252.807,44.604,251.145,43.518,250.509,41.347z"/>
	<path fill="#231F20" d="M264.523,28.959v1.966h-1.897v-1.966H264.523z M264.468,32.946v11.343h-1.763V32.946H264.468z"/>
	<path fill="#231F20" d="M276.923,44.289h-1.651V37c0-1.048-0.229-1.785-0.685-2.212c-0.457-0.427-1.012-0.64-1.662-0.64
		c-0.898,0-1.653,0.359-2.264,1.078c-0.61,0.719-0.915,1.665-0.915,2.841v6.222h-1.763V32.946h1.639v2.089
		c0.922-1.603,2.115-2.403,3.583-2.403c0.846,0,1.566,0.219,2.162,0.657c0.595,0.438,1.003,0.93,1.224,1.476
		c0.221,0.547,0.332,1.535,0.332,2.965V44.289z"/>
	<path fill="#231F20" d="M289.714,31.172v1.404c-0.809,0-1.35,0.093-1.623,0.28c-0.273,0.188-0.454,0.525-0.544,1.011
		c0.725,0.839,1.089,1.752,1.089,2.74c0,1.033-0.395,1.92-1.185,2.662c-0.79,0.74-1.852,1.111-3.184,1.111
		c-0.3,0-0.559-0.023-0.775-0.067c-0.412-0.082-0.67-0.124-0.775-0.124c-0.201,0-0.445,0.1-0.729,0.298s-0.427,0.455-0.427,0.77
		c0,0.449,0.206,0.741,0.617,0.876c0.412,0.135,1.382,0.221,2.909,0.258c1.295,0.038,2.252,0.126,2.869,0.265
		c0.618,0.139,1.14,0.445,1.567,0.921c0.426,0.476,0.64,1.058,0.64,1.746c0,2.164-1.901,3.246-5.705,3.246
		c-1.805,0-3.12-0.273-3.947-0.816c-0.827-0.544-1.241-1.268-1.241-2.176c0-1.101,0.576-1.858,1.729-2.271
		c-0.741-0.486-1.112-1.097-1.112-1.83c0-0.875,0.524-1.545,1.572-2.009c-0.981-0.793-1.471-1.792-1.471-2.997
		c0-1.122,0.419-2.043,1.258-2.762c0.839-0.718,1.86-1.077,3.066-1.077c0.853,0,1.628,0.161,2.324,0.483
		c0.112-0.742,0.372-1.255,0.78-1.539c0.408-0.284,1.028-0.427,1.858-0.427C289.358,31.149,289.504,31.157,289.714,31.172z
		 M282.212,43.828c-0.823,0.359-1.235,0.88-1.235,1.562c0,0.576,0.339,1.024,1.017,1.342c0.678,0.318,1.54,0.478,2.589,0.478
		c0.973,0,1.863-0.137,2.672-0.41c0.809-0.273,1.213-0.735,1.213-1.387c0-0.352-0.119-0.641-0.359-0.865
		c-0.239-0.225-0.566-0.366-0.982-0.426c-0.415-0.061-1.14-0.106-2.173-0.135C283.717,43.956,282.804,43.903,282.212,43.828z
		 M284.323,39.033c0.749,0,1.358-0.23,1.831-0.69c0.471-0.461,0.707-1.058,0.707-1.792c0-0.748-0.245-1.36-0.735-1.836
		c-0.49-0.476-1.084-0.713-1.78-0.713c-0.666,0-1.258,0.223-1.774,0.668c-0.517,0.445-0.774,1.08-0.774,1.904
		c0,0.733,0.231,1.326,0.695,1.779C282.957,38.807,283.567,39.033,284.323,39.033z"/>
	<path fill="#231F20" d="M299.26,44.289h-1.763V32.946h1.549v2.65c0.547-1.25,1.096-2.061,1.646-2.432
		c0.551-0.37,1.114-0.556,1.69-0.556c0.18,0,0.412,0.015,0.696,0.045v1.685h-0.359c-0.974,0-1.782,0.363-2.426,1.089
		c-0.643,0.727-0.988,1.682-1.033,2.864V44.289z"/>
	<path fill="#231F20" d="M312.567,40.908l1.64,0.338c-0.3,0.969-0.884,1.771-1.752,2.405c-0.868,0.635-1.891,0.952-3.066,0.952
		c-1.551,0-2.805-0.545-3.763-1.636c-0.958-1.09-1.438-2.52-1.438-4.288c0-1.807,0.498-3.266,1.493-4.379
		c0.996-1.112,2.246-1.669,3.752-1.669c1.482,0,2.674,0.513,3.576,1.538c0.902,1.026,1.365,2.561,1.387,4.605h-8.242
		c0,1.714,0.359,2.871,1.078,3.47c0.719,0.599,1.479,0.898,2.279,0.898C310.958,43.144,311.976,42.398,312.567,40.908z
		 M312.466,37.461c-0.015-0.637-0.119-1.201-0.314-1.695c-0.194-0.494-0.523-0.916-0.988-1.264
		c-0.464-0.349-1.021-0.522-1.673-0.522c-0.876,0-1.619,0.314-2.229,0.943c-0.61,0.629-0.952,1.475-1.027,2.538H312.466z"/>
	<path fill="#231F20" d="M315.522,41.347l1.684-0.349c0.375,1.431,1.558,2.146,3.549,2.146c0.734,0,1.355-0.164,1.865-0.493
		c0.509-0.329,0.764-0.793,0.764-1.391c0-0.891-0.648-1.455-1.944-1.694l-2.392-0.454c-0.936-0.18-1.681-0.531-2.234-1.055
		c-0.554-0.524-0.831-1.217-0.831-2.078c0-0.951,0.378-1.746,1.134-2.387c0.757-0.64,1.775-0.96,3.055-0.96
		c2.464,0,3.983,0.962,4.561,2.886l-1.617,0.349c-0.465-1.183-1.419-1.774-2.864-1.774c-0.719,0-1.309,0.147-1.769,0.443
		c-0.461,0.295-0.691,0.708-0.691,1.239c0,0.838,0.588,1.364,1.765,1.582l2.212,0.396c2.312,0.42,3.47,1.541,3.47,3.363
		c0,1.043-0.431,1.885-1.292,2.525c-0.86,0.642-2.006,0.962-3.435,0.962C317.819,44.604,316.157,43.518,315.522,41.347z"/>
	<path fill="#231F20" d="M335.208,40.908l1.64,0.338c-0.3,0.969-0.884,1.771-1.752,2.405c-0.868,0.635-1.891,0.952-3.065,0.952
		c-1.551,0-2.805-0.545-3.763-1.636c-0.958-1.09-1.438-2.52-1.438-4.288c0-1.807,0.498-3.266,1.493-4.379
		c0.996-1.112,2.246-1.669,3.752-1.669c1.482,0,2.674,0.513,3.576,1.538c0.902,1.026,1.365,2.561,1.387,4.605h-8.242
		c0,1.714,0.359,2.871,1.078,3.47c0.719,0.599,1.479,0.898,2.279,0.898C333.599,43.144,334.616,42.398,335.208,40.908z
		 M335.106,37.461c-0.015-0.637-0.119-1.201-0.314-1.695c-0.194-0.494-0.523-0.916-0.988-1.264
		c-0.464-0.349-1.022-0.522-1.673-0.522c-0.876,0-1.619,0.314-2.229,0.943c-0.61,0.629-0.952,1.475-1.027,2.538H335.106z"/>
	<path fill="#231F20" d="M348.56,44.289h-1.74c-0.067-0.359-0.135-1.041-0.202-2.044c-0.778,1.572-2.104,2.358-3.975,2.358
		c-1.273,0-2.25-0.338-2.932-1.013c-0.681-0.675-1.022-1.484-1.022-2.429c0-1.148,0.486-2.091,1.46-2.829
		c0.974-0.738,2.628-1.108,4.964-1.108c0.314,0,0.816,0.016,1.505,0.045c0-0.898-0.069-1.548-0.208-1.948
		c-0.139-0.4-0.432-0.721-0.881-0.96c-0.449-0.239-1.041-0.359-1.775-0.359c-1.789,0-2.83,0.682-3.121,2.044l-1.629-0.28
		c0.396-2.09,2.066-3.134,5.009-3.134c1.564,0,2.675,0.347,3.33,1.039c0.655,0.692,0.982,1.892,0.982,3.599v4.818
		C348.325,42.889,348.404,43.623,348.56,44.289z M346.618,38.617c-0.719-0.045-1.266-0.066-1.64-0.066
		c-1.393,0-2.475,0.229-3.246,0.687c-0.77,0.457-1.156,1.125-1.156,2.003c0,0.556,0.208,1.028,0.623,1.419
		c0.416,0.391,1.017,0.585,1.803,0.585c1.064,0,1.938-0.386,2.622-1.159c0.686-0.772,1.028-1.681,1.028-2.725
		C346.652,39.15,346.641,38.903,346.618,38.617z"/>
	<path fill="#231F20" d="M353.615,44.289h-1.763V32.946h1.549v2.65c0.547-1.25,1.096-2.061,1.646-2.432
		c0.551-0.37,1.114-0.556,1.69-0.556c0.18,0,0.412,0.015,0.696,0.045v1.685h-0.359c-0.974,0-1.782,0.363-2.426,1.089
		c-0.643,0.727-0.988,1.682-1.033,2.864V44.289z"/>
	<path fill="#231F20" d="M365.789,40.313l1.595,0.28c-0.225,1.255-0.723,2.236-1.494,2.945c-0.77,0.71-1.732,1.064-2.886,1.064
		c-1.565,0-2.757-0.577-3.577-1.731c-0.819-1.153-1.229-2.562-1.229-4.227c0-1.724,0.433-3.156,1.297-4.3
		c0.865-1.143,2.042-1.714,3.532-1.714c1.235,0,2.226,0.369,2.971,1.106c0.745,0.737,1.207,1.689,1.387,2.857l-1.595,0.304
		c-0.299-1.872-1.203-2.808-2.713-2.808c-0.971,0-1.718,0.414-2.241,1.241c-0.523,0.827-0.785,1.899-0.785,3.218
		c0,1.452,0.26,2.581,0.779,3.386c0.52,0.805,1.25,1.207,2.191,1.207C364.478,43.144,365.4,42.2,365.789,40.313z"/>
	<path fill="#231F20" d="M378.692,44.289h-1.764v-6.885c0-0.809-0.051-1.414-0.151-1.818c-0.102-0.404-0.341-0.755-0.719-1.051
		c-0.378-0.296-0.814-0.443-1.309-0.443c-0.906,0-1.664,0.371-2.274,1.111c-0.61,0.742-0.915,1.733-0.915,2.977v6.109h-1.763v-15.33
		h1.763v6.076c0.801-1.603,1.946-2.403,3.437-2.403c0.666,0,1.26,0.131,1.78,0.394c0.52,0.262,0.919,0.606,1.196,1.033
		c0.276,0.426,0.466,0.848,0.566,1.263c0.102,0.416,0.152,1.11,0.152,2.083V44.289z"/>
	<path fill="#231F20" d="M140.461,72.289h-1.595v-2.168c-0.808,1.655-2.011,2.482-3.61,2.482c-1.159,0-2.069-0.382-2.73-1.146
		c-0.662-0.765-0.992-1.852-0.992-3.26v-7.251h1.763v7.243c0,1.123,0.234,1.896,0.702,2.319c0.468,0.423,0.982,0.635,1.544,0.635
		c0.569,0,1.084-0.161,1.544-0.483c0.461-0.321,0.845-0.78,1.151-1.375c0.307-0.596,0.46-1.245,0.46-1.949v-6.39h1.764V72.289z"/>
	<path fill="#231F20" d="M152.927,72.289h-1.651V65c0-1.048-0.229-1.785-0.685-2.212c-0.457-0.427-1.012-0.64-1.662-0.64
		c-0.898,0-1.653,0.359-2.264,1.078c-0.61,0.719-0.915,1.665-0.915,2.841v6.222h-1.763V60.946h1.639v2.089
		c0.922-1.603,2.115-2.403,3.583-2.403c0.846,0,1.566,0.219,2.162,0.657c0.595,0.438,1.003,0.93,1.224,1.476
		c0.221,0.547,0.332,1.535,0.332,2.965V72.289z"/>
	<path fill="#231F20" d="M165.314,56.959v15.33h-1.595v-1.943c-0.795,1.506-1.99,2.258-3.588,2.258
		c-1.327,0-2.418-0.557-3.272-1.669c-0.854-1.113-1.282-2.521-1.282-4.222c0-1.738,0.424-3.186,1.27-4.344
		c0.846-1.158,1.969-1.737,3.369-1.737c1.362,0,2.475,0.621,3.336,1.864v-5.537H165.314z M163.551,65.326
		c0-0.996-0.304-1.793-0.91-2.393c-0.606-0.599-1.314-0.899-2.123-0.899c-0.875,0-1.596,0.39-2.161,1.168
		c-0.565,0.779-0.849,1.872-0.849,3.279c0,1.521,0.261,2.677,0.781,3.471c0.52,0.794,1.233,1.19,2.139,1.19
		c0.824,0,1.551-0.345,2.18-1.033c0.629-0.688,0.943-1.497,0.943-2.426V65.326z"/>
	<path fill="#231F20" d="M176.331,68.908l1.64,0.338c-0.3,0.969-0.884,1.771-1.752,2.405c-0.868,0.635-1.891,0.952-3.065,0.952
		c-1.551,0-2.805-0.545-3.763-1.636c-0.958-1.09-1.438-2.52-1.438-4.288c0-1.807,0.498-3.266,1.493-4.379
		c0.996-1.112,2.246-1.669,3.752-1.669c1.482,0,2.674,0.513,3.576,1.538c0.902,1.026,1.365,2.561,1.387,4.605h-8.242
		c0,1.714,0.359,2.871,1.078,3.47c0.719,0.599,1.479,0.898,2.279,0.898C174.722,71.144,175.739,70.398,176.331,68.908z
		 M176.23,65.461c-0.015-0.637-0.119-1.201-0.315-1.695c-0.194-0.494-0.523-0.916-0.988-1.264c-0.464-0.349-1.021-0.522-1.673-0.522
		c-0.876,0-1.619,0.314-2.23,0.943c-0.61,0.629-0.952,1.475-1.027,2.538H176.23z"/>
	<path fill="#231F20" d="M182.575,72.289h-1.763V60.946h1.549v2.65c0.547-1.25,1.096-2.061,1.646-2.432
		c0.551-0.37,1.114-0.556,1.69-0.556c0.18,0,0.412,0.015,0.696,0.045v1.685h-0.359c-0.974,0-1.782,0.363-2.426,1.089
		c-0.644,0.727-0.988,1.682-1.033,2.864V72.289z"/>
	<path fill="#231F20" d="M194.3,71.088v1.393c-0.621,0.082-1.16,0.123-1.617,0.123c-2.193,0-3.29-1.146-3.29-3.44v-6.835h-2.011
		v-1.382h2.011l0.079-2.853l1.639-0.157v3.01h2.539v1.382h-2.539v7.129c0,1.169,0.607,1.754,1.82,1.754
		C193.335,71.211,193.791,71.17,194.3,71.088z"/>
	<path fill="#231F20" d="M205.104,72.289h-1.74c-0.067-0.359-0.135-1.041-0.202-2.044c-0.778,1.572-2.104,2.358-3.976,2.358
		c-1.272,0-2.25-0.338-2.932-1.013c-0.681-0.675-1.021-1.484-1.021-2.429c0-1.147,0.486-2.091,1.46-2.829
		c0.974-0.738,2.628-1.108,4.964-1.108c0.314,0,0.816,0.016,1.505,0.045c0-0.898-0.069-1.548-0.208-1.948
		c-0.139-0.4-0.432-0.721-0.881-0.96c-0.449-0.239-1.041-0.359-1.775-0.359c-1.789,0-2.83,0.682-3.121,2.044l-1.629-0.28
		c0.396-2.09,2.066-3.134,5.009-3.134c1.564,0,2.675,0.347,3.33,1.039c0.655,0.692,0.982,1.892,0.982,3.599v4.818
		C204.868,70.889,204.947,71.623,205.104,72.289z M203.161,66.617c-0.719-0.045-1.266-0.066-1.64-0.066
		c-1.393,0-2.475,0.229-3.246,0.687c-0.771,0.457-1.156,1.125-1.156,2.003c0,0.556,0.208,1.028,0.623,1.419
		c0.416,0.391,1.017,0.585,1.803,0.585c1.063,0,1.938-0.386,2.622-1.159c0.685-0.772,1.028-1.681,1.028-2.725
		C203.195,67.15,203.184,66.903,203.161,66.617z"/>
	<path fill="#231F20" d="M217.761,72.289h-1.827l-3.315-6.333l-2.46,2.829v3.504h-1.763v-15.33h1.763v9.827l5.268-5.84h1.885
		l-3.543,3.982L217.761,72.289z"/>
	<path fill="#231F20" d="M226.903,68.908l1.64,0.338c-0.3,0.969-0.884,1.771-1.752,2.405c-0.868,0.635-1.891,0.952-3.065,0.952
		c-1.551,0-2.805-0.545-3.763-1.636c-0.958-1.09-1.438-2.52-1.438-4.288c0-1.807,0.498-3.266,1.493-4.379
		c0.996-1.112,2.246-1.669,3.752-1.669c1.482,0,2.674,0.513,3.576,1.538c0.902,1.026,1.365,2.561,1.387,4.605h-8.242
		c0,1.714,0.359,2.871,1.078,3.47c0.719,0.599,1.479,0.898,2.279,0.898C225.294,71.144,226.311,70.398,226.903,68.908z
		 M226.802,65.461c-0.015-0.637-0.119-1.201-0.314-1.695c-0.194-0.494-0.523-0.916-0.988-1.264
		c-0.464-0.349-1.021-0.522-1.673-0.522c-0.876,0-1.619,0.314-2.229,0.943c-0.61,0.629-0.952,1.475-1.027,2.538H226.802z"/>
	<path fill="#231F20" d="M240.323,72.289h-1.651V65c0-1.048-0.229-1.785-0.685-2.212c-0.457-0.427-1.012-0.64-1.662-0.64
		c-0.898,0-1.653,0.359-2.264,1.078c-0.61,0.719-0.915,1.665-0.915,2.841v6.222h-1.763V60.946h1.639v2.089
		c0.922-1.603,2.115-2.403,3.583-2.403c0.846,0,1.567,0.219,2.162,0.657c0.595,0.438,1.003,0.93,1.224,1.476
		c0.221,0.547,0.332,1.535,0.332,2.965V72.289z"/>
	<path fill="#231F20" d="M258.472,72.289h-1.74c-0.067-0.359-0.135-1.041-0.202-2.044c-0.778,1.572-2.104,2.358-3.976,2.358
		c-1.272,0-2.25-0.338-2.932-1.013c-0.681-0.675-1.021-1.484-1.021-2.429c0-1.147,0.486-2.091,1.46-2.829
		c0.974-0.738,2.628-1.108,4.964-1.108c0.314,0,0.816,0.016,1.505,0.045c0-0.898-0.069-1.548-0.208-1.948
		c-0.139-0.4-0.432-0.721-0.881-0.96c-0.449-0.239-1.041-0.359-1.775-0.359c-1.789,0-2.83,0.682-3.121,2.044l-1.629-0.28
		c0.396-2.09,2.066-3.134,5.009-3.134c1.564,0,2.675,0.347,3.33,1.039c0.655,0.692,0.982,1.892,0.982,3.599v4.818
		C258.236,70.889,258.315,71.623,258.472,72.289z M256.529,66.617c-0.719-0.045-1.266-0.066-1.64-0.066
		c-1.393,0-2.475,0.229-3.246,0.687c-0.77,0.457-1.156,1.125-1.156,2.003c0,0.556,0.208,1.028,0.623,1.419
		c0.416,0.391,1.017,0.585,1.803,0.585c1.063,0,1.938-0.386,2.622-1.159c0.686-0.772,1.028-1.681,1.028-2.725
		C256.564,67.15,256.552,66.903,256.529,66.617z"/>
	<path fill="#231F20" d="M266.905,71.088v1.393c-0.621,0.082-1.16,0.123-1.617,0.123c-2.193,0-3.29-1.146-3.29-3.44v-6.835h-2.011
		v-1.382h2.011l0.079-2.853l1.639-0.157v3.01h2.539v1.382h-2.539v7.129c0,1.169,0.607,1.754,1.82,1.754
		C265.94,71.211,266.397,71.17,266.905,71.088z"/>
	<path fill="#231F20" d="M283.933,67.135l1.752,0.392c-0.839,3.384-2.733,5.076-5.684,5.076c-1.939,0-3.46-0.783-4.565-2.349
		c-1.104-1.566-1.656-3.491-1.656-5.776c0-2.36,0.576-4.256,1.729-5.687c1.153-1.432,2.699-2.147,4.639-2.147
		c2.875,0,4.721,1.644,5.537,4.931l-1.809,0.359c-0.659-2.441-1.905-3.661-3.74-3.661c-1.355,0-2.404,0.567-3.149,1.701
		c-0.745,1.135-1.118,2.727-1.118,4.779c0,1.879,0.383,3.386,1.146,4.52c0.764,1.135,1.773,1.701,3.031,1.701
		C282.001,70.975,283.296,69.695,283.933,67.135z"/>
	<path fill="#231F20" d="M296.778,72.289h-1.74c-0.067-0.359-0.135-1.041-0.202-2.044c-0.778,1.572-2.104,2.358-3.976,2.358
		c-1.272,0-2.25-0.338-2.932-1.013c-0.681-0.675-1.022-1.484-1.022-2.429c0-1.147,0.486-2.091,1.46-2.829
		c0.974-0.738,2.628-1.108,4.964-1.108c0.315,0,0.816,0.016,1.505,0.045c0-0.898-0.069-1.548-0.208-1.948
		c-0.139-0.4-0.432-0.721-0.881-0.96c-0.449-0.239-1.041-0.359-1.775-0.359c-1.789,0-2.83,0.682-3.121,2.044l-1.629-0.28
		c0.396-2.09,2.066-3.134,5.009-3.134c1.564,0,2.675,0.347,3.33,1.039c0.655,0.692,0.982,1.892,0.982,3.599v4.818
		C296.543,70.889,296.622,71.623,296.778,72.289z M294.836,66.617c-0.719-0.045-1.266-0.066-1.64-0.066
		c-1.393,0-2.475,0.229-3.246,0.687c-0.771,0.457-1.156,1.125-1.156,2.003c0,0.556,0.208,1.028,0.623,1.419
		c0.416,0.391,1.017,0.585,1.803,0.585c1.064,0,1.938-0.386,2.622-1.159c0.686-0.772,1.028-1.681,1.028-2.725
		C294.87,67.15,294.858,66.903,294.836,66.617z"/>
	<path fill="#231F20" d="M301.832,72.289h-1.763V60.946h1.549v2.65c0.547-1.25,1.096-2.061,1.646-2.432
		c0.551-0.37,1.114-0.556,1.69-0.556c0.18,0,0.412,0.015,0.696,0.045v1.685h-0.359c-0.974,0-1.782,0.363-2.426,1.089
		c-0.643,0.727-0.988,1.682-1.033,2.864V72.289z"/>
	<path fill="#231F20" d="M316.14,56.959v15.33h-1.595v-1.943c-0.795,1.506-1.99,2.258-3.588,2.258c-1.327,0-2.418-0.557-3.272-1.669
		c-0.854-1.113-1.282-2.521-1.282-4.222c0-1.738,0.424-3.186,1.27-4.344c0.846-1.158,1.969-1.737,3.369-1.737
		c1.362,0,2.475,0.621,3.336,1.864v-5.537H316.14z M314.377,65.326c0-0.996-0.304-1.793-0.91-2.393
		c-0.607-0.599-1.314-0.899-2.123-0.899c-0.875,0-1.596,0.39-2.161,1.168c-0.565,0.779-0.849,1.872-0.849,3.279
		c0,1.521,0.261,2.677,0.781,3.471c0.521,0.794,1.233,1.19,2.139,1.19c0.824,0,1.551-0.345,2.18-1.033
		c0.629-0.688,0.943-1.497,0.943-2.426V65.326z"/>
	<path fill="#231F20" d="M321.484,56.959v1.966h-1.897v-1.966H321.484z M321.429,60.946v11.343h-1.763V60.946H321.429z"/>
	<path fill="#231F20" d="M329.649,60.946v1.382h-2.695v9.961h-1.764v-9.961h-1.932v-1.382h1.932c0.03-1.819,0.381-2.991,1.051-3.515
		c0.67-0.524,1.488-0.787,2.453-0.787c0.473,0,1.012,0.053,1.617,0.158v1.403c-0.381-0.098-0.744-0.146-1.089-0.146
		c-0.771,0-1.342,0.17-1.713,0.511c-0.37,0.341-0.556,0.979-0.556,1.915v0.46H329.649z"/>
	<path fill="#231F20" d="M337.14,60.946v1.382h-2.695v9.961h-1.764v-9.961h-1.932v-1.382h1.932c0.03-1.819,0.381-2.991,1.051-3.515
		c0.67-0.524,1.488-0.787,2.453-0.787c0.473,0,1.012,0.053,1.617,0.158v1.403c-0.381-0.098-0.744-0.146-1.089-0.146
		c-0.771,0-1.342,0.17-1.713,0.511c-0.37,0.341-0.556,0.979-0.556,1.915v0.46H337.14z"/>
	<path fill="#231F20" d="M353.976,56.959h1.594v10.014c0,2.009-0.492,3.449-1.477,4.321c-0.984,0.873-2.273,1.31-3.869,1.31
		c-1.773,0-3.088-0.449-3.941-1.349c-0.853-0.899-1.28-2.326-1.28-4.282V56.959h1.921v10.015c0,1.191,0.138,2.031,0.415,2.518
		c0.277,0.487,0.696,0.847,1.258,1.079s1.149,0.349,1.763,0.349c1.184,0,2.082-0.311,2.695-0.933
		c0.614-0.622,0.922-1.626,0.922-3.013V56.959z"/>
	<path fill="#231F20" d="M367.845,72.289h-1.651V65c0-1.048-0.228-1.785-0.685-2.212c-0.457-0.427-1.012-0.64-1.662-0.64
		c-0.898,0-1.653,0.359-2.264,1.078c-0.61,0.719-0.915,1.665-0.915,2.841v6.222h-1.763V60.946h1.639v2.089
		c0.922-1.603,2.115-2.403,3.583-2.403c0.846,0,1.566,0.219,2.162,0.657c0.595,0.438,1.003,0.93,1.224,1.476
		c0.221,0.547,0.332,1.535,0.332,2.965V72.289z"/>
	<path fill="#231F20" d="M373.189,56.959v1.966h-1.898v-1.966H373.189z M373.133,60.946v11.343h-1.763V60.946H373.133z"/>
	<path fill="#231F20" d="M384.96,60.946l-3.922,11.343h-1.817l-4.065-11.343h1.956l3.159,9.22l3.121-9.22H384.96z"/>
	<path fill="#231F20" d="M394.146,68.908l1.64,0.338c-0.3,0.969-0.884,1.771-1.752,2.405c-0.868,0.635-1.891,0.952-3.065,0.952
		c-1.551,0-2.805-0.545-3.763-1.636c-0.958-1.09-1.438-2.52-1.438-4.288c0-1.807,0.498-3.266,1.493-4.379
		c0.996-1.112,2.246-1.669,3.752-1.669c1.482,0,2.674,0.513,3.576,1.538c0.902,1.026,1.365,2.561,1.387,4.605h-8.242
		c0,1.714,0.359,2.871,1.078,3.47c0.719,0.599,1.479,0.898,2.279,0.898C392.536,71.144,393.554,70.398,394.146,68.908z
		 M394.044,65.461c-0.015-0.637-0.119-1.201-0.314-1.695c-0.194-0.494-0.523-0.916-0.988-1.264
		c-0.464-0.349-1.022-0.522-1.673-0.522c-0.876,0-1.619,0.314-2.229,0.943c-0.61,0.629-0.952,1.475-1.027,2.538H394.044z"/>
	<path fill="#231F20" d="M400.39,72.289h-1.763V60.946h1.549v2.65c0.547-1.25,1.096-2.061,1.645-2.432
		c0.551-0.37,1.114-0.556,1.69-0.556c0.18,0,0.412,0.015,0.696,0.045v1.685h-0.359c-0.974,0-1.782,0.363-2.426,1.089
		c-0.643,0.727-0.988,1.682-1.033,2.864V72.289z"/>
	<path fill="#231F20" d="M404.814,69.347l1.684-0.349c0.375,1.431,1.558,2.146,3.549,2.146c0.734,0,1.355-0.164,1.865-0.493
		c0.509-0.329,0.764-0.793,0.764-1.391c0-0.891-0.648-1.455-1.944-1.694l-2.392-0.454c-0.936-0.18-1.681-0.531-2.234-1.055
		c-0.554-0.524-0.831-1.217-0.831-2.078c0-0.951,0.378-1.746,1.134-2.387c0.757-0.64,1.775-0.96,3.055-0.96
		c2.464,0,3.983,0.962,4.561,2.886l-1.617,0.349c-0.465-1.183-1.419-1.774-2.864-1.774c-0.719,0-1.309,0.147-1.769,0.443
		c-0.461,0.295-0.691,0.708-0.691,1.239c0,0.838,0.588,1.364,1.765,1.582l2.212,0.396c2.312,0.42,3.47,1.541,3.47,3.363
		c0,1.043-0.431,1.885-1.292,2.525c-0.86,0.642-2.006,0.962-3.435,0.962C407.112,72.604,405.45,71.518,404.814,69.347z"/>
	<path fill="#231F20" d="M418.829,56.959v1.966h-1.897v-1.966H418.829z M418.773,60.946v11.343h-1.763V60.946H418.773z"/>
	<path fill="#231F20" d="M427.432,71.088v1.393c-0.621,0.082-1.16,0.123-1.617,0.123c-2.193,0-3.29-1.146-3.29-3.44v-6.835h-2.011
		v-1.382h2.011l0.079-2.853l1.639-0.157v3.01h2.539v1.382h-2.539v7.129c0,1.169,0.607,1.754,1.82,1.754
		C426.467,71.211,426.923,71.17,427.432,71.088z"/>
	<path fill="#231F20" d="M437.149,60.946l-4.548,12.669c-0.659,1.826-1.712,2.739-3.158,2.739c-0.457,0-0.963-0.079-1.517-0.235
		v-1.382c0.456,0.104,0.849,0.157,1.179,0.157c0.561,0,1.03-0.161,1.409-0.482c0.378-0.322,0.755-1.107,1.131-2.354l-3.924-11.111
		h1.791l3.046,8.523l3.103-8.523H437.149z"/>
</g>
</svg>
