<?xml version="1.0" encoding="utf-8"?>
<!-- Generator: Adobe Illustrator 17.0.0, SVG Export Plug-In . SVG Version: 6.00 Build 0)  -->
<!DOCTYPE svg PUBLIC "-//W3C//DTD SVG 1.1//EN" "http://www.w3.org/Graphics/SVG/1.1/DTD/svg11.dtd">
<svg version="1.1" id="Layer_1" xmlns="http://www.w3.org/2000/svg" xmlns:xlink="http://www.w3.org/1999/xlink" x="0px" y="0px"
	 width="100%" height="100%" viewBox="0 0 667.801 205.309" enable-background="new 0 0 667.801 205.309"
	 xml:space="preserve">
<g>
	<g>
		<rect x="0" y="0" fill="#FFFFFF" width="667.801" height="205.309"/>
	</g>
</g>
<g>
	<g>
		<path fill="none" stroke="#000000" stroke-width="0.25" d="M155.862,87.205"/>
	</g>
</g>
<g>
	<g>
		<rect x="0.006" y="104.355" fill="#D32E3F" width="150.955" height="70.826"/>
	</g>
</g>
<g>
	<g>
		<path fill="#FFFFFF" d="M137.657,126.752c-0.814,0.496-3.967,0.531-5.879,0.531c-0.035-2.301-0.035-4.816-0.035-7.188
			c0-1.275,0.07-2.641,0.106-3.986c0.034-0.674-0.179-1.027-1.382-1.027h-1.416c0.105,1.734,0.178,3.418,0.178,5.047v3.721
			c0,1.309-0.036,2.619-0.107,3.965c-0.034,0.531,0.071,1.027,1.275,1.027c5.878,0,6.338,0,6.338,0c0.496,0,0.922-0.602,0.922-0.992
			C137.657,127.85,137.657,127.496,137.657,126.752z M104.943,122.006l-1.522,0.037c0.178,0.529,0.178,2.018,0.178,2.973
			c0,0.674-0.036,1.348-0.036,2.02c-0.814,0.355-2.054,0.461-2.939,0.461c-3.294,0-5.241-2.338-5.241-5.49
			c0-3.15,1.807-5.629,5.136-5.629c1.806,0,3.683,1.098,4.568,1.912l0.425-1.203c0.177-0.639-0.071-1.029-0.461-1.205
			c-1.417-0.602-2.55-0.922-4.532-0.922c-4.604,0-7.968,2.16-7.968,7.047c0,4.676,3.435,7.014,7.861,7.014
			c1.664,0,4.002-0.461,5.665-0.957c0-0.672,0-1.24,0-1.807c0-1.098,0-2.088,0.036-3.223
			C106.147,122.502,105.724,121.971,104.943,122.006z M118.403,138.834h-2.267c0.036,0.283-0.035,0.85-0.177,1.133
			c-0.46,0.957-1.027,1.949-1.559,2.904c-0.602,1.096-1.699,2.902-2.267,3.789c-1.381-2.23-2.55-4.533-3.79-6.836
			c-0.281-0.529-0.777-0.955-1.77-0.955h-2.762c2.372,3.398,4.213,6.48,6.196,9.844c0,1.949,0.036,4.463-0.141,6.516
			c-0.036,0.604,0.354,0.957,1.134,0.957h2.514c-0.249-2.479-0.249-5.275-0.249-7.648c1.629-2.941,3.507-5.666,5.526-8.641
			c0.14-0.213,0.211-0.426,0.177-0.602C118.971,139.047,118.794,138.834,118.403,138.834z M82.291,118.242
			c0-1.24,1.098-1.947,2.267-1.947c1.275,0,2.302,0.707,2.975,1.699c0.249-0.424,0.744-1.098,0.744-1.699
			c0-1.168-2.656-1.451-3.542-1.451c-2.372,0-4.708,1.311-4.708,3.895c0,4.604,6.444,3.328,6.444,6.34
			c0,1.451-1.027,2.336-2.479,2.336c-1.487,0-3.15-0.814-3.931-2.018c-0.106,0.531-0.354,1.098-0.354,1.664s0.212,0.992,0.743,1.238
			c0.85,0.461,1.948,0.674,2.904,0.674c2.727,0,5.347-1.559,5.347-4.533C88.701,120.119,82.291,121.43,82.291,118.242z
			 M76.729,115.035l-1.842,0.035c0,0.496-0.744,1.842-1.522,3.152c-0.78,1.24-1.56,2.479-1.912,2.975
			c-1.099-1.771-2.161-3.578-3.224-5.348c-0.354-0.604-0.85-0.779-1.523-0.779h-2.23c1.913,2.619,3.683,5.312,5.383,8.072v1.561
			c0.035,1.273-0.105,2.654-0.105,3.398c0,0.566,0.494,0.707,0.92,0.707h1.877c-0.212-1.947-0.212-3.965-0.212-5.947
			c0.99-1.699,2.089-3.33,3.258-4.922c0.46-0.709,0.99-1.383,1.452-2.055c0.069-0.142,0.177-0.283,0.177-0.461
			C77.225,115.141,76.978,115.035,76.729,115.035z M61,115.117h-7.791c0.036,0.744,0.106,1.416,0.177,2.16
			c0.036,1.311,0.072,4.076,0.072,5.068c0,2.373-0.106,3.643-0.106,5.484c0,0.709,0.389,0.99,1.062,0.99h1.699
			c-0.105-1.592-0.211-3.146-0.211-4.738v-1.807c1.238,0,4.356,0.035,5.453,0.354c0-0.637,0.177-1.842-0.779-1.842
			c-1.027,0-2.798,0.213-4.674,0.213v-2.873c0-0.531,0.034-1.062,0.071-1.594c1.452,0,4.461-0.035,5.842,0.496
			C61.814,116.322,62.027,115.117,61,115.117z M46.587,121.283c0-2.727,0.143-3.363,0.143-5.065c0-0.779-0.283-1.168-1.134-1.168
			h-1.629c0.143,1.346,0.214,2.797,0.214,6.373c0,3.402-0.142,4.145-0.142,6.234c0,0.709,0.354,1.133,1.062,1.133h1.7
			C46.658,127.232,46.587,124.932,46.587,121.283z M57.311,149.756c-1.416,0.709-3.294,0.709-5.349,0.709
			c-0.53,0-0.601-0.32-0.637-0.957c0-0.531,0-1.275,0-1.771v-3.188c1.912,0,3.932,0.07,5.206,0.496l0.07-1.098
			c0.036-0.742-0.39-1.027-1.416-1.027c-1.133,0-2.443,0.178-3.896,0.178c0-0.85,0.035-1.947,0.035-2.797
			c0-0.709,0.036-1.771,0.07-2.479c4.145,0,5.171,0.354,5.773,0.602c0-0.318,0-0.779,0-0.779c0-0.709-0.531-1.381-1.346-1.381
			c0,0-0.743,0-7.791,0c0.354,0.389,0.389,1.805,0.389,2.301c0.071,2.09,0.037,5.064,0.037,7.615c0,1.486-0.037,3.01-0.107,4.568
			c-0.035,0.777,0.142,1.238,0.956,1.238c2.195,0,6.728,0,6.728,0c0.709,0,1.276-0.354,1.276-1.098
			C57.311,150.889,57.311,150.57,57.311,149.756z M33.755,136.086c-2.409-1.238-5.524-1.947-8.358-1.947
			c-9.49,0-15.795,7.648-15.795,16.998c0,9.066,6.905,14.943,15.725,14.943c2.938,0,6.869-0.85,9.242-2.654l-0.354-3.01
			c-1.595,1.664-4.781,3.01-7.084,3.01c-7.826,0-13.031-6.48-13.031-14.025c0-6.443,3.682-12.818,10.766-12.818
			c2.373,0,4.781,0.744,6.551,2.301c0.85,0.746,1.948,2.232,2.054,3.33c0.673-1.027,1.807-2.834,1.807-4.072
			C35.277,137.184,34.498,136.477,33.755,136.086z M117.622,114.959c-4.532,0-7.614,2.41-7.614,7.047c0,4.357,3.4,7.014,7.614,7.014
			c4.25,0,7.648-2.621,7.648-7.014C125.271,117.615,121.872,114.959,117.622,114.959z M117.622,127.602
			c-3.187,0-4.781-2.691-4.781-5.596c0-2.938,1.595-5.629,4.781-5.629c3.223,0,4.816,2.621,4.816,5.629
			C122.438,125.266,121.27,127.602,117.622,127.602z M131.276,136.299c-2.514,0-5.134,0-7.684,0.035
			c0.317,0.389,0.531,1.24,0.566,1.807c0.177,2.336,0.284,4.604,0.284,6.975c-2.409,0-4.958,0-7.367,0.037
			c0.319,0.389,0.495,1.238,0.566,1.805c0.213,2.516,0.283,4.887,0.283,7.402c0,3.223-0.07,6.48-0.212,9.703
			c-0.035,0.496,0.425,0.85,0.956,0.85h5.736c6.197,0,10.802-3.328,11.12-9.562c3.932-1.344,6.517-4.568,6.517-9.49
			C142.043,138.99,137.651,136.299,131.276,136.299z M135.492,153.191c-0.496-4.816-3.507-7.189-7.862-7.863
			c0-2.656,0.105-4.957,0.212-7.4c0.814-0.105,1.24-0.178,2.09-0.178c5.099,0,8.64,3.045,8.64,8.287
			C138.571,149.117,137.58,151.738,135.492,153.191z M131.207,154.395h-2.409c-0.602,0-0.921-0.318-0.956-0.814
			c-0.142-2.125-0.247-4.25-0.247-6.162c2.62,1.168,4.32,3.578,4.462,6.942C131.772,154.359,131.489,154.395,131.207,154.395z
			 M124.726,163.213h-2.444c-0.601,0-0.954-0.283-0.991-0.779c-0.141-2.336-0.212-4.463-0.212-6.836
			c0-2.939,0.071-6.055,0.249-8.854c0.777-0.105,1.273-0.141,2.088-0.141c0.355,0,0.709,0,1.028,0.035
			c0,2.869-0.071,5.738-0.214,8.607c0,0.494,0.426,0.814,0.957,0.814h5.737c0.353,0,0.743,0,1.098-0.037
			C131.667,160.166,129.4,163.213,124.726,163.213z M90.613,136.369c-3.151,0-6.586,0.07-9.313,0.07
			c0.531,0.744,0.744,2.162,0.886,5.029c0.105,2.09,0.177,4.215,0.177,6.34c0,2.584-0.035,5.17-0.107,7.754
			c-0.069,1.416-0.177,2.799-0.177,4.215c0,0.672,0.567,1.027,1.169,1.027h7.083c7.862,0,13.74-4.355,13.74-12.607
			C104.07,139.732,98.475,136.369,90.613,136.369z M90.684,158.715h-3.01c-0.707,0-1.062-0.248-1.203-0.955
			c-0.107-0.709-0.142-1.736-0.177-2.48c-0.072-1.594-0.107-3.965-0.107-5.949c0-3.646,0.177-7.295,0.318-10.906
			c0.851-0.143,1.735-0.213,2.621-0.213c6.303,0,10.658,3.576,10.658,10.199C99.784,154.254,96.952,158.715,90.684,158.715z
			 M71.657,151.242c3.683-1.168,6.339-4.072,6.339-8.074c0-5.1-4.568-6.976-8.995-6.976c-2.868,0-5.771,0.072-8.676,0.107
			c0.354,0.602,0.495,2.053,0.495,2.797c0,3.506,0.071,6.693,0.071,9.137c0,6.764-0.318,10.66-0.318,11.934
			c0,0.533,0.213,0.604,0.673,0.604c1.523,0,2.975-0.035,4.462-0.035c-0.212-0.213-0.354-0.709-0.461-1.346
			c-0.318-2.268-0.46-4.924-0.46-7.402c0.956,0,2.048-0.035,3.005-0.07c1.25,1.979,2.803,4.281,4.567,6.621
			c2.669,3.502,6.296,7.543,10.519,7.543c1.098,0,2.044-0.105,3.142-0.211C81.077,164.127,74.633,155.705,71.657,151.242z
			 M67.23,150.252c-0.85,0-1.629,0.035-2.479,0.035c0-1.098,0-2.621,0-4.285c0-2.549,0.036-5.455,0.213-7.934
			c0.744-0.07,1.594-0.141,2.408-0.141c3.612,0,6.517,1.912,6.517,5.807C73.889,147.666,71.021,150.252,67.23,150.252z
			 M35.085,122.947c1.842-0.564,3.436-1.842,3.436-4.037c0-2.939-2.585-3.789-5.029-3.789c-1.097,0-2.23-0.035-3.328-0.035
			c-0.531,0-1.098,0.035-1.629,0.035c0.178,0.248,0.283,0.602,0.317,0.922c0.108,1.521,0.071,3.859,0.071,5.771
			c0,1.346-0.034,2.727-0.071,4.072c-0.034,0.674-0.069,1.31-0.069,1.984c0,0.635,0.39,0.885,0.991,0.885
			c0.602,0,1.204-0.035,1.807-0.072c-0.213-1.131-0.248-3.646-0.248-5.348c0.354,0,1.452,0,1.452,0
			c1.062,1.701,2.089,3.33,3.328,4.959c1.027,1.418,2.196,1.984,3.966,1.984c0.214,0,0.531,0,0.744,0
			C39.938,129.713,36.963,125.816,35.085,122.947z M32.075,122.205h-0.779v-1.383c0-1.027,0.036-3.471,0.071-4.531
			c0.425,0,0.814-0.037,1.204-0.037c1.807,0,3.506,1.027,3.506,2.977C36.077,121.566,34.023,122.238,32.075,122.205z
			 M19.979,115.168l-4.993-0.037c0.213,0.32,0.283,1.418,0.319,2.48c0.071,1.982,0,4.002,0,5.949c0,1.381-0.071,2.727-0.071,4.107
			c0,0.637,0.283,1.133,0.991,1.133h1.7c-0.143-1.664-0.177-3.576-0.177-5.348c0.425,0.037,0.849,0.037,1.274,0.037
			c2.798,0,5.844-1.346,5.844-4.568C24.866,116.053,22.422,115.203,19.979,115.168z M18.846,122.357
			c-0.354,0-0.814-0.072-1.098-0.072c0,0,0-4.25,0-5.879l1.38-0.035c1.807-0.035,3.189,0.709,3.189,2.727
			C22.316,121.26,20.793,122.357,18.846,122.357z M47.995,156.838l-7.366-16.858c-0.247-0.637-0.461-1.062-1.204-1.062h-0.461
			l-8.499,18.061c-0.177,0.355-0.212,0.568-0.212,0.852c0,0.354,0.389,0.426,0.709,0.426h1.875
			c-0.034-0.107-0.034-0.285-0.034-0.426c0-0.32,0.071-0.674,0.212-1.062l1.806-4.391h7.296l1.983,4.922
			c0.248,0.602,0.53,0.92,1.239,0.92h3.611C48.597,157.971,48.173,157.229,47.995,156.838z M35.564,150.818l3.081-7.154l2.834,7.154
			H35.564z"/>
	</g>
</g>
<g>
	<g>
		<rect x="0.006" y="29.98" fill="#D32E3F" width="150.955" height="70.828"/>
	</g>
</g>
<g>
	<g>
		<path fill="#FFFFFF" d="M140.88,38.799h-14.59c0.495,2.867,0.565,8.074,0.565,14.094c0,4.854-0.389,13.07-0.389,14.521
			c0,0.92,0.53,1.414,1.452,1.414h3.718c-0.248-0.564-0.355-1.414-0.39-2.051c-0.318-4.357-0.426-8.785-0.426-13.141
			c0.602-0.035,2.02-0.141,2.231-0.141c2.09,0,4.993,0,6.906,0.814c0.178-0.461,0.425-0.957,0.425-1.451
			c0-1.098-1.133-1.348-2.02-1.348h-7.543c0-3.541,0.143-7.082,0.284-10.623h2.337c2.09,0,7.543,0,9.208,1.027
			c0.177-0.496,0.142-1.098,0.142-1.629C142.792,39.295,141.871,38.799,140.88,38.799z M122.216,40.357h-12.606
			c0.709,1.24,0.673,10.021,0.673,11.828c0,3.789-0.355,9.207-0.355,11.367c0,0.709,0.319,1.381,1.134,1.381h3.754
			c-0.354-0.955-0.531-2.656-0.602-4.887c-0.071-1.983-0.071-4.426-0.071-7.188c0.531,0,1.522-0.108,2.196-0.108
			c1.982,0,3.93,0.035,5.772,0.814c0-0.531,0.141-1.062,0.141-1.594c0-0.814-0.708-1.168-1.451-1.168h-6.623
			c0-2.799,0.142-5.561,0.247-8.357c0.816,0,1.631-0.035,2.445-0.035c2.302,0,5.559,0.07,7.648,1.027v-0.107
			C124.519,41.738,124.058,40.357,122.216,40.357z M104.445,53.035c0-2.02,0.07-4.037,0.105-6.02
			c0.034-1.062,0.142-2.16,0.142-3.223c0-0.531-0.531-0.814-0.991-0.814h-3.4c0.495,2.514,0.46,6.729,0.46,9.385
			c0,1.947-0.036,3.93-0.106,5.914c0,0.885-0.071,1.84-0.071,2.727c0,0.672,0.426,1.168,1.099,1.168c1.098,0,2.16-0.037,3.258-0.07
			C104.48,60.473,104.445,54.912,104.445,53.035z M138.046,76.336l-1.806,0.037c-0.035,0.461-0.743,1.842-1.558,3.152
			c-0.745,1.238-1.56,2.479-1.878,2.939c-1.134-1.736-2.159-3.543-3.257-5.314c-0.355-0.602-0.814-0.777-1.487-0.777h-2.267
			c1.947,2.619,3.718,5.311,5.418,8.074v1.524c0,1.309-0.143,2.619-0.143,3.363c0,0.531,0.496,0.709,0.958,0.709h1.841
			c-0.178-1.949-0.212-3.896-0.212-5.879c0.99-1.699,2.123-3.33,3.257-4.924c0.496-0.707,0.991-1.381,1.451-2.053
			c0.107-0.143,0.178-0.283,0.178-0.461C138.542,76.443,138.295,76.336,138.046,76.336z M124.671,76.373h-10.022
			c-0.743,0-1.487,0.424-1.487,1.238v0.744c1.028-0.213,3.258-0.248,4.498-0.248c0.07,1.631,0.07,3.223,0.07,4.852
			c0,2.797-0.142,4.109-0.142,6.162c0,0.707,0.426,0.922,1.099,0.922h1.699c-0.212-1.949-0.212-3.896-0.212-6.977
			c0-1.629-0.035-3.754,0.034-4.959c1.347,0,2.657,0.178,3.613,0.178c0.673,0,0.85-0.674,0.85-1.24V76.373z M110.886,82.535
			c0-2.729,0.14-3.365,0.14-5.064c0-0.779-0.282-1.168-1.132-1.168h-1.629c0.141,1.346,0.212,2.797,0.212,6.373
			c0,3.4-0.142,4.18-0.142,6.232c0,0.709,0.354,1.135,1.062,1.135h1.699C110.955,88.484,110.886,86.182,110.886,82.535z
			 M98.439,79.488c0-1.24,1.098-1.912,2.267-1.912c1.274,0,2.302,0.672,2.976,1.664c0.247-0.424,0.743-1.098,0.743-1.699
			c0-1.168-2.656-1.416-3.507-1.416c-2.407,0-4.744,1.275-4.744,3.859c0,4.604,6.444,3.328,6.444,6.34
			c0,1.451-1.027,2.373-2.479,2.373c-1.488,0-3.151-0.851-3.931-2.055c-0.106,0.531-0.354,1.098-0.354,1.664
			c0,0.568,0.213,0.992,0.743,1.24c0.851,0.459,1.948,0.707,2.905,0.707c2.726,0,5.346-1.557,5.346-4.568
			C104.849,81.367,98.439,82.676,98.439,79.488z M78.7,87.988c-1.099,0.531-2.94,0.566-4.144,0.566H73.6
			c-0.53,0-0.53-0.283-0.53-0.744c-0.036-0.354-0.036-2.869-0.036-3.223v-1.061c1.382,0,3.719,0.033,4.994,0.424
			c0.034-0.354,0.07-0.744,0.07-1.098c0-0.639-0.46-0.814-1.026-0.814c-1.311,0-2.728,0.143-4.038,0.143c0-0.887,0-1.523,0-2.338
			c0-0.674,0.071-1.381,0.106-2.09c1.312,0,4.251,0,5.454,0.494c0-0.814,0-1.875-1.169-1.875h-7.224
			c0.142,0.176,0.247,0.566,0.283,0.777c0.105,1.666,0.105,3.33,0.105,4.994c0,2.303-0.105,4.604-0.105,6.906
			c0,0.566,0.177,0.92,0.814,0.92h6.339c0.601,0,1.062-0.318,1.062-0.957V87.988z M67.387,76.303h-1.916
			c0.177,0.531-0.249,1.734-0.46,2.195c-1.063,2.619-2.483,5.9-3.583,8.125c-0.714-1.486-1.802-4.148-2.688-6.273
			c-0.46-1.061-0.814-1.994-1.274-3.057c-0.354-0.814-0.885-0.957-1.735-0.99c-0.531,0-1.198-0.037-1.765-0.037
			c2.125,4.533,4.25,9.102,6.128,13.777h1.805c1.806-4.393,3.859-8.643,5.879-12.963c0.035-0.068,0.07-0.141,0.07-0.246
			C67.848,76.549,67.67,76.303,67.387,76.303z M33.825,40.145c-2.373-1.238-5.488-1.947-8.322-1.947
			c-9.49,0-15.794,7.648-15.794,16.998c0,9.102,6.905,14.945,15.724,14.945c2.938,0,6.871-0.85,9.243-2.656l-0.354-3.012
			c-1.594,1.701-4.781,3.012-7.118,3.012c-7.792,0-12.996-6.48-12.996-14.023c0-6.445,3.683-12.785,10.766-12.785
			c2.372,0,4.78,0.744,6.551,2.303c0.814,0.707,1.947,2.195,2.055,3.328c0.672-1.062,1.806-2.867,1.806-4.107
			C35.384,41.242,34.604,40.535,33.825,40.145z M51.071,82.535c0-2.729,0.142-3.365,0.142-5.064c0-0.779-0.247-1.168-1.098-1.168
			h-1.664c0.143,1.346,0.213,2.797,0.213,6.373c0,3.4-0.142,4.18-0.142,6.232c0,0.709,0.354,1.135,1.098,1.135h1.663
			C51.143,88.484,51.071,86.182,51.071,82.535z M43.625,76.373h-1.416c0.105,2.301,0.142,4.604,0.142,6.906v2.371
			c-3.329-3.08-6.41-6.232-9.668-9.42h-0.957c0.036,0.637,0.036,1.311,0.036,1.984c0,2.654,0.035,6.268-0.107,7.967
			c-0.106,1.807-0.247,2.268-0.247,3.258c0,0.461,0.247,0.604,0.709,0.604c0.495,0,0.99-0.037,1.521-0.037
			c-0.212-1.451-0.247-2.904-0.247-4.391c0-1.699,0.07-3.295,0.07-4.994c3.295,3.223,6.553,6.234,9.668,9.633h0.956
			c-0.07-2.301-0.105-4.604-0.105-6.869c0-1.275,0.105-2.443,0.141-3.613c0.036-0.992,0.178-2.088,0.178-2.691
			C44.298,76.619,44.05,76.373,43.625,76.373z M26.672,76.303h-1.274c0.213,1.451,0.247,2.371,0.247,3.824
			c0,0.814-0.034,2.301-0.034,3.471c0,2.797-0.851,4.992-4.108,4.992c-3.754,0-4.142-2.266-4.142-5.455
			c0-2.051,0.212-4.461,0.212-6.195c0-0.461-0.283-0.637-0.744-0.637h-1.982c0.106,1.524,0.141,2.514,0.141,4.887
			c0,0.992-0.07,2.338-0.07,3.363c0,4.072,2.302,5.701,6.197,5.701c3.718,0,6.056-1.982,6.197-5.771
			c0.106-3.613,0.318-6.234,0.318-7.438C27.628,76.443,27.203,76.303,26.672,76.303z M83.403,40.463
			c-3.187,0-6.622,0.037-9.312,0.037c0.496,0.777,0.707,2.195,0.85,5.062c0.142,2.09,0.177,4.215,0.177,6.338
			c0,2.588-0.035,5.137-0.107,7.721c-0.035,1.416-0.143,2.834-0.143,4.25c0,0.639,0.567,1.027,1.169,1.027h7.048
			c7.897,0,13.776-4.355,13.776-12.605C96.861,43.828,91.266,40.463,83.403,40.463z M83.475,62.811h-3.011
			c-0.743,0-1.098-0.25-1.203-0.992c-0.143-0.709-0.143-1.701-0.177-2.443c-0.071-1.596-0.107-3.967-0.107-5.951
			c0-3.646,0.142-7.295,0.284-10.941c0.885-0.141,1.771-0.178,2.655-0.178c6.304,0,10.624,3.578,10.624,10.199
			C92.54,58.311,89.742,62.811,83.475,62.811z M88.929,84.164c1.841-0.531,3.435-1.807,3.435-4.002c0-2.939-2.55-3.789-5.028-3.789
			c-1.098,0-2.196-0.037-3.328-0.037c-0.532,0-1.063,0-1.63,0.037c0.212,0.246,0.283,0.602,0.319,0.92
			c0.105,1.523,0.07,3.824,0.07,5.736c0,1.383-0.035,2.764-0.07,4.109c-0.036,0.637-0.071,1.311-0.071,1.947
			c0,0.674,0.39,0.885,0.991,0.885c0.602,0,1.205-0.035,1.807-0.035c-0.213-1.133-0.248-3.648-0.248-5.348c0.354,0,1.452,0,1.452,0
			c1.062,1.699,2.088,3.295,3.328,4.959c1.027,1.416,2.195,1.982,3.967,1.982c0.212,0,0.53,0,0.743,0
			C93.78,90.963,90.84,87.031,88.929,84.164z M85.919,83.455h-0.78v-1.381c0-1.027,0.036-3.506,0.106-4.533
			c0.391,0,0.779-0.035,1.169-0.035c1.806,0,3.506,1.027,3.506,2.975C89.92,82.818,87.866,83.455,85.919,83.455z M49.442,60.861
			l-7.365-16.857c-0.284-0.637-0.461-1.061-1.204-1.061l-0.462,0.035l-8.498,18.025c-0.177,0.389-0.213,0.566-0.213,0.885
			c0,0.318,0.391,0.389,0.709,0.389h1.876c-0.035-0.105-0.035-0.281-0.035-0.424c0-0.318,0.071-0.672,0.213-1.062l1.806-4.391h7.261
			l2.018,4.957c0.249,0.602,0.532,0.885,1.24,0.885h3.611C50.046,61.996,49.62,61.25,49.442,60.861z M36.977,54.842l3.117-7.154
			l2.833,7.154H36.977z M63.768,55.381c3.684-1.168,6.339-4.072,6.339-8.074c0-5.1-4.566-6.976-8.994-6.976
			c-2.869,0-5.772,0.072-8.676,0.107c0.354,0.602,0.496,2.053,0.496,2.797c0,3.506,0.07,6.693,0.07,9.137
			c0,6.764-0.318,10.66-0.318,11.934c0,0.531,0.212,0.604,0.672,0.604c1.524,0,2.975-0.037,4.463-0.037
			c-0.213-0.211-0.354-0.707-0.461-1.344c-0.318-2.268-0.46-4.924-0.46-7.402c0.956,0,2.048-0.035,3.004-0.07
			c1.249,1.979,2.804,4.281,4.568,6.621c2.668,3.502,6.296,7.543,10.518,7.543c1.098,0,2.044-0.105,3.143-0.211
			C73.188,68.266,66.744,59.844,63.768,55.381z M59.342,54.391c-0.85,0-1.629,0.035-2.479,0.035c0-1.098,0-2.621,0-4.285
			c0-2.551,0.035-5.455,0.212-7.934c0.744-0.07,1.594-0.143,2.408-0.143c3.612,0,6.517,1.914,6.517,5.809
			C66,51.805,63.131,54.391,59.342,54.391z"/>
	</g>
</g>
<g>
	<g>
		<path fill="#231F20" d="M182.018,42.288v-13.33h4.473c1.882,0,3.347,0.641,4.395,1.924c1.048,1.281,1.572,2.852,1.572,4.707
			c0,1.881-0.511,3.469-1.533,4.76c-1.023,1.293-2.317,1.94-3.887,1.94H182.018z M183.689,40.872h2.705
			c1.433,0,2.52-0.496,3.262-1.484c0.742-0.99,1.113-2.295,1.113-3.916c0-1.316-0.354-2.498-1.059-3.545
			c-0.706-1.049-1.812-1.572-3.316-1.572h-2.705V40.872z"/>
	</g>
	<g>
		<path fill="#231F20" d="M201.335,39.349l1.426,0.293c-0.261,0.842-0.768,1.539-1.523,2.092c-0.755,0.553-1.644,0.828-2.666,0.828
			c-1.348,0-2.439-0.475-3.271-1.422c-0.833-0.949-1.25-2.191-1.25-3.73c0-1.57,0.433-2.84,1.299-3.807
			c0.866-0.969,1.953-1.451,3.262-1.451c1.289,0,2.326,0.445,3.11,1.338c0.784,0.891,1.186,2.227,1.206,4.004h-7.168
			c0,1.49,0.312,2.496,0.938,3.018c0.625,0.52,1.286,0.781,1.982,0.781C199.936,41.292,200.82,40.644,201.335,39.349z
			 M201.247,36.351c-0.013-0.555-0.105-1.045-0.273-1.475c-0.169-0.43-0.456-0.797-0.859-1.1c-0.403-0.303-0.889-0.453-1.455-0.453
			c-0.762,0-1.408,0.273-1.938,0.82c-0.53,0.547-0.828,1.281-0.894,2.207H201.247z"/>
	</g>
	<g>
		<path fill="#231F20" d="M212.097,32.425l-3.41,9.863h-1.58l-3.535-9.863h1.701l2.747,8.018l2.714-8.018H212.097z"/>
	</g>
	<g>
		<path fill="#231F20" d="M220.085,39.349l1.426,0.293c-0.261,0.842-0.768,1.539-1.523,2.092c-0.755,0.553-1.644,0.828-2.666,0.828
			c-1.348,0-2.439-0.475-3.271-1.422c-0.833-0.949-1.25-2.191-1.25-3.73c0-1.57,0.433-2.84,1.299-3.807
			c0.866-0.969,1.953-1.451,3.262-1.451c1.289,0,2.326,0.445,3.11,1.338c0.784,0.891,1.186,2.227,1.206,4.004h-7.168
			c0,1.49,0.312,2.496,0.938,3.018c0.625,0.52,1.286,0.781,1.982,0.781C218.686,41.292,219.57,40.644,220.085,39.349z
			 M219.997,36.351c-0.013-0.555-0.105-1.045-0.273-1.475c-0.169-0.43-0.456-0.797-0.859-1.1c-0.403-0.303-0.889-0.453-1.455-0.453
			c-0.762,0-1.408,0.273-1.938,0.82c-0.53,0.547-0.828,1.281-0.894,2.207H219.997z"/>
	</g>
	<g>
		<path fill="#231F20" d="M225.515,42.288h-1.533v-13.33h1.533V42.288z"/>
	</g>
	<g>
		<path fill="#231F20" d="M232.116,42.562c-1.354,0-2.41-0.502-3.169-1.506c-0.759-1.004-1.138-2.248-1.138-3.734
			c0-1.57,0.427-2.824,1.279-3.764c0.853-0.938,1.914-1.406,3.184-1.406c1.36,0,2.434,0.492,3.218,1.481
			c0.784,0.986,1.177,2.221,1.177,3.699c0,1.539-0.423,2.795-1.27,3.77C234.551,42.073,233.457,42.562,232.116,42.562z
			 M232.233,41.292c0.781,0,1.436-0.322,1.963-0.967c0.527-0.645,0.791-1.648,0.791-3.008c0-1.367-0.276-2.359-0.83-2.975
			c-0.554-0.615-1.201-0.922-1.943-0.922c-0.762,0-1.406,0.311-1.934,0.932c-0.527,0.623-0.791,1.607-0.791,2.955
			c0,1.426,0.264,2.445,0.791,3.061C230.808,40.983,231.459,41.292,232.233,41.292z"/>
	</g>
	<g>
		<path fill="#231F20" d="M240.505,45.618h-1.533V32.425h1.387v1.914c0.695-1.459,1.732-2.188,3.111-2.188
			c1.163,0,2.103,0.486,2.818,1.461c0.715,0.975,1.072,2.207,1.072,3.699c0,1.609-0.368,2.887-1.104,3.832
			c-0.735,0.945-1.68,1.418-2.832,1.418c-1.237,0-2.21-0.59-2.92-1.768V45.618z M240.505,35.931v2.783
			c0.098,0.746,0.413,1.361,0.947,1.848c0.534,0.486,1.091,0.73,1.67,0.73c0.671,0,1.265-0.293,1.782-0.879
			c0.518-0.586,0.776-1.6,0.776-3.037c0-1.244-0.234-2.203-0.703-2.877c-0.469-0.674-1.091-1.01-1.865-1.01
			c-0.612,0-1.16,0.236-1.646,0.713C240.981,34.677,240.661,35.253,240.505,35.931z"/>
	</g>
	<g>
		<path fill="#231F20" d="M256.169,39.349l1.426,0.293c-0.261,0.842-0.768,1.539-1.523,2.092c-0.755,0.553-1.644,0.828-2.666,0.828
			c-1.348,0-2.439-0.475-3.271-1.422c-0.833-0.949-1.25-2.191-1.25-3.73c0-1.57,0.433-2.84,1.299-3.807
			c0.866-0.969,1.953-1.451,3.262-1.451c1.289,0,2.326,0.445,3.11,1.338c0.784,0.891,1.187,2.227,1.206,4.004h-7.168
			c0,1.49,0.312,2.496,0.938,3.018c0.625,0.52,1.286,0.781,1.982,0.781C254.77,41.292,255.654,40.644,256.169,39.349z
			 M256.081,36.351c-0.013-0.555-0.104-1.045-0.273-1.475c-0.169-0.43-0.456-0.797-0.859-1.1c-0.403-0.303-0.889-0.453-1.455-0.453
			c-0.762,0-1.408,0.273-1.938,0.82c-0.53,0.547-0.828,1.281-0.894,2.207H256.081z"/>
	</g>
	<g>
		<path fill="#231F20" d="M267.771,28.958v13.33h-1.387v-1.69c-0.691,1.309-1.73,1.963-3.119,1.963
			c-1.154,0-2.103-0.484-2.846-1.451c-0.744-0.969-1.115-2.191-1.115-3.672c0-1.512,0.368-2.77,1.103-3.777
			c0.735-1.006,1.712-1.51,2.93-1.51c1.185,0,2.151,0.539,2.9,1.621v-4.814H267.771z M266.237,36.233
			c0-0.867-0.264-1.561-0.791-2.08c-0.527-0.521-1.143-0.781-1.846-0.781c-0.762,0-1.389,0.338-1.88,1.016
			c-0.491,0.676-0.737,1.627-0.737,2.852c0,1.32,0.227,2.326,0.679,3.018c0.452,0.689,1.072,1.035,1.86,1.035
			c0.716,0,1.348-0.301,1.895-0.898c0.547-0.6,0.82-1.303,0.82-2.109V36.233z"/>
	</g>
	<g>
		<path fill="#231F20" d="M283.601,42.288h-1.387v-1.885c-0.702,1.438-1.749,2.158-3.14,2.158c-1.008,0-1.799-0.332-2.374-0.998
			c-0.575-0.664-0.863-1.609-0.863-2.834v-6.305h1.533v6.299c0,0.977,0.203,1.649,0.61,2.016c0.407,0.369,0.854,0.553,1.343,0.553
			c0.495,0,0.942-0.141,1.343-0.42c0.4-0.281,0.734-0.68,1.001-1.197s0.4-1.082,0.4-1.693v-5.557h1.533V42.288z"/>
	</g>
	<g>
		<path fill="#231F20" d="M285.339,39.729l1.465-0.303c0.325,1.242,1.354,1.865,3.086,1.865c0.638,0,1.179-0.143,1.621-0.43
			c0.442-0.285,0.664-0.69,0.664-1.209c0-0.773-0.564-1.266-1.69-1.473l-2.079-0.395c-0.814-0.156-1.462-0.463-1.943-0.918
			c-0.481-0.457-0.723-1.058-0.723-1.807c0-0.828,0.329-1.52,0.986-2.076c0.657-0.557,1.543-0.834,2.656-0.834
			c2.142,0,3.464,0.836,3.965,2.51l-1.406,0.303c-0.403-1.029-1.233-1.543-2.49-1.543c-0.625,0-1.138,0.129-1.538,0.385
			c-0.4,0.258-0.601,0.615-0.601,1.078c0,0.729,0.511,1.186,1.534,1.375l1.923,0.346c2.012,0.365,3.018,1.34,3.018,2.924
			c0,0.906-0.374,1.639-1.123,2.197c-0.749,0.557-1.745,0.836-2.988,0.836C287.338,42.562,285.893,41.616,285.339,39.729z"/>
	</g>
	<g>
		<path fill="#231F20" d="M297.526,28.958v1.709h-1.65v-1.709H297.526z M297.478,32.425v9.863h-1.533v-9.863H297.478z"/>
	</g>
	<g>
		<path fill="#231F20" d="M308.308,42.288h-1.435V35.95c0-0.912-0.198-1.553-0.596-1.924c-0.397-0.371-0.879-0.557-1.445-0.557
			c-0.781,0-1.438,0.312-1.968,0.938c-0.53,0.625-0.796,1.447-0.796,2.471v5.41h-1.533v-9.863h1.426v1.816
			c0.801-1.395,1.839-2.09,3.115-2.09c0.735,0,1.362,0.19,1.88,0.57c0.517,0.381,0.872,0.809,1.064,1.285
			c0.192,0.475,0.288,1.334,0.288,2.578V42.288z"/>
	</g>
	<g>
		<path fill="#231F20" d="M319.431,30.882v1.221c-0.703,0-1.174,0.08-1.411,0.244c-0.237,0.162-0.396,0.455-0.474,0.879
			c0.632,0.729,0.947,1.523,0.947,2.383c0,0.898-0.344,1.67-1.03,2.314c-0.687,0.645-1.609,0.967-2.769,0.967
			c-0.261,0-0.485-0.02-0.674-0.059c-0.358-0.072-0.583-0.107-0.674-0.107c-0.176,0-0.388,0.086-0.635,0.258
			c-0.247,0.174-0.371,0.396-0.371,0.67c0,0.391,0.179,0.645,0.537,0.762c0.358,0.117,1.201,0.191,2.529,0.225
			c1.126,0.031,1.958,0.109,2.495,0.229c0.537,0.121,0.991,0.389,1.362,0.801c0.371,0.414,0.557,0.92,0.557,1.52
			c0,1.881-1.653,2.822-4.961,2.822c-1.569,0-2.713-0.236-3.433-0.709c-0.72-0.473-1.079-1.104-1.079-1.893
			c0-0.957,0.501-1.615,1.504-1.975c-0.645-0.422-0.967-0.953-0.967-1.59c0-0.762,0.456-1.344,1.367-1.748
			c-0.853-0.689-1.279-1.559-1.279-2.605c0-0.977,0.364-1.777,1.094-2.4c0.729-0.625,1.618-0.938,2.666-0.938
			c0.742,0,1.416,0.139,2.022,0.42c0.098-0.645,0.324-1.092,0.679-1.338c0.354-0.248,0.893-0.371,1.616-0.371
			C319.121,30.862,319.248,30.868,319.431,30.882z M312.907,41.888c-0.716,0.312-1.074,0.764-1.074,1.357
			c0,0.5,0.295,0.891,0.884,1.166c0.589,0.277,1.34,0.416,2.251,0.416c0.847,0,1.621-0.119,2.324-0.357
			c0.703-0.236,1.055-0.639,1.055-1.205c0-0.307-0.105-0.557-0.312-0.752c-0.208-0.195-0.493-0.32-0.855-0.371
			c-0.361-0.053-0.991-0.092-1.89-0.117C314.216,41.997,313.422,41.952,312.907,41.888z M314.743,37.718
			c0.651,0,1.182-0.201,1.592-0.602c0.41-0.4,0.615-0.92,0.615-1.557c0-0.652-0.213-1.184-0.64-1.598
			c-0.427-0.412-0.942-0.619-1.548-0.619c-0.579,0-1.094,0.193-1.543,0.58c-0.449,0.389-0.674,0.94-0.674,1.656
			c0,0.637,0.202,1.154,0.605,1.547C313.555,37.521,314.086,37.718,314.743,37.718z"/>
	</g>
	<g>
		<path fill="#231F20" d="M327.731,42.288h-1.533v-9.863h1.348v2.305c0.476-1.088,0.952-1.793,1.431-2.115
			c0.479-0.322,0.969-0.482,1.47-0.482c0.156,0,0.358,0.012,0.605,0.039v1.465h-0.312c-0.847,0-1.55,0.314-2.109,0.947
			c-0.56,0.631-0.859,1.461-0.898,2.49V42.288z"/>
	</g>
	<g>
		<path fill="#231F20" d="M339.304,39.349l1.426,0.293c-0.261,0.842-0.769,1.539-1.523,2.092c-0.755,0.553-1.643,0.828-2.666,0.828
			c-1.348,0-2.439-0.475-3.272-1.422c-0.833-0.949-1.25-2.191-1.25-3.73c0-1.57,0.433-2.84,1.299-3.807
			c0.866-0.969,1.953-1.451,3.262-1.451c1.289,0,2.326,0.445,3.11,1.338c0.784,0.891,1.187,2.227,1.206,4.004h-7.168
			c0,1.49,0.312,2.496,0.938,3.018c0.625,0.52,1.286,0.781,1.982,0.781C337.904,41.292,338.789,40.644,339.304,39.349z
			 M339.216,36.351c-0.013-0.555-0.104-1.045-0.273-1.475c-0.169-0.43-0.456-0.797-0.859-1.1c-0.403-0.303-0.889-0.453-1.455-0.453
			c-0.762,0-1.408,0.273-1.939,0.82c-0.53,0.547-0.828,1.281-0.893,2.207H339.216z"/>
	</g>
	<g>
		<path fill="#231F20" d="M341.872,39.729l1.465-0.303c0.325,1.242,1.354,1.865,3.086,1.865c0.638,0,1.179-0.143,1.621-0.43
			c0.442-0.285,0.664-0.69,0.664-1.209c0-0.773-0.564-1.266-1.69-1.473l-2.079-0.395c-0.814-0.156-1.462-0.463-1.943-0.918
			c-0.481-0.457-0.723-1.058-0.723-1.807c0-0.828,0.329-1.52,0.986-2.076c0.657-0.557,1.543-0.834,2.656-0.834
			c2.142,0,3.464,0.836,3.965,2.51l-1.406,0.303c-0.403-1.029-1.233-1.543-2.49-1.543c-0.625,0-1.138,0.129-1.538,0.385
			c-0.4,0.258-0.601,0.615-0.601,1.078c0,0.729,0.511,1.186,1.534,1.375l1.923,0.346c2.012,0.365,3.018,1.34,3.018,2.924
			c0,0.906-0.374,1.639-1.123,2.197c-0.749,0.557-1.745,0.836-2.988,0.836C343.871,42.562,342.426,41.616,341.872,39.729z"/>
	</g>
	<g>
		<path fill="#231F20" d="M358.991,39.349l1.426,0.293c-0.261,0.842-0.769,1.539-1.523,2.092c-0.755,0.553-1.643,0.828-2.666,0.828
			c-1.348,0-2.439-0.475-3.272-1.422c-0.833-0.949-1.25-2.191-1.25-3.73c0-1.57,0.433-2.84,1.299-3.807
			c0.866-0.969,1.953-1.451,3.262-1.451c1.289,0,2.326,0.445,3.11,1.338c0.784,0.891,1.187,2.227,1.206,4.004h-7.168
			c0,1.49,0.312,2.496,0.938,3.018c0.625,0.52,1.286,0.781,1.982,0.781C357.592,41.292,358.477,40.644,358.991,39.349z
			 M358.903,36.351c-0.013-0.555-0.104-1.045-0.273-1.475c-0.169-0.43-0.456-0.797-0.859-1.1c-0.403-0.303-0.889-0.453-1.455-0.453
			c-0.762,0-1.408,0.273-1.939,0.82c-0.53,0.547-0.828,1.281-0.893,2.207H358.903z"/>
	</g>
	<g>
		<path fill="#231F20" d="M370.603,42.288h-1.514c-0.059-0.312-0.117-0.906-0.176-1.777c-0.677,1.367-1.829,2.051-3.457,2.051
			c-1.106,0-1.956-0.293-2.549-0.881c-0.593-0.586-0.889-1.291-0.889-2.113c0-0.996,0.423-1.816,1.27-2.459
			c0.847-0.643,2.285-0.963,4.316-0.963c0.273,0,0.71,0.012,1.309,0.039c0-0.781-0.061-1.346-0.181-1.695
			c-0.12-0.348-0.376-0.627-0.767-0.834c-0.391-0.209-0.905-0.312-1.543-0.312c-1.556,0-2.461,0.592-2.715,1.777l-1.416-0.244
			c0.345-1.816,1.797-2.725,4.355-2.725c1.36,0,2.326,0.301,2.896,0.902c0.569,0.604,0.854,1.646,0.854,3.131v4.189
			C370.397,41.069,370.466,41.708,370.603,42.288z M368.913,37.356c-0.625-0.039-1.101-0.059-1.426-0.059
			c-1.211,0-2.151,0.199-2.822,0.596c-0.671,0.398-1.006,0.98-1.006,1.744c0,0.482,0.181,0.893,0.542,1.232
			c0.361,0.34,0.884,0.51,1.567,0.51c0.925,0,1.685-0.336,2.28-1.008c0.596-0.674,0.894-1.463,0.894-2.369
			C368.942,37.819,368.933,37.604,368.913,37.356z"/>
	</g>
	<g>
		<path fill="#231F20" d="M374.997,42.288h-1.533v-9.863h1.348v2.305c0.476-1.088,0.952-1.793,1.431-2.115
			c0.479-0.322,0.969-0.482,1.47-0.482c0.156,0,0.358,0.012,0.605,0.039v1.465h-0.312c-0.847,0-1.55,0.314-2.109,0.947
			c-0.56,0.631-0.859,1.461-0.898,2.49V42.288z"/>
	</g>
	<g>
		<path fill="#231F20" d="M385.583,38.831l1.387,0.244c-0.195,1.09-0.628,1.943-1.299,2.561s-1.507,0.926-2.51,0.926
			c-1.36,0-2.397-0.502-3.11-1.506c-0.713-1.004-1.069-2.229-1.069-3.676c0-1.498,0.376-2.744,1.128-3.738
			c0.752-0.994,1.775-1.49,3.071-1.49c1.074,0,1.936,0.32,2.583,0.961c0.647,0.643,1.05,1.471,1.206,2.486l-1.387,0.264
			c-0.26-1.629-1.046-2.441-2.358-2.441c-0.845,0-1.495,0.359-1.949,1.078c-0.455,0.721-0.683,1.652-0.683,2.799
			c0,1.262,0.225,2.244,0.678,2.943c0.451,0.701,1.086,1.051,1.905,1.051C384.442,41.292,385.245,40.472,385.583,38.831z"/>
	</g>
	<g>
		<path fill="#231F20" d="M396.804,42.288h-1.533v-5.986c0-0.703-0.044-1.23-0.132-1.582c-0.088-0.352-0.296-0.656-0.625-0.914
			c-0.329-0.256-0.708-0.385-1.138-0.385c-0.788,0-1.447,0.322-1.978,0.967c-0.53,0.645-0.796,1.506-0.796,2.588v5.312h-1.533
			v-13.33h1.533v5.283c0.696-1.395,1.692-2.09,2.988-2.09c0.579,0,1.096,0.113,1.548,0.342c0.452,0.227,0.799,0.527,1.04,0.899
			c0.241,0.371,0.405,0.736,0.493,1.098c0.088,0.361,0.132,0.965,0.132,1.812V42.288z"/>
	</g>
	<g>
		<path fill="#231F20" d="M189.645,67.288h-1.387v-1.885c-0.702,1.438-1.749,2.158-3.14,2.158c-1.008,0-1.799-0.332-2.374-0.998
			c-0.575-0.664-0.863-1.609-0.863-2.834v-6.305h1.533v6.299c0,0.977,0.203,1.649,0.61,2.016c0.407,0.369,0.854,0.553,1.343,0.553
			c0.495,0,0.942-0.141,1.343-0.42c0.4-0.281,0.734-0.68,1.001-1.197c0.267-0.518,0.4-1.082,0.4-1.693v-5.557h1.533V67.288z"/>
	</g>
	<g>
		<path fill="#231F20" d="M200.485,67.288h-1.436V60.95c0-0.912-0.198-1.553-0.596-1.924c-0.398-0.371-0.879-0.557-1.445-0.557
			c-0.781,0-1.438,0.312-1.968,0.938s-0.796,1.447-0.796,2.471v5.41h-1.533v-9.863h1.426v1.816c0.801-1.395,1.839-2.09,3.115-2.09
			c0.735,0,1.362,0.19,1.88,0.57c0.518,0.381,0.872,0.809,1.064,1.285c0.192,0.475,0.288,1.334,0.288,2.578V67.288z"/>
	</g>
	<g>
		<path fill="#231F20" d="M211.257,53.958v13.33h-1.387v-1.689c-0.691,1.309-1.73,1.963-3.119,1.963
			c-1.154,0-2.104-0.484-2.846-1.451c-0.744-0.969-1.115-2.191-1.115-3.672c0-1.512,0.368-2.77,1.104-3.777
			c0.735-1.006,1.712-1.51,2.93-1.51c1.185,0,2.151,0.539,2.9,1.621v-4.814H211.257z M209.724,61.233
			c0-0.867-0.264-1.561-0.791-2.08c-0.527-0.521-1.143-0.781-1.846-0.781c-0.762,0-1.389,0.338-1.88,1.016
			c-0.491,0.676-0.737,1.627-0.737,2.852c0,1.32,0.227,2.326,0.679,3.018c0.452,0.689,1.072,1.035,1.86,1.035
			c0.716,0,1.348-0.301,1.895-0.898c0.547-0.6,0.82-1.303,0.82-2.109V61.233z"/>
	</g>
	<g>
		<path fill="#231F20" d="M220.837,64.349l1.426,0.293c-0.261,0.842-0.769,1.539-1.523,2.092c-0.755,0.553-1.643,0.828-2.666,0.828
			c-1.348,0-2.438-0.475-3.271-1.422c-0.833-0.949-1.25-2.191-1.25-3.73c0-1.57,0.433-2.84,1.299-3.807
			c0.866-0.969,1.953-1.451,3.262-1.451c1.289,0,2.326,0.445,3.11,1.338c0.784,0.891,1.187,2.227,1.206,4.004h-7.168
			c0,1.49,0.312,2.496,0.938,3.018c0.625,0.52,1.286,0.781,1.982,0.781C219.438,66.292,220.322,65.644,220.837,64.349z
			 M220.749,61.351c-0.013-0.555-0.104-1.045-0.273-1.475c-0.169-0.43-0.456-0.797-0.859-1.1c-0.403-0.303-0.889-0.453-1.455-0.453
			c-0.762,0-1.408,0.273-1.939,0.82c-0.53,0.547-0.828,1.281-0.893,2.207H220.749z"/>
	</g>
	<g>
		<path fill="#231F20" d="M226.267,67.288h-1.533v-9.863h1.348v2.305c0.476-1.088,0.952-1.793,1.431-2.115
			c0.479-0.322,0.969-0.482,1.47-0.482c0.156,0,0.358,0.012,0.605,0.039v1.465h-0.312c-0.847,0-1.55,0.314-2.109,0.947
			c-0.559,0.631-0.859,1.461-0.898,2.49V67.288z"/>
	</g>
	<g>
		<path fill="#231F20" d="M236.462,66.243v1.211c-0.54,0.07-1.009,0.107-1.406,0.107c-1.907,0-2.861-0.998-2.861-2.992v-5.943
			h-1.748v-1.201h1.748l0.068-2.48l1.426-0.137v2.617h2.207v1.201h-2.207v6.199c0,1.016,0.527,1.525,1.582,1.525
			C235.622,66.351,236.02,66.313,236.462,66.243z"/>
	</g>
	<g>
		<path fill="#231F20" d="M245.856,67.288h-1.514c-0.059-0.312-0.117-0.906-0.176-1.777c-0.677,1.367-1.829,2.051-3.457,2.051
			c-1.106,0-1.956-0.293-2.549-0.881c-0.593-0.586-0.889-1.291-0.889-2.113c0-0.996,0.423-1.816,1.27-2.459
			c0.847-0.643,2.285-0.963,4.316-0.963c0.273,0,0.71,0.012,1.309,0.039c0-0.781-0.061-1.346-0.181-1.695
			c-0.12-0.348-0.376-0.627-0.767-0.834c-0.391-0.209-0.905-0.312-1.543-0.312c-1.556,0-2.461,0.592-2.715,1.777l-1.416-0.244
			c0.345-1.816,1.797-2.725,4.355-2.725c1.36,0,2.326,0.301,2.896,0.902c0.569,0.604,0.854,1.646,0.854,3.131v4.189
			C245.651,66.069,245.72,66.708,245.856,67.288z M244.167,62.356c-0.625-0.039-1.101-0.059-1.426-0.059
			c-1.211,0-2.151,0.199-2.822,0.596c-0.671,0.398-1.006,0.98-1.006,1.744c0,0.482,0.181,0.893,0.542,1.232
			c0.361,0.34,0.884,0.51,1.567,0.51c0.925,0,1.685-0.336,2.28-1.008c0.596-0.674,0.894-1.463,0.894-2.369
			C244.196,62.819,244.186,62.604,244.167,62.356z"/>
	</g>
	<g>
		<path fill="#231F20" d="M256.862,67.288h-1.59l-2.883-5.508l-2.139,2.461v3.047h-1.533v-13.33h1.533v8.545l4.581-5.078h1.64
			l-3.081,3.463L256.862,67.288z"/>
	</g>
	<g>
		<path fill="#231F20" d="M264.811,64.349l1.426,0.293c-0.261,0.842-0.769,1.539-1.523,2.092c-0.755,0.553-1.643,0.828-2.666,0.828
			c-1.348,0-2.438-0.475-3.271-1.422c-0.833-0.949-1.25-2.191-1.25-3.73c0-1.57,0.433-2.84,1.299-3.807
			c0.866-0.969,1.953-1.451,3.262-1.451c1.289,0,2.326,0.445,3.11,1.338c0.784,0.891,1.187,2.227,1.206,4.004h-7.168
			c0,1.49,0.312,2.496,0.938,3.018c0.625,0.52,1.286,0.781,1.983,0.781C263.412,66.292,264.297,65.644,264.811,64.349z
			 M264.724,61.351c-0.013-0.555-0.104-1.045-0.273-1.475c-0.169-0.43-0.456-0.797-0.859-1.1c-0.403-0.303-0.889-0.453-1.455-0.453
			c-0.762,0-1.408,0.273-1.939,0.82c-0.53,0.547-0.828,1.281-0.893,2.207H264.724z"/>
	</g>
	<g>
		<path fill="#231F20" d="M276.481,67.288h-1.436V60.95c0-0.912-0.198-1.553-0.596-1.924c-0.397-0.371-0.879-0.557-1.445-0.557
			c-0.781,0-1.438,0.312-1.968,0.938s-0.796,1.447-0.796,2.471v5.41h-1.533v-9.863h1.426v1.816c0.801-1.395,1.839-2.09,3.115-2.09
			c0.735,0,1.362,0.19,1.88,0.57c0.518,0.381,0.872,0.809,1.064,1.285c0.192,0.475,0.288,1.334,0.288,2.578V67.288z"/>
	</g>
	<g>
		<path fill="#231F20" d="M292.263,67.288h-1.514c-0.059-0.312-0.117-0.906-0.176-1.777c-0.677,1.367-1.829,2.051-3.457,2.051
			c-1.107,0-1.956-0.293-2.549-0.881c-0.593-0.586-0.889-1.291-0.889-2.113c0-0.996,0.423-1.816,1.27-2.459
			c0.847-0.643,2.285-0.963,4.316-0.963c0.273,0,0.71,0.012,1.309,0.039c0-0.781-0.061-1.346-0.181-1.695
			c-0.12-0.348-0.376-0.627-0.767-0.834c-0.391-0.209-0.905-0.312-1.543-0.312c-1.556,0-2.461,0.592-2.715,1.777l-1.416-0.244
			c0.345-1.816,1.797-2.725,4.355-2.725c1.36,0,2.326,0.301,2.896,0.902c0.569,0.604,0.854,1.646,0.854,3.131v4.189
			C292.058,66.069,292.126,66.708,292.263,67.288z M290.573,62.356c-0.625-0.039-1.101-0.059-1.426-0.059
			c-1.211,0-2.151,0.199-2.822,0.596c-0.671,0.398-1.006,0.98-1.006,1.744c0,0.482,0.181,0.893,0.542,1.232
			c0.361,0.34,0.884,0.51,1.567,0.51c0.925,0,1.685-0.336,2.28-1.008c0.596-0.674,0.893-1.463,0.893-2.369
			C290.603,62.819,290.593,62.604,290.573,62.356z"/>
	</g>
	<g>
		<path fill="#231F20" d="M299.597,66.243v1.211c-0.54,0.07-1.009,0.107-1.406,0.107c-1.907,0-2.861-0.998-2.861-2.992v-5.943
			h-1.748v-1.201h1.748l0.068-2.48l1.426-0.137v2.617h2.207v1.201h-2.207v6.199c0,1.016,0.527,1.525,1.582,1.525
			C298.757,66.351,299.154,66.313,299.597,66.243z"/>
	</g>
	<g>
		<path fill="#231F20" d="M314.401,62.806l1.523,0.342c-0.729,2.941-2.376,4.414-4.941,4.414c-1.686,0-3.01-0.682-3.97-2.043
			c-0.96-1.361-1.44-3.035-1.44-5.023c0-2.053,0.501-3.699,1.504-4.945c1.003-1.244,2.347-1.865,4.033-1.865
			c2.5,0,4.105,1.428,4.815,4.287l-1.572,0.312c-0.573-2.123-1.657-3.184-3.252-3.184c-1.179,0-2.092,0.492-2.739,1.479
			c-0.647,0.986-0.972,2.371-0.972,4.156c0,1.633,0.332,2.943,0.996,3.93c0.664,0.986,1.543,1.48,2.637,1.48
			C312.722,66.146,313.848,65.032,314.401,62.806z"/>
	</g>
	<g>
		<path fill="#231F20" d="M325.573,67.288h-1.514c-0.059-0.312-0.117-0.906-0.176-1.777c-0.677,1.367-1.829,2.051-3.457,2.051
			c-1.106,0-1.956-0.293-2.549-0.881c-0.593-0.586-0.889-1.291-0.889-2.113c0-0.996,0.423-1.816,1.27-2.459
			c0.847-0.643,2.285-0.963,4.316-0.963c0.273,0,0.71,0.012,1.309,0.039c0-0.781-0.061-1.346-0.181-1.695
			c-0.12-0.348-0.376-0.627-0.767-0.834c-0.391-0.209-0.905-0.312-1.543-0.312c-1.556,0-2.461,0.592-2.715,1.777l-1.416-0.244
			c0.345-1.816,1.797-2.725,4.355-2.725c1.36,0,2.326,0.301,2.896,0.902c0.569,0.604,0.854,1.646,0.854,3.131v4.189
			C325.368,66.069,325.436,66.708,325.573,67.288z M323.884,62.356c-0.625-0.039-1.101-0.059-1.426-0.059
			c-1.211,0-2.151,0.199-2.822,0.596c-0.671,0.398-1.006,0.98-1.006,1.744c0,0.482,0.181,0.893,0.542,1.232
			c0.361,0.34,0.884,0.51,1.567,0.51c0.925,0,1.685-0.336,2.28-1.008c0.596-0.674,0.894-1.463,0.894-2.369
			C323.913,62.819,323.903,62.604,323.884,62.356z"/>
	</g>
	<g>
		<path fill="#231F20" d="M329.968,67.288h-1.533v-9.863h1.348v2.305c0.476-1.088,0.952-1.793,1.431-2.115
			c0.479-0.322,0.969-0.482,1.47-0.482c0.156,0,0.358,0.012,0.605,0.039v1.465h-0.312c-0.847,0-1.55,0.314-2.109,0.947
			c-0.56,0.631-0.859,1.461-0.898,2.49V67.288z"/>
	</g>
	<g>
		<path fill="#231F20" d="M342.409,53.958v13.33h-1.387v-1.689c-0.691,1.309-1.73,1.963-3.119,1.963
			c-1.154,0-2.103-0.484-2.846-1.451c-0.744-0.969-1.115-2.191-1.115-3.672c0-1.512,0.368-2.77,1.103-3.777
			c0.735-1.006,1.712-1.51,2.93-1.51c1.185,0,2.151,0.539,2.9,1.621v-4.814H342.409z M340.876,61.233
			c0-0.867-0.264-1.561-0.791-2.08c-0.527-0.521-1.142-0.781-1.846-0.781c-0.762,0-1.389,0.338-1.88,1.016
			c-0.491,0.676-0.737,1.627-0.737,2.852c0,1.32,0.227,2.326,0.679,3.018c0.452,0.689,1.072,1.035,1.86,1.035
			c0.716,0,1.348-0.301,1.895-0.898c0.547-0.6,0.82-1.303,0.82-2.109V61.233z"/>
	</g>
	<g>
		<path fill="#231F20" d="M347.058,53.958v1.709h-1.65v-1.709H347.058z M347.009,57.425v9.863h-1.533v-9.863H347.009z"/>
	</g>
	<g>
		<path fill="#231F20" d="M354.157,57.425v1.201h-2.344v8.662h-1.533v-8.662h-1.68v-1.201h1.68c0.026-1.582,0.33-2.602,0.913-3.057
			c0.583-0.457,1.294-0.683,2.134-0.683c0.41,0,0.879,0.045,1.406,0.137v1.221c-0.332-0.086-0.647-0.127-0.947-0.127
			c-0.671,0-1.167,0.148-1.489,0.443c-0.322,0.297-0.483,0.852-0.483,1.666v0.4H354.157z"/>
	</g>
	<g>
		<path fill="#231F20" d="M360.671,57.425v1.201h-2.344v8.662h-1.533v-8.662h-1.68v-1.201h1.68c0.026-1.582,0.33-2.602,0.913-3.057
			c0.583-0.457,1.294-0.683,2.134-0.683c0.41,0,0.879,0.045,1.406,0.137v1.221c-0.332-0.086-0.647-0.127-0.947-0.127
			c-0.671,0-1.167,0.148-1.489,0.443c-0.322,0.297-0.483,0.852-0.483,1.666v0.4H360.671z"/>
	</g>
	<g>
		<path fill="#231F20" d="M375.31,53.958h1.387v8.707c0,1.746-0.428,2.998-1.284,3.758c-0.857,0.758-1.978,1.139-3.364,1.139
			c-1.543,0-2.685-0.391-3.428-1.174c-0.742-0.781-1.113-2.021-1.113-3.723v-8.707h1.67v8.707c0,1.037,0.12,1.766,0.361,2.189
			c0.241,0.424,0.605,0.736,1.094,0.939c0.488,0.201,0.999,0.303,1.533,0.303c1.028,0,1.81-0.271,2.344-0.812
			c0.534-0.539,0.801-1.412,0.801-2.619V53.958z"/>
	</g>
	<g>
		<path fill="#231F20" d="M387.37,67.288h-1.435V60.95c0-0.912-0.198-1.553-0.596-1.924c-0.397-0.371-0.879-0.557-1.445-0.557
			c-0.781,0-1.438,0.312-1.968,0.938c-0.53,0.625-0.796,1.447-0.796,2.471v5.41h-1.533v-9.863h1.426v1.816
			c0.801-1.395,1.839-2.09,3.115-2.09c0.735,0,1.362,0.19,1.88,0.57c0.517,0.381,0.872,0.809,1.064,1.285
			c0.192,0.475,0.288,1.334,0.288,2.578V67.288z"/>
	</g>
	<g>
		<path fill="#231F20" d="M392.018,53.958v1.709h-1.65v-1.709H392.018z M391.97,57.425v9.863h-1.533v-9.863H391.97z"/>
	</g>
	<g>
		<path fill="#231F20" d="M402.253,57.425l-3.41,9.863h-1.58l-3.535-9.863h1.701l2.747,8.018l2.714-8.018H402.253z"/>
	</g>
	<g>
		<path fill="#231F20" d="M410.241,64.349l1.426,0.293c-0.261,0.842-0.769,1.539-1.523,2.092c-0.755,0.553-1.643,0.828-2.666,0.828
			c-1.348,0-2.439-0.475-3.272-1.422c-0.833-0.949-1.25-2.191-1.25-3.73c0-1.57,0.433-2.84,1.299-3.807
			c0.866-0.969,1.953-1.451,3.262-1.451c1.289,0,2.326,0.445,3.11,1.338c0.784,0.891,1.187,2.227,1.206,4.004h-7.168
			c0,1.49,0.312,2.496,0.938,3.018c0.625,0.52,1.286,0.781,1.982,0.781C408.842,66.292,409.727,65.644,410.241,64.349z
			 M410.153,61.351c-0.013-0.555-0.104-1.045-0.273-1.475c-0.169-0.43-0.456-0.797-0.859-1.1c-0.403-0.303-0.889-0.453-1.455-0.453
			c-0.762,0-1.408,0.273-1.939,0.82c-0.53,0.547-0.828,1.281-0.893,2.207H410.153z"/>
	</g>
	<g>
		<path fill="#231F20" d="M415.671,67.288h-1.533v-9.863h1.348v2.305c0.476-1.088,0.952-1.793,1.431-2.115
			c0.479-0.322,0.969-0.482,1.47-0.482c0.156,0,0.358,0.012,0.605,0.039v1.465h-0.312c-0.847,0-1.55,0.314-2.109,0.947
			c-0.56,0.631-0.859,1.461-0.898,2.49V67.288z"/>
	</g>
	<g>
		<path fill="#231F20" d="M419.518,64.729l1.465-0.303c0.325,1.242,1.354,1.865,3.086,1.865c0.638,0,1.179-0.143,1.621-0.43
			c0.442-0.285,0.664-0.689,0.664-1.209c0-0.773-0.564-1.266-1.69-1.473l-2.079-0.395c-0.813-0.156-1.462-0.463-1.943-0.918
			c-0.482-0.457-0.723-1.058-0.723-1.807c0-0.828,0.329-1.52,0.986-2.076c0.657-0.557,1.543-0.834,2.656-0.834
			c2.142,0,3.464,0.836,3.965,2.51l-1.406,0.303c-0.403-1.029-1.233-1.543-2.49-1.543c-0.625,0-1.138,0.129-1.538,0.385
			c-0.4,0.258-0.601,0.615-0.601,1.078c0,0.729,0.511,1.186,1.534,1.375l1.923,0.346c2.012,0.365,3.018,1.34,3.018,2.924
			c0,0.906-0.374,1.639-1.123,2.197c-0.749,0.557-1.745,0.836-2.988,0.836C421.518,67.562,420.072,66.616,419.518,64.729z"/>
	</g>
	<g>
		<path fill="#231F20" d="M431.706,53.958v1.709h-1.65v-1.709H431.706z M431.657,57.425v9.863h-1.533v-9.863H431.657z"/>
	</g>
	<g>
		<path fill="#231F20" d="M439.186,66.243v1.211c-0.54,0.07-1.009,0.107-1.406,0.107c-1.907,0-2.861-0.998-2.861-2.992v-5.943
			h-1.748v-1.201h1.748l0.068-2.48l1.426-0.137v2.617h2.207v1.201h-2.207v6.199c0,1.016,0.527,1.525,1.582,1.525
			C438.347,66.351,438.744,66.313,439.186,66.243z"/>
	</g>
	<g>
		<path fill="#231F20" d="M447.636,57.425l-3.954,11.016c-0.573,1.588-1.488,2.383-2.746,2.383c-0.397,0-0.837-0.068-1.319-0.205
			v-1.201c0.397,0.09,0.738,0.137,1.025,0.137c0.488,0,0.896-0.141,1.225-0.42c0.329-0.281,0.657-0.963,0.984-2.047l-3.412-9.662
			h1.558l2.648,7.412l2.697-7.412H447.636z"/>
	</g>
</g>
</svg>
