<?xml version="1.0" encoding="utf-8"?>
<!-- Generator: Adobe Illustrator 17.0.0, SVG Export Plug-In . SVG Version: 6.00 Build 0)  -->
<!DOCTYPE svg PUBLIC "-//W3C//DTD SVG 1.1//EN" "http://www.w3.org/Graphics/SVG/1.1/DTD/svg11.dtd">
<svg version="1.1" id="Layer_1" xmlns="http://www.w3.org/2000/svg" xmlns:xlink="http://www.w3.org/1999/xlink" x="0px" y="0px"
	 width="45px" height="45px" viewBox="0 0 45 45" enable-background="new 0 0 45 45" xml:space="preserve">
<polygon fill="#343433" points="1365.48,244.877 1345.562,224.953 1319.572,250.942 1293.594,224.962 1273.674,244.882 
	1299.653,270.861 1273.674,296.841 1293.594,316.76 1319.572,290.781 1345.562,316.77 1365.48,296.85 1339.492,270.861 "/>
<polygon fill="#343433" points="1545.458,241.116 1525.539,221.196 1473.43,273.31 1453.076,252.957 1433.156,272.877 
	1473.287,313.008 1473.43,312.866 1473.57,313.003 "/>
<polygon fill="#343433" points="37.434,13.996 30.939,7.5 22.465,15.974 13.995,7.503 7.5,13.998 15.971,22.468 7.5,30.939 
	13.995,37.434 22.465,28.963 30.939,37.437 37.434,30.942 28.96,22.468 "/>
</svg>
