<?xml version="1.0" encoding="utf-8"?>
<!-- Generator: Adobe Illustrator 17.0.0, SVG Export Plug-In . SVG Version: 6.00 Build 0)  -->
<!DOCTYPE svg PUBLIC "-//W3C//DTD SVG 1.1//EN" "http://www.w3.org/Graphics/SVG/1.1/DTD/svg11.dtd">
<svg version="1.1" id="Layer_2" xmlns="http://www.w3.org/2000/svg" xmlns:xlink="http://www.w3.org/1999/xlink" x="0px" y="0px"
	 width="465.751px" height="84.855px" viewBox="0 0 465.751 84.855" enable-background="new 0 0 465.751 84.855"
	 xml:space="preserve">
<g>
	<path fill="#FFFFFF" d="M168.298,0.252v12.604h-2.467V8.912c0-2.646,0.09-4.465,0.072-4.465h-0.018c-0.018,0-0.9,1.548-1.116,1.908
		l-1.962,3.385h-1.297l-1.962-3.385c-0.234-0.36-1.116-1.908-1.134-1.908h-0.018c-0.018,0,0.09,1.818,0.09,4.465v3.943h-2.467V0.252
		h2.358l2.611,4.321c0.972,1.603,1.134,1.998,1.152,1.998h0.018c0.018,0,0.18-0.396,1.152-1.998l2.629-4.321H168.298z"/>
	<path fill="#FFFFFF" d="M180.638,10.442h-5.456l-0.937,2.413h-2.701l5.185-12.604h2.359l5.186,12.604h-2.701L180.638,10.442z
		 M179.773,8.229l-1.242-3.188c-0.27-0.702-0.594-1.746-0.612-1.746h-0.018c-0.018,0-0.342,1.044-0.612,1.746l-1.242,3.188H179.773z
		"/>
	<path fill="#FFFFFF" d="M193.777,4.087c-0.288-1.261-1.386-1.908-2.503-1.908c-1.152,0-1.891,0.558-1.891,1.315
		c0,1.008,1.422,1.368,3.007,1.908c1.836,0.63,3.943,1.602,3.943,3.853c0,2.25-1.945,3.852-4.826,3.852
		c-2.646,0-4.465-1.494-5.149-3.781l2.413-0.647c0.27,1.134,1.278,2.196,2.845,2.196c1.351,0,2.053-0.666,2.053-1.513
		c0-1.278-1.71-1.584-3.493-2.215c-1.494-0.54-3.367-1.314-3.367-3.511c0-1.963,1.944-3.637,4.609-3.637
		c2.358,0,4.231,1.44,4.771,3.421L193.777,4.087z"/>
	<path fill="#FFFFFF" d="M199.573,6.481c0-0.684,0.558-1.225,1.242-1.225s1.242,0.559,1.242,1.225c0,0.702-0.558,1.242-1.242,1.242
		S199.573,7.184,199.573,6.481z"/>
	<path fill="#FFFFFF" d="M211.17,12.981c-3.007-0.559-5.258-3.097-5.258-6.428c0-3.799,2.917-6.554,6.536-6.554
		c3.619,0,6.554,2.755,6.554,6.554c0,3.367-2.287,5.905-5.33,6.445v2.233h-2.502V12.981z M216.391,6.554
		c0-2.431-1.62-4.087-3.943-4.087c-2.305,0-3.925,1.656-3.925,4.087c0,2.412,1.621,4.087,3.925,4.087
		C214.771,10.641,216.391,8.966,216.391,6.554z"/>
	<path fill="#FFFFFF" d="M233.562,0.252v7.13c0,3.709-2.125,5.726-5.438,5.726c-3.331,0-5.438-2.017-5.438-5.726v-7.13h2.502v7.094
		c0,2.341,1.008,3.421,2.935,3.421c1.908,0,2.917-1.08,2.917-3.421V0.252H233.562z"/>
	<path fill="#FFFFFF" d="M247.097,10.515v2.341h-9.02V0.252h8.913v2.341h-6.41v2.683h5.06v2.196h-5.06v3.043H247.097z"/>
	<path fill="#FFFFFF" d="M258.449,12.856l-2.503-4.304c-0.054,0-0.09,0-0.144,0h-1.909v4.304h-2.503V0.252h4.411
		c3.097,0,4.952,1.674,4.952,4.213c0,1.728-0.846,2.989-2.377,3.619l2.881,4.772H258.449z M253.894,6.319h2.233
		c1.386,0,2.035-0.9,2.035-1.855c0-0.99-0.667-1.872-2.035-1.872h-2.233V6.319z"/>
	<path fill="#FFFFFF" d="M264.497,6.481c0-0.684,0.558-1.225,1.242-1.225c0.684,0,1.242,0.559,1.242,1.225
		c0,0.702-0.558,1.242-1.242,1.242C265.055,7.724,264.497,7.184,264.497,6.481z"/>
	<path fill="#FFFFFF" d="M278.317,10.442h-5.456l-0.937,2.413h-2.701l5.186-12.604h2.359l5.185,12.604h-2.701L278.317,10.442z
		 M277.453,8.229l-1.242-3.188c-0.27-0.702-0.594-1.746-0.612-1.746h-0.018c-0.018,0-0.342,1.044-0.612,1.746l-1.242,3.188H277.453z
		"/>
	<path fill="#FFFFFF" d="M290.64,0.252c3.602,0,6.518,2.574,6.518,6.355c0,3.764-2.899,6.248-6.482,6.248h-5.474V0.252H290.64z
		 M290.676,10.515c2.088,0,3.89-1.458,3.89-3.907c0-2.448-1.801-4.015-3.926-4.015h-2.935v7.922H290.676z"/>
	<path fill="#FFFFFF" d="M310.075,10.515v2.341h-9.02V0.252h8.913v2.341h-6.41v2.683h5.059v2.196h-5.059v3.043H310.075z"/>
	<path fill="#FFFFFF" d="M54.748,36.252v12.604h-1.387l-5.6-7.544c-1.08-1.495-1.873-2.647-1.891-2.647h-0.018
		c-0.018,0,0.036,1.566,0.036,3.583v6.608h-1.477V36.252h1.387l5.6,7.526c0.954,1.278,1.872,2.593,1.891,2.593h0.018
		c0.018,0-0.036-1.692-0.036-3.493v-6.626H54.748z"/>
	<path fill="#FFFFFF" d="M65.448,36c3.619,0,6.554,2.755,6.554,6.554c0,3.799-2.935,6.554-6.554,6.554
		c-3.619,0-6.536-2.755-6.536-6.554C58.913,38.755,61.829,36,65.448,36z M65.448,47.667c2.845,0,5.023-2.089,5.023-5.113
		c0-3.061-2.179-5.113-5.023-5.113c-2.863,0-5.024,2.053-5.024,5.113C60.425,45.578,62.586,47.667,65.448,47.667z"/>
	<path fill="#FFFFFF" d="M86.234,36.252v7.382c0,3.565-1.891,5.492-5.185,5.492c-3.295,0-5.168-1.927-5.168-5.492v-7.382h1.477v7.4
		c0,2.736,1.26,4.087,3.691,4.087c2.449,0,3.709-1.351,3.709-4.087v-7.4H86.234z"/>
	<path fill="#FFFFFF" d="M101.32,36.252v12.604h-1.387l-5.6-7.544c-1.08-1.495-1.873-2.647-1.891-2.647h-0.018
		c-0.018,0,0.036,1.566,0.036,3.583v6.608h-1.477V36.252h1.387l5.6,7.526c0.954,1.278,1.873,2.593,1.891,2.593h0.018
		c0.018,0-0.036-1.692-0.036-3.493v-6.626H101.32z"/>
	<path fill="#FFFFFF" d="M112.17,39.816c0-0.504,0.396-0.899,0.9-0.899c0.486,0,0.882,0.414,0.882,0.899
		c0,0.505-0.396,0.883-0.882,0.883C112.566,40.699,112.17,40.303,112.17,39.816z M112.17,45.398c0-0.504,0.396-0.9,0.9-0.9
		c0.486,0,0.882,0.414,0.882,0.9c0,0.504-0.396,0.882-0.882,0.882C112.566,46.28,112.17,45.885,112.17,45.398z"/>
	<path fill="#FFFFFF" d="M132.765,45.561h-6.32l-1.404,3.295h-1.584l5.474-12.604h1.35l5.474,12.604h-1.585L132.765,45.561z
		 M132.207,44.246l-1.999-4.682c-0.27-0.647-0.576-1.53-0.594-1.53h-0.018c-0.018,0-0.324,0.883-0.594,1.53l-1.999,4.682H132.207z"
		/>
	<path fill="#FFFFFF" d="M147.325,37.638v4.268h5.384v1.332h-5.384v5.618h-1.477V36.252h8.229v1.386H147.325z"/>
	<path fill="#FFFFFF" d="M164.511,45.561h-6.32l-1.404,3.295h-1.584l5.474-12.604h1.35l5.474,12.604h-1.584L164.511,45.561z
		 M163.953,44.246l-1.999-4.682c-0.27-0.647-0.576-1.53-0.594-1.53h-0.018c-0.018,0-0.324,0.883-0.594,1.53l-1.999,4.682H163.953z"
		/>
	<path fill="#FFFFFF" d="M179.26,47.469v1.387h-8.229V36.252h1.477v11.217H179.26z"/>
	<path fill="#FFFFFF" d="M189.709,39.745c-0.27-1.531-1.584-2.449-3.151-2.449c-1.656,0-2.827,0.792-2.827,2.053
		c0,1.387,1.747,1.818,3.421,2.322c1.765,0.522,4.159,1.314,4.159,3.764c0,2.125-1.837,3.673-4.609,3.673
		c-2.701,0-4.411-1.584-4.807-3.709l1.422-0.378c0.18,1.458,1.386,2.755,3.439,2.755c1.873,0,3.007-0.99,3.007-2.305
		c0-1.837-2.179-2.215-3.961-2.773c-1.44-0.45-3.565-1.098-3.565-3.276c0-1.963,1.855-3.421,4.376-3.421
		c2.287,0,4.087,1.35,4.501,3.366L189.709,39.745z"/>
	<path fill="#FFFFFF" d="M203.965,47.469v1.387h-8.517V36.252h8.409v1.386h-6.932v3.89h5.563v1.314h-5.563v4.627H203.965z"/>
	<path fill="#FFFFFF" d="M221.641,39.745c-0.27-1.531-1.585-2.449-3.151-2.449c-1.656,0-2.827,0.792-2.827,2.053
		c0,1.387,1.747,1.818,3.421,2.322c1.765,0.522,4.159,1.314,4.159,3.764c0,2.125-1.836,3.673-4.609,3.673
		c-2.701,0-4.411-1.584-4.807-3.709l1.422-0.378c0.18,1.458,1.386,2.755,3.439,2.755c1.873,0,3.007-0.99,3.007-2.305
		c0-1.837-2.179-2.215-3.961-2.773c-1.44-0.45-3.565-1.098-3.565-3.276c0-1.963,1.855-3.421,4.376-3.421
		c2.287,0,4.087,1.35,4.501,3.366L221.641,39.745z"/>
	<path fill="#FFFFFF" d="M237.212,36.252v12.604h-1.458v-5.834h-6.896v5.834h-1.477V36.252h1.477v5.384h6.896v-5.384H237.212z"/>
	<path fill="#FFFFFF" d="M247.922,36c3.619,0,6.554,2.755,6.554,6.554c0,3.799-2.935,6.554-6.554,6.554
		c-3.619,0-6.536-2.755-6.536-6.554C241.386,38.755,244.303,36,247.922,36z M247.922,47.667c2.845,0,5.023-2.089,5.023-5.113
		c0-3.061-2.179-5.113-5.023-5.113c-2.863,0-5.023,2.053-5.023,5.113C242.898,45.578,245.059,47.667,247.922,47.667z"/>
	<path fill="#FFFFFF" d="M273.586,36.252l-4.268,12.604h-1.296l-2.088-6.626c-0.558-1.782-0.684-2.467-0.702-2.467h-0.018
		c-0.018,0-0.126,0.702-0.684,2.467l-2.089,6.626h-1.296l-4.267-12.604h1.53l2.845,8.517c0.342,1.08,0.522,1.836,0.54,1.836h0.018
		c0.018,0,0.162-0.756,0.541-1.836l2.232-6.824h1.296l2.233,6.824c0.378,1.08,0.522,1.836,0.54,1.836h0.018
		c0.018,0,0.198-0.756,0.54-1.836l2.845-8.517H273.586z"/>
	<path fill="#FFFFFF" d="M289.477,36c3.619,0,6.554,2.755,6.554,6.554c0,3.799-2.935,6.554-6.554,6.554
		c-3.619,0-6.536-2.755-6.536-6.554C282.941,38.755,285.858,36,289.477,36z M289.477,47.667c2.845,0,5.023-2.089,5.023-5.113
		c0-3.061-2.179-5.113-5.023-5.113c-2.863,0-5.023,2.053-5.023,5.113C284.453,45.578,286.614,47.667,289.477,47.667z"/>
	<path fill="#FFFFFF" d="M307.524,48.855l-2.846-4.718c-0.197,0.019-0.432,0.019-0.648,0.019h-2.357v4.699h-1.477V36.252h3.834
		c2.953,0,4.719,1.548,4.719,3.979c0,1.801-0.955,3.079-2.629,3.619l3.06,5.006H307.524z M304.175,42.842
		c2.018,0,3.061-1.099,3.061-2.611c0-1.603-1.133-2.593-3.061-2.593h-2.502v5.204H304.175z"/>
	<path fill="#FFFFFF" d="M323.634,36.252c2.916,0,4.68,1.513,4.68,4.015c0,2.503-1.764,4.033-4.68,4.033h-2.394v4.556h-1.477V36.252
		H323.634z M323.597,42.914c2.07,0,3.205-1.009,3.205-2.647c0-1.692-1.225-2.629-3.205-2.629h-2.357v5.276H323.597z"/>
	<path fill="#FFFFFF" d="M339.335,48.855l-2.844-4.718c-0.199,0.019-0.434,0.019-0.648,0.019h-2.359v4.699h-1.477V36.252h3.836
		c2.953,0,4.717,1.548,4.717,3.979c0,1.801-0.955,3.079-2.629,3.619l3.061,5.006H339.335z M335.985,42.842
		c2.018,0,3.062-1.099,3.062-2.611c0-1.603-1.135-2.593-3.062-2.593h-2.502v5.204H335.985z"/>
	<path fill="#FFFFFF" d="M353.522,47.469v1.387h-8.516V36.252h8.408v1.386h-6.932v3.89h5.562v1.314h-5.562v4.627H353.522z"/>
	<path fill="#FFFFFF" d="M366.665,36.252v1.386h-4.232v11.218h-1.457V37.638h-4.213v-1.386H366.665z"/>
	<path fill="#FFFFFF" d="M378.751,47.469v1.387h-8.518V36.252h8.408v1.386h-6.932v3.89h5.564v1.314h-5.564v4.627H378.751z"/>
	<path fill="#FFFFFF" d="M393.021,36.252v12.604h-1.387l-5.6-7.544c-1.08-1.495-1.873-2.647-1.891-2.647h-0.018
		c-0.02,0,0.035,1.566,0.035,3.583v6.608h-1.477V36.252h1.387l5.6,7.526c0.955,1.278,1.873,2.593,1.891,2.593h0.017
		c0.018,0-0.035-1.692-0.035-3.493v-6.626H393.021z"/>
	<path fill="#FFFFFF" d="M407.952,39.69c-0.863-1.386-2.467-2.25-4.23-2.25c-2.881,0-5.023,2.07-5.023,5.113
		s2.195,5.096,5.023,5.096c1.926,0,3.619-1.026,4.447-2.611l1.459,0.396c-1.045,2.232-3.277,3.673-5.906,3.673
		c-3.619,0-6.537-2.755-6.537-6.554c0-3.799,2.918-6.554,6.537-6.554c2.467,0,4.592,1.296,5.725,3.312L407.952,39.69z"/>
	<path fill="#FFFFFF" d="M421.952,47.469v1.387h-8.518V36.252h8.408v1.386h-6.932v3.89h5.564v1.314h-5.564v4.627H421.952z"/>
	<path fill="#FFFFFF" d="M12.262,72.252L6.878,84.855H5.383L0,72.252h1.603l3.799,9.021c0.36,0.9,0.702,1.927,0.72,1.927H6.14
		c0.018,0,0.378-1.026,0.72-1.927l3.817-9.021H12.262z"/>
	<path fill="#FFFFFF" d="M24.319,83.469v1.387h-8.517V72.252h8.409v1.386h-6.932v3.89h5.563v1.314h-5.563v4.627H24.319z"/>
	<path fill="#FFFFFF" d="M35.581,84.855l-2.845-4.718c-0.198,0.018-0.432,0.018-0.648,0.018h-2.359v4.699h-1.476V72.252h3.835
		c2.953,0,4.717,1.548,4.717,3.979c0,1.801-0.954,3.079-2.629,3.619l3.061,5.006H35.581z M32.232,78.842
		c2.017,0,3.061-1.099,3.061-2.611c0-1.603-1.134-2.593-3.061-2.593h-2.503v5.204H32.232z"/>
	<path fill="#FFFFFF" d="M45.988,72.252c2.16,0,3.637,1.278,3.637,3.097c0,1.278-1.08,2.377-2.088,2.575v0.018
		c1.224,0.162,2.899,1.404,2.899,3.205c0,2.179-1.513,3.709-4.159,3.709h-5.024V72.252H45.988z M45.7,77.491
		c1.458,0,2.448-0.918,2.448-1.998c0-1.188-0.99-1.963-2.448-1.963h-2.971v3.961H45.7z M46.186,83.577
		c1.548,0,2.719-0.937,2.719-2.449c0-1.44-1.278-2.467-2.809-2.467h-3.367v4.916H46.186z"/>
	<path fill="#FFFFFF" d="M60.404,75.816c0-0.504,0.397-0.899,0.9-0.899c0.486,0,0.882,0.414,0.882,0.899
		c0,0.505-0.396,0.883-0.882,0.883C60.8,76.699,60.404,76.303,60.404,75.816z M60.404,81.398c0-0.504,0.397-0.9,0.9-0.9
		c0.486,0,0.882,0.414,0.882,0.9c0,0.504-0.396,0.882-0.882,0.882C60.8,82.28,60.404,81.885,60.404,81.398z"/>
	<path fill="#FFFFFF" d="M76.912,72.252c2.917,0,4.681,1.513,4.681,4.015c0,2.503-1.765,4.033-4.681,4.033h-2.395v4.556H73.04
		V72.252H76.912z M76.876,78.914c2.07,0,3.205-1.009,3.205-2.647c0-1.692-1.225-2.629-3.205-2.629h-2.359v5.276H76.876z"/>
	<path fill="#FFFFFF" d="M92.613,84.855l-2.845-4.718c-0.198,0.018-0.432,0.018-0.648,0.018h-2.359v4.699h-1.477V72.252h3.836
		c2.953,0,4.717,1.548,4.717,3.979c0,1.801-0.954,3.079-2.629,3.619l3.061,5.006H92.613z M89.264,78.842
		c2.017,0,3.061-1.099,3.061-2.611c0-1.603-1.134-2.593-3.061-2.593h-2.503v5.204H89.264z"/>
	<path fill="#FFFFFF" d="M106.801,83.469v1.387h-8.517V72.252h8.409v1.386h-6.932v3.89h5.564v1.314h-5.564v4.627H106.801z"/>
	<path fill="#FFFFFF" d="M119.943,72.252v1.386h-4.231v11.218h-1.459V73.638h-4.213v-1.386H119.943z"/>
	<path fill="#FFFFFF" d="M132.027,83.469v1.387h-8.517V72.252h8.409v1.386h-6.932v3.89h5.564v1.314h-5.564v4.627H132.027z"/>
	<path fill="#FFFFFF" d="M146.297,72.252v12.604h-1.387l-5.6-7.544c-1.08-1.495-1.873-2.647-1.891-2.647h-0.018
		c-0.018,0,0.036,1.566,0.036,3.583v6.608h-1.477V72.252h1.387l5.6,7.526c0.954,1.278,1.873,2.593,1.891,2.593h0.018
		c0.018,0-0.036-1.692-0.036-3.493v-6.626H146.297z"/>
	<path fill="#FFFFFF" d="M156.573,72.252c3.602,0,6.518,2.593,6.518,6.374c0,3.727-2.881,6.229-6.41,6.229h-5.42V72.252H156.573z
		 M156.681,83.469c2.629,0,4.897-1.836,4.897-4.843c0-3.062-2.269-4.988-5.006-4.988h-3.835v9.831H156.681z"/>
	<path fill="#FFFFFF" d="M182.278,72.252v1.386h-4.232v11.218h-1.458V73.638h-4.213v-1.386H182.278z"/>
	<path fill="#FFFFFF" d="M191.028,72c3.619,0,6.554,2.755,6.554,6.554c0,3.799-2.935,6.554-6.554,6.554
		c-3.619,0-6.536-2.755-6.536-6.554C184.493,74.755,187.409,72,191.028,72z M191.028,83.667c2.845,0,5.023-2.089,5.023-5.113
		c0-3.061-2.179-5.113-5.023-5.113c-2.863,0-5.023,2.053-5.023,5.113C186.005,81.578,188.166,83.667,191.028,83.667z"/>
	<path fill="#FFFFFF" d="M212.862,72.252c2.161,0,3.637,1.278,3.637,3.097c0,1.278-1.08,2.377-2.088,2.575v0.018
		c1.224,0.162,2.899,1.404,2.899,3.205c0,2.179-1.513,3.709-4.16,3.709h-5.023V72.252H212.862z M212.574,77.491
		c1.459,0,2.449-0.918,2.449-1.998c0-1.188-0.991-1.963-2.449-1.963h-2.971v3.961H212.574z M213.06,83.577
		c1.548,0,2.719-0.937,2.719-2.449c0-1.44-1.278-2.467-2.809-2.467h-3.367v4.916H213.06z"/>
	<path fill="#FFFFFF" d="M229.992,83.469v1.387h-8.517V72.252h8.409v1.386h-6.932v3.89h5.563v1.314h-5.563v4.627H229.992z"/>
	<path fill="#FFFFFF" d="M247.667,75.745c-0.27-1.531-1.584-2.449-3.151-2.449c-1.656,0-2.827,0.792-2.827,2.053
		c0,1.387,1.747,1.818,3.421,2.322c1.765,0.522,4.159,1.314,4.159,3.764c0,2.125-1.837,3.673-4.609,3.673
		c-2.701,0-4.411-1.584-4.807-3.709l1.422-0.378c0.18,1.458,1.386,2.755,3.439,2.755c1.872,0,3.007-0.99,3.007-2.305
		c0-1.837-2.179-2.215-3.961-2.773c-1.44-0.45-3.565-1.098-3.565-3.276c0-1.963,1.855-3.421,4.375-3.421
		c2.287,0,4.087,1.35,4.501,3.366L247.667,75.745z"/>
	<path fill="#FFFFFF" d="M259.018,72c3.619,0,6.554,2.755,6.554,6.554c0,3.799-2.935,6.554-6.554,6.554
		c-3.619,0-6.536-2.755-6.536-6.554C252.482,74.755,255.398,72,259.018,72z M259.018,83.667c2.845,0,5.023-2.089,5.023-5.113
		c0-3.061-2.179-5.113-5.023-5.113c-2.863,0-5.023,2.053-5.023,5.113C253.994,81.578,256.155,83.667,259.018,83.667z"/>
	<path fill="#FFFFFF" d="M281.386,72.252v12.604h-1.459v-5.672c0-1.944,0.09-4.447,0.072-4.447h-0.018
		c-0.018,0-0.648,1.152-1.098,1.909l-2.935,5.113h-0.774l-2.935-5.113c-0.45-0.757-1.081-1.909-1.098-1.909h-0.018
		c-0.018,0,0.072,2.503,0.072,4.447v5.672h-1.459V72.252h1.387l3.133,5.329c1.081,1.837,1.278,2.341,1.296,2.341h0.018
		c0.018,0,0.216-0.504,1.296-2.341L280,72.252H281.386z"/>
	<path fill="#FFFFFF" d="M294.878,83.469v1.387h-8.517V72.252h8.409v1.386h-6.932v3.89h5.564v1.314h-5.564v4.627H294.878z"/>
	<path fill="#FFFFFF" d="M304.155,72c3.619,0,6.555,2.755,6.555,6.554c0,3.799-2.936,6.554-6.555,6.554s-6.535-2.755-6.535-6.554
		C297.62,74.755,300.536,72,304.155,72z M304.155,83.667c2.846,0,5.023-2.089,5.023-5.113c0-3.061-2.178-5.113-5.023-5.113
		c-2.863,0-5.023,2.053-5.023,5.113C299.132,81.578,301.292,83.667,304.155,83.667z"/>
	<path fill="#FFFFFF" d="M325.21,72.252v12.604h-1.387l-5.6-7.544c-1.08-1.495-1.873-2.647-1.891-2.647h-0.018
		c-0.02,0,0.035,1.566,0.035,3.583v6.608h-1.477V72.252h1.387l5.6,7.526c0.955,1.278,1.873,2.593,1.891,2.593h0.018
		c0.018,0-0.035-1.692-0.035-3.493v-6.626H325.21z"/>
	<path fill="#FFFFFF" d="M338.69,83.469v1.387h-8.516V72.252h8.408v1.386h-6.932v3.89h5.562v1.314h-5.562v4.627H338.69z"/>
	<path fill="#FFFFFF" d="M355.249,72c3.619,0,6.555,2.755,6.555,6.554c0,3.799-2.936,6.554-6.555,6.554
		c-3.619,0-6.535-2.755-6.535-6.554C348.714,74.755,351.63,72,355.249,72z M355.249,83.667c2.846,0,5.023-2.089,5.023-5.113
		c0-3.061-2.178-5.113-5.023-5.113c-2.863,0-5.023,2.053-5.023,5.113C350.226,81.578,352.386,83.667,355.249,83.667z"/>
	<path fill="#FFFFFF" d="M376.304,72.252v12.604h-1.387l-5.6-7.544c-1.08-1.495-1.871-2.647-1.891-2.647h-0.018
		c-0.018,0,0.037,1.566,0.037,3.583v6.608h-1.477V72.252h1.385l5.6,7.526c0.955,1.278,1.873,2.593,1.891,2.593h0.02
		c0.018,0-0.037-1.692-0.037-3.493v-6.626H376.304z"/>
	<path fill="#FFFFFF" d="M389.786,83.469v1.387h-8.518V72.252h8.408v1.386h-6.932v3.89h5.564v1.314h-5.564v4.627H389.786z"/>
	<path fill="#FFFFFF" d="M400.69,84.855V72.252h1.477v12.604H400.69z"/>
	<path fill="#FFFFFF" d="M413.995,75.745c-0.27-1.531-1.584-2.449-3.15-2.449c-1.658,0-2.828,0.792-2.828,2.053
		c0,1.387,1.746,1.818,3.422,2.322c1.764,0.522,4.158,1.314,4.158,3.764c0,2.125-1.836,3.673-4.609,3.673
		c-2.701,0-4.41-1.584-4.807-3.709l1.422-0.378c0.18,1.458,1.387,2.755,3.439,2.755c1.873,0,3.006-0.99,3.006-2.305
		c0-1.837-2.178-2.215-3.961-2.773c-1.439-0.45-3.564-1.098-3.564-3.276c0-1.963,1.855-3.421,4.375-3.421
		c2.287,0,4.088,1.35,4.502,3.366L413.995,75.745z"/>
	<path fill="#FFFFFF" d="M436.388,72.252v12.604h-1.387l-5.6-7.544c-1.08-1.495-1.873-2.647-1.891-2.647h-0.018
		c-0.02,0,0.035,1.566,0.035,3.583v6.608h-1.477V72.252h1.387l5.6,7.526c0.955,1.278,1.873,2.593,1.891,2.593h0.018
		c0.018,0-0.035-1.692-0.035-3.493v-6.626H436.388z"/>
	<path fill="#FFFFFF" d="M447.089,72c3.619,0,6.553,2.755,6.553,6.554c0,3.799-2.934,6.554-6.553,6.554s-6.537-2.755-6.537-6.554
		C440.552,74.755,443.47,72,447.089,72z M447.089,83.667c2.844,0,5.023-2.089,5.023-5.113c0-3.061-2.18-5.113-5.023-5.113
		c-2.863,0-5.023,2.053-5.023,5.113C442.065,81.578,444.226,83.667,447.089,83.667z"/>
	<path fill="#FFFFFF" d="M465.751,72.252v1.386h-4.232v11.218h-1.457V73.638h-4.213v-1.386H465.751z"/>
</g>
</svg>
