<?xml version="1.0" encoding="utf-8"?>
<!-- Generator: Adobe Illustrator 17.0.0, SVG Export Plug-In . SVG Version: 6.00 Build 0)  -->
<!DOCTYPE svg PUBLIC "-//W3C//DTD SVG 1.1//EN" "http://www.w3.org/Graphics/SVG/1.1/DTD/svg11.dtd">
<svg version="1.1" id="Layer_2" xmlns="http://www.w3.org/2000/svg" xmlns:xlink="http://www.w3.org/1999/xlink" x="0px" y="0px"
	 width="100%" height="100%" viewBox="0 0 500 124" enable-background="new 0 0 500 124" xml:space="preserve">
<g>
	<rect x="180.236" y="0.068" fill="none" width="170.659" height="26.455"/>
	<g enable-background="new    ">
		<path fill="#FFFFFF" d="M188.638,7.936h4.947v7.076c-0.77,0.246-1.553,0.432-2.349,0.558c-0.796,0.126-1.719,0.189-2.767,0.189
			c-2.203,0-3.918-0.655-5.146-1.966s-1.841-3.147-1.841-5.51c0-1.513,0.304-2.838,0.911-3.977c0.607-1.138,1.481-2.007,2.623-2.607
			c1.141-0.601,2.479-0.9,4.011-0.9c1.553,0,2.999,0.285,4.34,0.855l-0.657,1.493c-1.314-0.558-2.578-0.836-3.792-0.836
			c-1.772,0-3.155,0.527-4.151,1.582c-0.995,1.056-1.493,2.519-1.493,4.39c0,1.965,0.479,3.454,1.438,4.47
			c0.959,1.015,2.367,1.522,4.225,1.522c1.009,0,1.994-0.116,2.957-0.349V9.448h-3.255V7.936z"/>
		<path fill="#FFFFFF" d="M208.223,15.56l-1.812-4.628h-5.833l-1.792,4.628h-1.712l5.753-14.612h1.424l5.723,14.612H208.223z
			 M205.884,9.408l-1.692-4.509c-0.219-0.57-0.444-1.271-0.677-2.101c-0.146,0.638-0.355,1.338-0.627,2.101l-1.712,4.509H205.884z"
			/>
		<path fill="#FFFFFF" d="M220.413,15.56L215.476,2.66h-0.08c0.093,1.021,0.14,2.236,0.14,3.643v9.257h-1.563V1.008h2.548
			l4.608,12.004h0.08l4.648-12.004h2.527V15.56h-1.691V6.184c0-1.075,0.047-2.243,0.139-3.504h-0.078l-4.977,12.88H220.413z"/>
		<path fill="#FFFFFF" d="M242.488,15.56h-8.112V1.008h8.112v1.503h-6.421v4.688h6.032v1.493h-6.032v5.355h6.421V15.56z"/>
		<path fill="#FFFFFF" d="M267.635,8.264c0,2.329-0.589,4.16-1.767,5.494s-2.815,2.001-4.912,2.001
			c-2.144,0-3.798-0.655-4.962-1.966c-1.165-1.311-1.747-3.16-1.747-5.549c0-2.369,0.584-4.206,1.752-5.51s2.827-1.956,4.977-1.956
			c2.091,0,3.723,0.664,4.897,1.991S267.635,5.928,267.635,8.264z M256.039,8.264c0,1.971,0.419,3.466,1.259,4.484
			s2.059,1.527,3.658,1.527c1.612,0,2.83-0.508,3.652-1.522c0.823-1.016,1.234-2.512,1.234-4.489c0-1.957-0.409-3.442-1.229-4.454
			c-0.819-1.012-2.032-1.519-3.638-1.519c-1.612,0-2.838,0.51-3.678,1.528S256.039,6.319,256.039,8.264z"/>
		<path fill="#FFFFFF" d="M281.188,1.008h1.822l-5.246,14.552h-1.672l-5.216-14.552h1.792l3.344,9.416
			c0.385,1.081,0.69,2.133,0.916,3.155c0.239-1.075,0.551-2.146,0.936-3.215L281.188,1.008z"/>
		<path fill="#FFFFFF" d="M295.121,15.56h-8.112V1.008h8.112v1.503H288.7v4.688h6.032v1.493H288.7v5.355h6.421V15.56z"/>
		<path fill="#FFFFFF" d="M302.035,9.508v6.052h-1.691V1.008h3.991c1.785,0,3.104,0.342,3.956,1.024
			c0.853,0.684,1.279,1.713,1.279,3.086c0,1.925-0.976,3.225-2.926,3.902l3.951,6.539h-2.001l-3.523-6.052H302.035z M302.035,8.055
			h2.319c1.194,0,2.07-0.237,2.628-0.712s0.836-1.186,0.836-2.135c0-0.962-0.283-1.655-0.851-2.08s-1.479-0.638-2.732-0.638h-2.2
			V8.055z"/>
	</g>
	<g>
		<path fill="#FFFFFF" d="M215.241,59.317h-4.816v6.892h4.816c2.492,0,3.488-1.868,3.488-3.446
			C218.729,61.185,217.733,59.317,215.241,59.317z"/>
		<path fill="#FFFFFF" d="M474.284,123.832l-22.121-36.056l21.949-36.055h-41.774V30.088H67.83V51.72H26.056l21.949,36.056
			l-22.289,36.055l56.06,0.101l-13.481-22.396l363.996,0.001l-13.846,22.295C418.445,123.832,474.284,123.832,474.284,123.832z
			 M115.436,59.317h-8.844v22.545h-6.975V59.317h-8.719v-6.518h24.538V59.317z M147.156,81.862h-6.976V70.569h-10.878v11.293h-6.975
			V52.798h6.975V64.05h10.878V52.798h6.976V81.862z M178.616,81.862h-21.382V52.798h21.133v6.518h-14.158v4.775h11.086v6.103
			h-11.086v5.149h14.408L178.616,81.862L178.616,81.862z M219.394,81.862l-5.398-9.466h-3.571v9.466h-6.975V52.798h10.837
			c7.307,0,11.708,3.986,11.708,9.965c0,3.903-1.868,6.809-5.232,8.387l6.435,10.712H219.394z M256.449,81.862h-21.382V52.798H256.2
			v6.518h-14.158v4.775h11.086v6.103h-11.086v5.149h14.407V81.862z M275.668,82.443c-6.061,0-10.38-3.363-12.289-8.802l6.684-1.785
			c0.747,2.2,2.823,4.401,5.896,4.401c2.491,0,3.653-1.163,3.653-2.574c0-2.325-3.404-2.906-7.557-4.484
			c-3.487-1.329-7.515-3.238-7.515-8.345c0-4.526,4.567-8.636,10.878-8.636c5.563,0,9.964,3.405,11.334,7.972l-6.726,1.827
			c-0.706-2.574-2.948-3.778-5.024-3.778s-3.28,1.038-3.28,2.201c0,1.91,2.906,2.616,6.435,3.902
			c4.318,1.578,8.843,4.028,8.843,9.01C287.003,78.665,282.436,82.443,275.668,82.443z M320.284,68.949
			c0,8.719-5.148,13.494-12.829,13.494c-7.722,0-12.829-4.775-12.829-13.494V52.798h6.975v15.985c0,4.982,2.034,7.142,5.854,7.142
			c3.819,0,5.854-2.159,5.854-7.142V52.798h6.975V68.949z M350.68,81.862h-20.718V52.798h6.976v22.545h13.743v6.519H350.68z
			 M376.296,59.317h-8.843v22.545h-6.976V59.317h-8.719v-6.518h24.538V59.317z M393.717,82.443c-6.062,0-10.38-3.363-12.29-8.802
			l6.685-1.785c0.747,2.2,2.823,4.401,5.895,4.401c2.491,0,3.653-1.163,3.653-2.574c0-2.325-3.404-2.906-7.556-4.484
			c-3.488-1.329-7.515-3.238-7.515-8.345c0-4.526,4.567-8.636,10.878-8.636c5.564,0,9.965,3.405,11.335,7.972l-6.726,1.827
			c-0.706-2.574-2.948-3.778-5.024-3.778s-3.28,1.038-3.28,2.201c0,1.91,2.906,2.616,6.435,3.902
			c4.318,1.578,8.844,4.028,8.844,9.01C405.052,78.665,400.485,82.443,393.717,82.443z"/>
	</g>
</g>
</svg>
