<?xml version="1.0" encoding="utf-8"?>
<!-- Generator: Adobe Illustrator 17.0.0, SVG Export Plug-In . SVG Version: 6.00 Build 0)  -->
<!DOCTYPE svg PUBLIC "-//W3C//DTD SVG 1.1//EN" "http://www.w3.org/Graphics/SVG/1.1/DTD/svg11.dtd">
<svg version="1.1" id="Layer_2" xmlns="http://www.w3.org/2000/svg" xmlns:xlink="http://www.w3.org/1999/xlink" x="0px" y="0px"
	 width="100%" height="100%" viewBox="0 0 500 124" enable-background="new 0 0 500 124" xml:space="preserve">
<g>
	<g>
		<path fill="#FFFFFF" d="M126.995,14.89l-4.973-12.995h-0.08c0.094,1.029,0.14,2.253,0.14,3.67v9.325h-1.574V0.23h2.567
			l4.643,12.092h0.08l4.682-12.092h2.547V14.89h-1.705V5.444c0-1.083,0.047-2.259,0.14-3.529h-0.08l-5.013,12.975H126.995z"/>
		<path fill="#FFFFFF" d="M151.136,14.89l-1.826-4.662h-5.875l-1.805,4.662h-1.725l5.795-14.719h1.434l5.766,14.719H151.136z
			 M148.78,8.693l-1.705-4.542c-0.221-0.575-0.448-1.28-0.682-2.116c-0.147,0.642-0.358,1.347-0.631,2.116l-1.725,4.542H148.78z"/>
		<path fill="#FFFFFF" d="M166.064,10.99c0,1.29-0.468,2.296-1.404,3.018c-0.936,0.722-2.206,1.083-3.81,1.083
			c-1.738,0-3.075-0.224-4.011-0.671v-1.644c0.602,0.254,1.257,0.455,1.965,0.602c0.709,0.147,1.41,0.221,2.105,0.221
			c1.136,0,1.992-0.216,2.567-0.647c0.575-0.431,0.863-1.031,0.863-1.8c0-0.508-0.103-0.924-0.306-1.249
			c-0.204-0.324-0.545-0.623-1.023-0.897c-0.478-0.274-1.205-0.585-2.181-0.933c-1.364-0.488-2.338-1.066-2.922-1.734
			c-0.585-0.668-0.878-1.541-0.878-2.617c0-1.129,0.425-2.028,1.273-2.697c0.85-0.668,1.973-1.003,3.369-1.003
			c1.457,0,2.798,0.267,4.021,0.802l-0.532,1.484c-1.209-0.508-2.386-0.762-3.529-0.762c-0.902,0-1.607,0.194-2.115,0.582
			c-0.508,0.388-0.762,0.926-0.762,1.614c0,0.508,0.094,0.924,0.281,1.249c0.187,0.325,0.503,0.622,0.948,0.892
			c0.444,0.271,1.124,0.57,2.04,0.898c1.537,0.548,2.595,1.136,3.174,1.765C165.774,9.171,166.064,9.987,166.064,10.99z"/>
		<path fill="#FFFFFF" d="M184.66,7.54c0,1.878-0.377,3.439-1.133,4.682c-0.755,1.243-1.821,2.086-3.198,2.527l3.489,3.63h-2.476
			l-2.858-3.309l-0.551,0.02c-2.16,0-3.826-0.66-4.999-1.98c-1.174-1.32-1.76-3.183-1.76-5.59c0-2.386,0.588-4.237,1.765-5.55
			c1.176-1.314,2.848-1.97,5.013-1.97c2.106,0,3.751,0.668,4.933,2.005C184.069,3.342,184.66,5.187,184.66,7.54z M172.978,7.54
			c0,1.985,0.423,3.491,1.269,4.517c0.845,1.026,2.074,1.539,3.685,1.539c1.624,0,2.851-0.512,3.679-1.534
			c0.829-1.023,1.243-2.53,1.243-4.522c0-1.972-0.413-3.468-1.238-4.487c-0.826-1.019-2.048-1.529-3.665-1.529
			c-1.624,0-2.86,0.513-3.705,1.539C173.402,4.09,172.978,5.582,172.978,7.54z"/>
		<path fill="#FFFFFF" d="M201.874,0.23v9.485c0,1.671-0.505,2.985-1.514,3.941c-1.01,0.956-2.397,1.433-4.161,1.433
			c-1.765,0-3.131-0.481-4.096-1.444c-0.966-0.963-1.448-2.286-1.448-3.971V0.23h1.704v9.566c0,1.223,0.334,2.163,1.003,2.818
			c0.668,0.655,1.652,0.983,2.949,0.983c1.236,0,2.189-0.329,2.857-0.988c0.668-0.658,1.003-1.603,1.003-2.833V0.23H201.874z"/>
		<path fill="#FFFFFF" d="M216.801,14.89h-8.172V0.23h8.172v1.514h-6.468v4.722h6.076v1.504h-6.076v5.394h6.468V14.89z"/>
		<path fill="#FFFFFF" d="M224.629,8.793v6.096h-1.705V0.23h4.021c1.798,0,3.127,0.345,3.986,1.033
			c0.859,0.688,1.289,1.725,1.289,3.108c0,1.939-0.983,3.249-2.948,3.931l3.981,6.587h-2.016l-3.55-6.096H224.629z M224.629,7.329
			h2.336c1.203,0,2.086-0.239,2.647-0.717c0.561-0.478,0.842-1.195,0.842-2.151c0-0.969-0.286-1.667-0.857-2.095
			c-0.572-0.428-1.489-0.642-2.753-0.642h-2.216V7.329z"/>
		<path fill="#FFFFFF" d="M247.708,14.89l-1.824-4.662h-5.877l-1.805,4.662h-1.725l5.796-14.719h1.433l5.765,14.719H247.708z
			 M245.352,8.693l-1.705-4.542c-0.221-0.575-0.448-1.28-0.682-2.116c-0.147,0.642-0.357,1.347-0.632,2.116l-1.725,4.542H245.352z"
			/>
		<path fill="#FFFFFF" d="M266.065,7.42c0,2.42-0.657,4.27-1.971,5.55c-1.313,1.28-3.203,1.92-5.67,1.92h-4.061V0.23h4.492
			c2.279,0,4.051,0.632,5.314,1.895C265.433,3.389,266.065,5.154,266.065,7.42z M264.26,7.48c0-1.912-0.48-3.353-1.439-4.322
			c-0.96-0.969-2.384-1.453-4.277-1.453h-2.476v11.711h2.075c2.032,0,3.56-0.5,4.583-1.499C263.748,10.917,264.26,9.439,264.26,7.48
			z"/>
		<path fill="#FFFFFF" d="M280.38,14.89h-8.172V0.23h8.172v1.514h-6.468v4.722h6.076v1.504h-6.076v5.394h6.468V14.89z"/>
		<path fill="#FFFFFF" d="M299.225,14.89h-1.705V1.745h-4.643V0.23h10.989v1.514h-4.642V14.89z"/>
		<path fill="#FFFFFF" d="M321.672,7.54c0,2.346-0.593,4.191-1.78,5.535c-1.187,1.344-2.836,2.015-4.948,2.015
			c-2.159,0-3.825-0.66-4.999-1.98c-1.174-1.32-1.76-3.183-1.76-5.59c0-2.386,0.588-4.237,1.765-5.55
			c1.177-1.314,2.848-1.97,5.013-1.97c2.106,0,3.75,0.668,4.933,2.005C321.08,3.342,321.672,5.187,321.672,7.54z M309.991,7.54
			c0,1.985,0.423,3.491,1.268,4.517c0.846,1.026,2.074,1.539,3.685,1.539c1.624,0,2.851-0.512,3.679-1.534
			c0.829-1.023,1.243-2.53,1.243-4.522c0-1.972-0.413-3.468-1.237-4.487c-0.826-1.019-2.048-1.529-3.665-1.529
			c-1.624,0-2.86,0.513-3.706,1.539C310.413,4.09,309.991,5.582,309.991,7.54z"/>
		<path fill="#FFFFFF" d="M337.111,4.502c0,1.484-0.507,2.626-1.519,3.424c-1.013,0.799-2.461,1.198-4.346,1.198h-1.725v5.765
			h-1.705V0.23h3.8C335.279,0.23,337.111,1.654,337.111,4.502z M329.521,7.661h1.534c1.511,0,2.603-0.244,3.279-0.732
			c0.674-0.488,1.012-1.27,1.012-2.346c0-0.969-0.317-1.691-0.953-2.166c-0.634-0.475-1.624-0.712-2.968-0.712h-1.904V7.661z"/>
		<path fill="#FFFFFF" d="M356.417,14.89h-1.624V4.442c0-0.869,0.027-1.691,0.08-2.467c-0.141,0.14-0.298,0.287-0.472,0.441
			c-0.174,0.154-0.969,0.806-2.386,1.956l-0.882-1.143l3.88-2.998h1.404V14.89z"/>
		<path fill="#FFFFFF" d="M374.582,7.54c0,2.533-0.4,4.425-1.198,5.675c-0.798,1.25-2.02,1.875-3.665,1.875
			c-1.578,0-2.777-0.64-3.6-1.92c-0.821-1.28-1.233-3.157-1.233-5.63c0-2.553,0.398-4.449,1.193-5.686
			C366.876,0.618,368.089,0,369.72,0c1.591,0,2.799,0.645,3.625,1.935C374.169,3.225,374.582,5.094,374.582,7.54z M366.571,7.54
			c0,2.132,0.251,3.685,0.752,4.657c0.502,0.973,1.3,1.459,2.397,1.459c1.11,0,1.913-0.493,2.412-1.479
			c0.498-0.986,0.747-2.532,0.747-4.637c0-2.106-0.25-3.648-0.747-4.628c-0.498-0.979-1.302-1.469-2.412-1.469
			c-1.096,0-1.895,0.483-2.397,1.449C366.822,3.859,366.571,5.408,366.571,7.54z"/>
	</g>
	<g>
		<path fill="#FFFFFF" d="M306.026,56.891c-4.726,0-7.863,3.346-7.863,8.281c0,4.894,3.137,8.281,7.863,8.281
			c4.768,0,7.905-3.388,7.905-8.281C313.931,60.237,310.794,56.891,306.026,56.891z"/>
		<path fill="#FFFFFF" d="M341.569,57.1h-4.852v6.943h4.852c2.51,0,3.513-1.882,3.513-3.471
			C345.083,58.982,344.079,57.1,341.569,57.1z"/>
		<path fill="#FFFFFF" d="M474.156,123.764l-22.284-36.321l22.111-36.321h-42.082V29.329H68.267V51.12H26.186l22.111,36.322
			l-22.453,36.32l56.473,0.103l-13.58-22.561h363.118l-13.948,22.46H474.156z M113.655,79.811h-7.026V68.434H95.671v11.376h-7.026
			V50.533h7.026v11.335h10.958V50.533h7.026V79.811z M130.817,79.811h-7.026V50.533h7.026V79.811z M168.381,79.811h-6.023
			c0-1.924,0.042-2.342,0.042-2.384h-0.042c-1.715,1.84-5.06,2.97-7.946,2.97c-8.407,0-15.183-6.399-15.183-15.225
			c0-8.825,6.776-15.224,15.183-15.224c5.688,0,10.666,3.011,13.3,7.779l-7.152,1.882c-1.38-1.673-3.848-2.718-6.148-2.718
			c-4.852,0-7.863,3.472-7.863,8.281c0,5.144,3.472,8.365,8.281,8.365c4.684,0,6.734-2.426,7.571-4.6v-0.042h-7.696v-5.647h13.677
			V79.811z M203.034,79.811h-7.027V68.434h-10.957v11.376h-7.027V50.533h7.027v11.335h10.957V50.533h7.027V79.811z M238.34,80.397
			c-6.107,0-10.456-3.388-12.38-8.867l6.734-1.799c0.753,2.217,2.845,4.434,5.939,4.434c2.51,0,3.681-1.171,3.681-2.593
			c0-2.342-3.43-2.928-7.612-4.517c-3.513-1.338-7.571-3.262-7.571-8.407c0-4.559,4.601-8.7,10.958-8.7
			c5.605,0,10.039,3.43,11.419,8.03l-6.776,1.84c-0.711-2.593-2.969-3.806-5.061-3.806c-2.091,0-3.304,1.046-3.304,2.217
			c0,1.924,2.928,2.635,6.483,3.931c4.35,1.589,8.909,4.057,8.909,9.076C249.759,76.59,245.158,80.397,238.34,80.397z
			 M271.206,80.397c-8.406,0-15.182-6.399-15.182-15.225c0-8.825,6.776-15.224,15.182-15.224c5.773,0,10.707,3.095,13.301,7.779
			l-7.152,1.882c-1.338-1.673-3.847-2.718-6.148-2.718c-4.852,0-7.863,3.472-7.863,8.281c0,5.061,3.304,8.198,7.863,8.198
			c2.803,0,5.48-1.422,6.692-3.43l7.111,1.84C282.583,76.967,277.354,80.397,271.206,80.397z M306.026,80.397
			c-8.407,0-15.182-6.399-15.182-15.225c0-8.825,6.775-15.224,15.182-15.224c8.407,0,15.224,6.399,15.224,15.224
			C321.25,73.997,314.433,80.397,306.026,80.397z M345.753,79.811l-5.438-9.536h-3.597v9.536h-7.026V50.533h10.916
			c7.361,0,11.795,4.015,11.795,10.038c0,3.932-1.882,6.859-5.27,8.449l6.483,10.791H345.753z M383.081,79.811h-21.54V50.533h21.289
			V57.1h-14.263v4.81h11.168v6.148h-11.168v5.187h14.514V79.811z M402.441,80.397c-6.107,0-10.456-3.388-12.381-8.867l6.734-1.799
			c0.752,2.217,2.844,4.434,5.939,4.434c2.51,0,3.68-1.171,3.68-2.593c0-2.342-3.429-2.928-7.611-4.517
			c-3.514-1.338-7.571-3.262-7.571-8.407c0-4.559,4.6-8.7,10.958-8.7c5.605,0,10.038,3.43,11.418,8.03l-6.775,1.84
			c-0.711-2.593-2.97-3.806-5.061-3.806c-2.092,0-3.304,1.046-3.304,2.217c0,1.924,2.928,2.635,6.483,3.931
			c4.35,1.589,8.909,4.057,8.909,9.076C413.859,76.59,409.259,80.397,402.441,80.397z"/>
	</g>
</g>
</svg>
