<?xml version="1.0" encoding="utf-8"?>
<!-- Generator: Adobe Illustrator 17.0.0, SVG Export Plug-In . SVG Version: 6.00 Build 0)  -->
<!DOCTYPE svg PUBLIC "-//W3C//DTD SVG 1.1//EN" "http://www.w3.org/Graphics/SVG/1.1/DTD/svg11.dtd">
<svg version="1.1" id="Layer_2" xmlns="http://www.w3.org/2000/svg" xmlns:xlink="http://www.w3.org/1999/xlink" x="0px" y="0px"
	 width="500px" height="124px" viewBox="0 0 500 124" enable-background="new 0 0 500 124" xml:space="preserve">
<g>
	<g>
		<path fill="#FFFFFF" d="M125.918,14.89l-1.824-4.662h-5.877l-1.805,4.662h-1.725l5.796-14.719h1.434l5.765,14.719H125.918z
			 M123.562,8.693l-1.705-4.542c-0.221-0.575-0.448-1.28-0.682-2.116c-0.147,0.642-0.357,1.347-0.632,2.116l-1.725,4.542H123.562z"
			/>
		<path fill="#FFFFFF" d="M147.23,7.209h4.984v7.129c-0.775,0.247-1.564,0.435-2.366,0.562c-0.802,0.127-1.732,0.19-2.788,0.19
			c-2.219,0-3.947-0.66-5.184-1.98c-1.237-1.32-1.855-3.17-1.855-5.55c0-1.524,0.305-2.86,0.917-4.006
			c0.611-1.146,1.492-2.022,2.642-2.627c1.15-0.605,2.497-0.907,4.04-0.907c1.564,0,3.021,0.287,4.372,0.862l-0.661,1.504
			c-1.324-0.561-2.597-0.842-3.821-0.842c-1.785,0-3.179,0.531-4.182,1.594c-1.003,1.063-1.503,2.537-1.503,4.422
			c0,1.979,0.483,3.479,1.448,4.502c0.966,1.023,2.385,1.534,4.257,1.534c1.016,0,2.009-0.117,2.978-0.351V8.733h-3.278V7.209z"/>
		<path fill="#FFFFFF" d="M167.822,14.89l-1.825-4.662h-5.876l-1.805,4.662h-1.725l5.796-14.719h1.434l5.766,14.719H167.822z
			 M165.466,8.693l-1.704-4.542c-0.221-0.575-0.449-1.28-0.682-2.116c-0.147,0.642-0.358,1.347-0.632,2.116l-1.725,4.542H165.466z"
			/>
		<path fill="#FFFFFF" d="M180.965,14.89l-4.973-12.995h-0.08c0.094,1.029,0.14,2.253,0.14,3.67v9.325h-1.574V0.23h2.567
			l4.642,12.092h0.08l4.682-12.092h2.548V14.89h-1.705V5.444c0-1.083,0.048-2.259,0.141-3.529h-0.08l-5.013,12.975H180.965z"/>
		<path fill="#FFFFFF" d="M204.064,14.89h-8.172V0.23h8.172v1.514h-6.468v4.722h6.077v1.504h-6.077v5.394h6.468V14.89z"/>
		<path fill="#FFFFFF" d="M231.121,7.54c0,2.346-0.593,4.191-1.78,5.535c-1.187,1.344-2.837,2.015-4.949,2.015
			c-2.158,0-3.825-0.66-4.998-1.98c-1.174-1.32-1.76-3.183-1.76-5.59c0-2.386,0.588-4.237,1.765-5.55
			c1.176-1.314,2.848-1.97,5.013-1.97c2.105,0,3.749,0.668,4.933,2.005C230.529,3.342,231.121,5.187,231.121,7.54z M219.44,7.54
			c0,1.985,0.422,3.491,1.268,4.517c0.846,1.026,2.074,1.539,3.685,1.539c1.625,0,2.851-0.512,3.68-1.534
			c0.829-1.023,1.243-2.53,1.243-4.522c0-1.972-0.413-3.468-1.238-4.487c-0.826-1.019-2.047-1.529-3.665-1.529
			c-1.625,0-2.859,0.513-3.705,1.539C219.862,4.09,219.44,5.582,219.44,7.54z"/>
		<path fill="#FFFFFF" d="M238.969,14.89h-1.705V0.23h8.172v1.514h-6.468v5.364h6.076v1.514h-6.076V14.89z"/>
		<path fill="#FFFFFF" d="M268.242,4.502c0,1.484-0.507,2.626-1.519,3.424c-1.013,0.799-2.462,1.198-4.347,1.198h-1.725v5.765
			h-1.704V0.23h3.8C266.41,0.23,268.242,1.654,268.242,4.502z M260.651,7.661h1.535c1.511,0,2.604-0.244,3.278-0.732
			c0.676-0.488,1.013-1.27,1.013-2.346c0-0.969-0.318-1.691-0.952-2.166c-0.636-0.475-1.625-0.712-2.968-0.712h-1.906V7.661z"/>
		<path fill="#FFFFFF" d="M275.89,8.793v6.096h-1.705V0.23h4.021c1.797,0,3.126,0.345,3.985,1.033
			c0.859,0.688,1.288,1.725,1.288,3.108c0,1.939-0.982,3.249-2.947,3.931l3.98,6.587h-2.015l-3.55-6.096H275.89z M275.89,7.329
			h2.336c1.203,0,2.086-0.239,2.647-0.717c0.562-0.478,0.842-1.195,0.842-2.151c0-0.969-0.285-1.667-0.857-2.095
			c-0.572-0.428-1.488-0.642-2.753-0.642h-2.215V7.329z"/>
		<path fill="#FFFFFF" d="M297.926,14.89h-8.172V0.23h8.172v1.514h-6.468v4.722h6.077v1.504h-6.077v5.394h6.468V14.89z"/>
		<path fill="#FFFFFF" d="M308.562,14.89h-1.705V1.745h-4.643V0.23h10.989v1.514h-4.642V14.89z"/>
		<path fill="#FFFFFF" d="M326.457,14.89h-8.172V0.23h8.172v1.514h-6.468v4.722h6.076v1.504h-6.076v5.394h6.468V14.89z"/>
		<path fill="#FFFFFF" d="M344.032,14.89h-1.946l-8.011-12.303h-0.08c0.107,1.444,0.16,2.767,0.16,3.971v8.332h-1.575V0.23h1.925
			l7.992,12.253h0.08c-0.013-0.18-0.043-0.76-0.091-1.739c-0.046-0.979-0.063-1.679-0.05-2.1V0.23h1.595V14.89z"/>
		<path fill="#FFFFFF" d="M357.214,1.544c-1.611,0-2.883,0.536-3.815,1.609C352.466,4.226,352,5.695,352,7.56
			c0,1.918,0.449,3.401,1.349,4.447c0.899,1.046,2.181,1.569,3.845,1.569c1.023,0,2.189-0.184,3.499-0.552v1.494
			c-1.016,0.381-2.269,0.571-3.76,0.571c-2.159,0-3.825-0.655-4.999-1.965c-1.174-1.31-1.76-3.171-1.76-5.585
			c0-1.511,0.282-2.834,0.847-3.971c0.564-1.136,1.38-2.012,2.447-2.627c1.066-0.615,2.321-0.922,3.765-0.922
			c1.537,0,2.881,0.281,4.031,0.842l-0.722,1.464C359.433,1.805,358.323,1.544,357.214,1.544z"/>
		<path fill="#FFFFFF" d="M374.938,14.89h-8.171V0.23h8.171v1.514h-6.468v4.722h6.077v1.504h-6.077v5.394h6.468V14.89z"/>
	</g>
	<g>
		<path fill="#FFFFFF" d="M372.393,60.587h-0.042c-0.042,0-0.795,2.635-1.422,4.308l-2.092,5.688h7.069l-2.091-5.688
			C373.187,63.222,372.434,60.587,372.393,60.587z"/>
		<path fill="#FFFFFF" d="M311.472,58.621h-4.015v6.943h4.015c2.718,0,4.35-1.296,4.35-3.471
			C315.822,59.918,314.19,58.621,311.472,58.621z"/>
		<path fill="#FFFFFF" d="M261.652,58.412c-4.726,0-7.863,3.346-7.863,8.281c0,4.893,3.137,8.281,7.863,8.281
			c4.768,0,7.905-3.388,7.905-8.281C269.556,61.758,266.419,58.412,261.652,58.412z"/>
		<path fill="#FFFFFF" d="M477.959,123.764l-22.284-36.321l22.111-36.321h-42.082V29.329H64.465V51.12H22.383l22.111,36.322
			l-22.453,36.32l56.473,0.103l-13.58-22.561h370.724l-13.948,22.46H477.959z M110.613,81.332h-7.026V69.956H92.628v11.376h-7.027
			V52.054h7.027v11.335h10.958V52.054h7.026V81.332z M134.212,81.918c-8.408,0-15.183-6.399-15.183-15.225
			c0-8.825,6.775-15.224,15.183-15.224c8.406,0,15.224,6.399,15.224,15.224C149.435,75.518,142.618,81.918,134.212,81.918z
			 M187.651,81.332h-6.608l-4.35-13.51c-0.92-2.886-1.254-4.935-1.296-4.935h-0.042c-0.042,0-0.376,2.05-1.296,4.935l-4.35,13.51
			H163.1l-8.867-29.278h7.486l3.598,13.803c0.711,2.76,1.129,4.726,1.17,4.726h0.042c0.042,0,0.502-1.966,1.506-4.726l4.057-11.042
			h6.566l4.057,11.042c1.003,2.76,1.463,4.726,1.506,4.726h0.042c0.042,0,0.46-1.966,1.171-4.726l3.597-13.803h7.486L187.651,81.332
			z M241.321,58.621h-8.908v22.711h-7.027V58.621h-8.783v-6.566h24.718V58.621z M261.652,81.918
			c-8.407,0-15.182-6.399-15.182-15.225c0-8.825,6.775-15.224,15.182-15.224c8.407,0,15.224,6.399,15.224,15.224
			C276.875,75.518,270.059,81.918,261.652,81.918z M311.598,72.13h-4.142v9.202h-7.026V52.054h11.168
			c7.193,0,11.544,3.765,11.544,10.038C323.142,68.366,318.791,72.13,311.598,72.13z M351.711,81.332h-20.871V52.054h7.026v22.711
			h13.844V81.332z M379.838,81.332l-1.673-4.601h-11.585l-1.673,4.601h-7.571l11.711-29.278h6.65l11.711,29.278H379.838z
			 M405.651,68.366v12.966h-6.985V68.366l-11.209-16.312h7.863l5.312,7.822c0.836,1.254,1.464,2.133,1.506,2.133h0.042
			c0.042,0,0.669-0.878,1.506-2.133l5.312-7.822h7.863L405.651,68.366z"/>
		<path fill="#FFFFFF" d="M134.212,58.412c-4.727,0-7.864,3.346-7.864,8.281c0,4.893,3.137,8.281,7.864,8.281
			c4.768,0,7.904-3.388,7.904-8.281C142.116,61.758,138.979,58.412,134.212,58.412z"/>
	</g>
</g>
</svg>
