<?xml version="1.0" encoding="utf-8"?>
<!-- Generator: Adobe Illustrator 17.0.0, SVG Export Plug-In . SVG Version: 6.00 Build 0)  -->
<!DOCTYPE svg PUBLIC "-//W3C//DTD SVG 1.1//EN" "http://www.w3.org/Graphics/SVG/1.1/DTD/svg11.dtd">
<svg version="1.1" id="Layer_2" xmlns="http://www.w3.org/2000/svg" xmlns:xlink="http://www.w3.org/1999/xlink" x="0px" y="0px"
	 width="100%" height="100%" viewBox="0 0 500 124" enable-background="new 0 0 500 124" xml:space="preserve">
<g>
	<g>
		<path fill="#FFFFFF" d="M214.825,58.543h-4.874v6.975h4.874c2.522,0,3.53-1.891,3.53-3.487
			C218.355,60.434,217.347,58.543,214.825,58.543z"/>
		<path fill="#FFFFFF" d="M476.97,123.831l-22.386-36.487l22.212-36.487h-42.274V28.964H65.648v21.891H23.373l22.212,36.488
			L23.03,123.83l56.731,0.102l-13.642-22.664l368.356,0.001l-14.012,22.562H476.97z M113.824,58.543h-8.95v22.815h-7.058V58.543
			h-8.824v-6.596h24.832V58.543z M145.925,81.358h-7.059V69.929h-11.009v11.428h-7.058V51.946h7.058v11.387h11.009V51.946h7.059
			V81.358z M177.761,81.358h-21.639V51.946h21.386v6.596H163.18v4.832h11.219v6.176H163.18v5.21h14.58V81.358z M219.027,81.358
			l-5.462-9.58h-3.614v9.58h-7.058V51.946h10.967c7.394,0,11.849,4.034,11.849,10.084c0,3.95-1.891,6.891-5.295,8.488l6.512,10.84
			H219.027z M256.526,81.358h-21.638V51.946h21.386v6.596h-14.327v4.832h11.219v6.176h-11.219v5.21h14.579V81.358z M275.975,81.946
			c-6.134,0-10.504-3.403-12.437-8.908l6.764-1.807c0.756,2.227,2.857,4.454,5.967,4.454c2.52,0,3.697-1.177,3.697-2.605
			c0-2.353-3.445-2.941-7.647-4.538c-3.529-1.344-7.605-3.277-7.605-8.445c0-4.58,4.622-8.739,11.009-8.739
			c5.63,0,10.083,3.445,11.47,8.067l-6.806,1.849c-0.714-2.605-2.983-3.824-5.084-3.824s-3.319,1.051-3.319,2.227
			c0,1.932,2.941,2.647,6.512,3.949c4.369,1.597,8.949,4.076,8.949,9.118C287.446,78.123,282.824,81.946,275.975,81.946z
			 M321.126,68.291c0,8.823-5.21,13.655-12.983,13.655c-7.815,0-12.983-4.832-12.983-13.655V51.946h7.058v16.176
			c0,5.042,2.059,7.227,5.924,7.227c3.865,0,5.924-2.185,5.924-7.227V51.946h7.058V68.291z M351.886,81.358H330.92V51.946h7.059
			v22.815h13.907V81.358z M377.809,58.543h-8.949v22.815h-7.059V58.543h-8.824v-6.596h24.832V58.543z M395.439,81.946
			c-6.135,0-10.504-3.403-12.437-8.908l6.765-1.807c0.756,2.227,2.857,4.454,5.966,4.454c2.521,0,3.697-1.177,3.697-2.605
			c0-2.353-3.445-2.941-7.646-4.538c-3.53-1.344-7.605-3.277-7.605-8.445c0-4.58,4.622-8.739,11.008-8.739
			c5.63,0,10.084,3.445,11.47,8.067l-6.806,1.849c-0.715-2.605-2.984-3.824-5.084-3.824c-2.101,0-3.32,1.051-3.32,2.227
			c0,1.932,2.941,2.647,6.512,3.949c4.37,1.597,8.95,4.076,8.95,9.118C406.909,78.123,402.287,81.946,395.439,81.946z"/>
	</g>
	<g>
		<path fill="#FFFFFF" d="M169.2,15.026V0.3h1.713v14.726H169.2z"/>
		<path fill="#FFFFFF" d="M182.372,15.026h-1.712V1.82h-4.664V0.3h11.04V1.82h-4.664V15.026z"/>
		<path fill="#FFFFFF" d="M193.229,0.3l0.151,0.222c-0.175,0.672-0.426,1.452-0.755,2.342c-0.329,0.89-0.672,1.717-1.027,2.483
			h-1.229c0.47-1.914,0.812-3.596,1.027-5.046H193.229z"/>
		<path fill="#FFFFFF" d="M206.844,11.107c0,1.296-0.47,2.307-1.41,3.032c-0.94,0.725-2.216,1.088-3.828,1.088
			c-1.746,0-3.089-0.225-4.029-0.675V12.9c0.604,0.255,1.262,0.457,1.974,0.604c0.712,0.148,1.417,0.222,2.115,0.222
			c1.142,0,2.001-0.216,2.579-0.65c0.578-0.433,0.866-1.036,0.866-1.808c0-0.51-0.103-0.928-0.307-1.254
			c-0.204-0.326-0.548-0.626-1.027-0.902c-0.48-0.275-1.21-0.587-2.191-0.936c-1.37-0.49-2.349-1.071-2.936-1.743
			c-0.588-0.671-0.882-1.547-0.882-2.629c0-1.135,0.427-2.038,1.28-2.71c0.853-0.671,1.981-1.007,3.384-1.007
			c1.464,0,2.811,0.269,4.039,0.806l-0.533,1.491c-1.215-0.51-2.397-0.766-3.546-0.766c-0.907,0-1.615,0.195-2.126,0.584
			c-0.51,0.39-0.765,0.93-0.765,1.622c0,0.51,0.094,0.928,0.282,1.254c0.188,0.326,0.506,0.625,0.952,0.897
			c0.446,0.272,1.13,0.573,2.05,0.901c1.545,0.551,2.607,1.142,3.188,1.773C206.553,9.281,206.844,10.1,206.844,11.107z"/>
		<path fill="#FFFFFF" d="M230.247,15.026l-1.833-4.684h-5.903l-1.813,4.684h-1.733l5.823-14.787h1.44l5.792,14.787H230.247z
			 M227.881,8.801l-1.712-4.563c-0.222-0.578-0.45-1.286-0.685-2.125c-0.148,0.645-0.359,1.353-0.635,2.125l-1.733,4.563H227.881z"
			/>
		<path fill="#FFFFFF" d="M236.933,15.026V0.3h1.712v13.175h6.497v1.551H236.933z"/>
		<path fill="#FFFFFF" d="M250.529,15.026V0.3h1.712v13.175h6.497v1.551H250.529z"/>
		<path fill="#FFFFFF" d="M285.154,7.642c0,2.357-0.597,4.21-1.788,5.56c-1.192,1.35-2.849,2.025-4.971,2.025
			c-2.169,0-3.843-0.663-5.021-1.99c-1.179-1.326-1.768-3.198-1.768-5.616c0-2.397,0.591-4.256,1.773-5.575
			c1.182-1.32,2.861-1.979,5.036-1.979c2.115,0,3.767,0.672,4.956,2.015C284.559,3.425,285.154,5.279,285.154,7.642z M273.418,7.642
			c0,1.994,0.424,3.507,1.274,4.538c0.849,1.031,2.083,1.546,3.702,1.546c1.632,0,2.864-0.513,3.697-1.541
			c0.833-1.027,1.249-2.542,1.249-4.543c0-1.981-0.415-3.483-1.245-4.507c-0.83-1.024-2.056-1.536-3.681-1.536
			c-1.632,0-2.873,0.516-3.722,1.546C273.843,4.176,273.418,5.675,273.418,7.642z"/>
		<path fill="#FFFFFF" d="M299.736,0.3h1.843l-5.308,14.726h-1.692L289.301,0.3h1.813l3.384,9.529
			c0.389,1.095,0.698,2.159,0.927,3.193c0.242-1.088,0.557-2.172,0.946-3.253L299.736,0.3z"/>
		<path fill="#FFFFFF" d="M314.701,15.026h-8.21V0.3h8.21V1.82h-6.497v4.745h6.103v1.511h-6.103v5.419h6.497V15.026z"/>
		<path fill="#FFFFFF" d="M322.565,8.902v6.124h-1.712V0.3h4.039c1.806,0,3.14,0.346,4.004,1.037
			c0.863,0.692,1.295,1.733,1.295,3.123c0,1.948-0.987,3.264-2.961,3.949l3.999,6.618h-2.024l-3.566-6.124H322.565z M322.565,7.431
			h2.347c1.209,0,2.095-0.24,2.659-0.72c0.564-0.48,0.846-1.2,0.846-2.16c0-0.974-0.287-1.676-0.861-2.106
			c-0.575-0.429-1.496-0.645-2.765-0.645h-2.226V7.431z"/>
	</g>
</g>
</svg>
