<?xml version="1.0" encoding="utf-8"?>
<!-- Generator: Adobe Illustrator 17.0.0, SVG Export Plug-In . SVG Version: 6.00 Build 0)  -->
<!DOCTYPE svg PUBLIC "-//W3C//DTD SVG 1.1//EN" "http://www.w3.org/Graphics/SVG/1.1/DTD/svg11.dtd">
<svg version="1.1" id="Layer_2" xmlns="http://www.w3.org/2000/svg" xmlns:xlink="http://www.w3.org/1999/xlink" x="0px" y="0px"
	 width="100%" height="100%" viewBox="80 0 500 335" enable-background="new 80 0 500 335" xml:space="preserve">
<g>
	<g>
		<path fill="#FFFFFF" d="M384.45,174.366h-4.852v6.943h4.852c2.51,0,3.513-1.882,3.513-3.471
			C387.963,176.248,386.96,174.366,384.45,174.366z"/>
		<path fill="#FFFFFF" d="M282.823,174.157c-4.727,0-7.864,3.346-7.864,8.281c0,4.894,3.137,8.282,7.864,8.282
			c4.768,0,7.904-3.388,7.904-8.282C290.728,177.503,287.591,174.157,282.823,174.157z"/>
		<path fill="#FFFFFF" d="M451.956,174.366h-5.773v16.144h5.773c4.182,0,7.821-2.928,7.821-7.947
			C459.777,177.544,456.139,174.366,451.956,174.366z"/>
		<path fill="#FFFFFF" d="M417.371,176.332h-0.043c-0.042,0-0.795,2.635-1.422,4.308l-2.091,5.688h7.069l-2.092-5.688
			C418.166,178.967,417.413,176.332,417.371,176.332z"/>
		<path fill="#FFFFFF" d="M218.504,176.332h-0.042c-0.042,0-0.795,2.635-1.421,4.308l-2.092,5.688h7.069l-2.092-5.688
			C219.299,178.967,218.547,176.332,218.504,176.332z"/>
		<path fill="#FFFFFF" d="M533.652,204.498l22.111-36.321h-42.082v-21.792H146.487v21.792h-42.082l22.111,36.322l-22.452,36.32
			l56.473,0.102l-13.58-22.561l366.678,0.001l-13.948,22.459h56.249L533.652,204.498z M196.676,197.077h-6.901v-7.152
			c0-6.942,0.251-10.373,0.209-10.373h-0.042c-0.043,0-2.384,4.015-2.635,4.433l-3.43,5.856h-3.639l-3.429-5.856
			c-0.251-0.418-2.594-4.433-2.635-4.433h-0.042c-0.043,0,0.208,3.43,0.208,10.373v7.152h-6.901v-29.278h6.608l5.479,8.867
			c2.133,3.471,2.467,4.225,2.509,4.225h0.043c0.042,0,0.376-0.753,2.51-4.225l5.478-8.867h6.608v29.278H196.676z M225.949,197.077
			l-1.672-4.601h-11.586l-1.673,4.601h-7.57l11.711-29.278h6.65l11.71,29.278H225.949z M249.956,197.663
			c-6.106,0-10.456-3.388-12.38-8.867l6.734-1.799c0.752,2.217,2.844,4.434,5.94,4.434c2.509,0,3.68-1.171,3.68-2.593
			c0-2.343-3.429-2.928-7.612-4.518c-3.513-1.338-7.57-3.262-7.57-8.406c0-4.559,4.601-8.7,10.958-8.7
			c5.604,0,10.037,3.429,11.418,8.031l-6.775,1.84c-0.711-2.593-2.969-3.806-5.061-3.806s-3.304,1.046-3.304,2.217
			c0,1.923,2.928,2.635,6.482,3.931c4.35,1.59,8.908,4.057,8.908,9.077C261.375,193.857,256.774,197.663,249.956,197.663z
			 M286.253,197.286v5.311h-7.027v-5.354c-6.65-1.505-11.585-7.277-11.585-14.807c0-8.825,6.775-15.224,15.183-15.224
			c8.406,0,15.224,6.399,15.224,15.224C298.047,190.008,293.028,195.823,286.253,197.286z M331.793,184.069
			c0,8.783-5.186,13.593-12.924,13.593c-7.78,0-12.923-4.81-12.923-13.593v-16.271h7.026v16.103c0,5.02,2.05,7.194,5.897,7.194
			c3.848,0,5.897-2.174,5.897-7.194v-16.103h7.027V184.069z M363.082,197.077h-21.539v-29.278h21.288v6.567h-14.262v4.81h11.168
			v6.148h-11.168v5.186h14.513L363.082,197.077L363.082,197.077z M388.633,197.077l-5.437-9.536h-3.597v9.536h-7.026v-29.278h10.916
			c7.361,0,11.795,4.015,11.795,10.038c0,3.932-1.882,6.86-5.27,8.448l6.482,10.791L388.633,197.077L388.633,197.077z
			 M424.815,197.077l-1.673-4.601h-11.585l-1.672,4.601h-7.571l11.71-29.278h6.65l11.711,29.278H424.815z M451.956,197.077h-12.799
			v-29.278h12.799c8.365,0,15.14,5.981,15.14,14.764C467.097,191.347,460.321,197.077,451.956,197.077z M496.985,197.077h-21.54
			v-29.278h21.289v6.567h-14.262v4.81h11.167v6.148h-11.167v5.186h14.513V197.077z"/>
	</g>
	<g>
		<path fill="#FFFFFF" d="M212.605,132.035l-1.825-4.663h-5.876l-1.805,4.663h-1.725l5.795-14.72h1.434l5.766,14.72H212.605z
			 M210.248,125.838l-1.704-4.543c-0.221-0.575-0.448-1.28-0.681-2.115c-0.147,0.642-0.357,1.347-0.632,2.115l-1.725,4.543H210.248z
			"/>
		<path fill="#FFFFFF" d="M233.916,124.354h4.983v7.129c-0.776,0.247-1.564,0.435-2.366,0.561c-0.802,0.127-1.731,0.191-2.787,0.191
			c-2.219,0-3.947-0.66-5.184-1.98c-1.237-1.32-1.855-3.17-1.855-5.55c0-1.524,0.306-2.859,0.917-4.006
			c0.611-1.146,1.492-2.022,2.642-2.627c1.15-0.605,2.497-0.907,4.041-0.907c1.564,0,3.022,0.287,4.372,0.862l-0.662,1.504
			c-1.323-0.561-2.597-0.842-3.82-0.842c-1.785,0-3.178,0.532-4.181,1.595c-1.002,1.063-1.504,2.536-1.504,4.422
			c0,1.979,0.483,3.48,1.449,4.503s2.385,1.534,4.257,1.534c1.016,0,2.009-0.116,2.978-0.351v-4.512h-3.279L233.916,124.354
			L233.916,124.354z"/>
		<path fill="#FFFFFF" d="M254.508,132.035l-1.825-4.663h-5.876l-1.805,4.663h-1.725l5.795-14.72h1.434l5.766,14.72H254.508z
			 M252.152,125.838l-1.704-4.543c-0.221-0.575-0.448-1.28-0.681-2.115c-0.147,0.642-0.357,1.347-0.631,2.115l-1.725,4.543H252.152z
			"/>
		<path fill="#FFFFFF" d="M267.652,132.035l-4.973-12.995h-0.08c0.094,1.03,0.141,2.253,0.141,3.67v9.325h-1.574v-14.659h2.567
			l4.642,12.092h0.08l4.683-12.092h2.547v14.659h-1.704v-9.445c0-1.083,0.046-2.26,0.141-3.53h-0.08l-5.014,12.975L267.652,132.035
			L267.652,132.035z"/>
		<path fill="#FFFFFF" d="M290.75,132.035h-8.172v-14.659h8.172v1.514h-6.467v4.723h6.076v1.504h-6.076v5.395h6.467V132.035z"/>
		<path fill="#FFFFFF" d="M317.807,124.685c0,2.346-0.593,4.191-1.78,5.535c-1.187,1.344-2.836,2.015-4.948,2.015
			c-2.159,0-3.826-0.66-4.998-1.98c-1.174-1.32-1.76-3.184-1.76-5.59c0-2.387,0.588-4.236,1.764-5.55
			c1.177-1.313,2.848-1.971,5.014-1.971c2.106,0,3.75,0.669,4.933,2.006C317.216,120.487,317.807,122.332,317.807,124.685z
			 M306.126,124.685c0,1.985,0.423,3.491,1.268,4.518c0.846,1.027,2.074,1.539,3.685,1.539c1.625,0,2.851-0.511,3.68-1.534
			c0.829-1.023,1.244-2.53,1.244-4.522c0-1.971-0.413-3.467-1.238-4.487c-0.826-1.019-2.047-1.529-3.665-1.529
			c-1.625,0-2.86,0.513-3.705,1.539C306.548,121.234,306.126,122.726,306.126,124.685z"/>
		<path fill="#FFFFFF" d="M325.656,132.035h-1.704v-14.659h8.172v1.514h-6.467v5.365h6.076v1.514h-6.076L325.656,132.035
			L325.656,132.035z"/>
		<path fill="#FFFFFF" d="M354.928,121.647c0,1.484-0.507,2.625-1.519,3.424c-1.013,0.799-2.462,1.198-4.347,1.198h-1.725v5.766
			h-1.704v-14.659h3.8C353.097,117.376,354.928,118.799,354.928,121.647z M347.338,124.805h1.534c1.51,0,2.603-0.243,3.279-0.732
			c0.675-0.488,1.012-1.27,1.012-2.346c0-0.969-0.317-1.691-0.952-2.166c-0.635-0.475-1.625-0.712-2.968-0.712h-1.905
			L347.338,124.805L347.338,124.805z"/>
		<path fill="#FFFFFF" d="M362.576,125.938v6.097h-1.704v-14.659h4.021c1.798,0,3.127,0.345,3.985,1.032
			c0.859,0.688,1.288,1.725,1.288,3.108c0,1.939-0.983,3.249-2.948,3.931l3.981,6.588h-2.016l-3.549-6.097H362.576z
			 M362.576,124.475h2.336c1.203,0,2.085-0.239,2.647-0.717c0.561-0.478,0.842-1.195,0.842-2.151c0-0.969-0.286-1.668-0.857-2.096
			c-0.572-0.427-1.489-0.642-2.752-0.642h-2.216L362.576,124.475L362.576,124.475z"/>
		<path fill="#FFFFFF" d="M384.613,132.035h-8.172v-14.659h8.172v1.514h-6.468v4.723h6.076v1.504h-6.076v5.395h6.468V132.035z"/>
		<path fill="#FFFFFF" d="M395.248,132.035h-1.704v-13.146h-4.642v-1.514h10.989v1.514h-4.642V132.035z"/>
		<path fill="#FFFFFF" d="M413.144,132.035h-8.172v-14.659h8.172v1.514h-6.467v4.723h6.076v1.504h-6.076v5.395h6.467V132.035z"/>
		<path fill="#FFFFFF" d="M430.718,132.035h-1.946l-8.012-12.304h-0.08c0.107,1.444,0.16,2.768,0.16,3.971v8.333h-1.574v-14.659
			h1.925l7.991,12.253h0.08c-0.013-0.18-0.043-0.761-0.091-1.74s-0.063-1.679-0.05-2.101v-8.413h1.594v14.66H430.718z"/>
		<path fill="#FFFFFF" d="M443.901,118.688c-1.611,0-2.883,0.537-3.815,1.609c-0.933,1.073-1.399,2.542-1.399,4.407
			c0,1.919,0.449,3.401,1.348,4.447c0.899,1.047,2.181,1.569,3.845,1.569c1.023,0,2.189-0.183,3.499-0.551v1.494
			c-1.016,0.381-2.27,0.572-3.76,0.572c-2.159,0-3.826-0.655-4.998-1.965c-1.174-1.31-1.76-3.172-1.76-5.586
			c0-1.51,0.282-2.834,0.847-3.971c0.565-1.136,1.38-2.012,2.447-2.627c1.066-0.615,2.321-0.923,3.766-0.923
			c1.538,0,2.881,0.281,4.031,0.842l-0.722,1.464C446.12,118.949,445.01,118.688,443.901,118.688z"/>
		<path fill="#FFFFFF" d="M461.625,132.035h-8.172v-14.659h8.172v1.514h-6.468v4.723h6.076v1.504h-6.076v5.395h6.468V132.035z"/>
	</g>
	<path opacity="0.14" fill="#FFFFFF" enable-background="new    " d="M398.231,96.121c-0.509-5.462-2.499-33.593,8.289-51.016
		c5.833-9.416,13.117-17.117,21.649-22.891c7.95-5.378,16.834-8.87,25.691-10.1c2.667-0.373,4.592-1.435,5.282-2.908
		c0.346-0.745,0.319-1.507-0.078-2.148c-0.163-0.26-0.38-0.492-0.65-0.691c-0.887-0.651-1.58-0.229-1.917,0.081
		c-0.594,0.549-0.938,1.609-0.503,2.308c0.126,0.204,0.313,0.367,0.555,0.485c0.06,0.031,0.11,0.077,0.145,0.132
		c0.049,0.077,0.065,0.173,0.044,0.266c-0.036,0.16-0.177,0.275-0.342,0.277c-0.065,0.002-1.618,0.002-2.509-1.431
		c-0.574-0.923-0.726-2.219-0.451-3.851c0.381-2.283,2.168-4.006,4.661-4.499c2.985-0.589,6,0.779,7.684,3.486
		c2.84,4.572,0.169,7.871-0.905,8.926c0.519,0.303,1.346,0.878,1.856,1.698c0.462,0.742,0.571,1.523,0.327,2.324
		c-0.316,1.037-0.287,1.933,0.081,2.524c0.286,0.46,0.77,0.7,1.329,0.659c0.125-0.009,0.246,0.051,0.316,0.154l0.1-0.007
		l-0.063,0.079c0.046,0.116,0.032,0.249-0.048,0.349c-0.071,0.089-1.753,2.188-4.064,2.397c-0.755,0.068-1.486-0.072-2.186-0.418
		c0.481,1.097,1.101,2.843,1.31,4.902c0.327,3.214-0.338,7.8-5.36,11.405c-3.581,2.57-6.277,2.724-7.904,2.4
		c-1.615-0.321-2.975-1.253-3.829-2.627c-0.636-1.021-0.923-2.181-0.808-3.267c0.121-1.161,0.698-2.117,1.622-2.692
		c0.012-0.008,0.025-0.014,0.038-0.021c1.98-0.92,3.391,0.262,3.859,1.015c0.065,0.104,0.072,0.235,0.017,0.346
		c-0.054,0.11-0.162,0.185-0.282,0.195c-0.183,0.019-1.771,0.225-1.641,1.741c0.029,0.322,0.116,0.605,0.262,0.84
		c0.316,0.507,0.925,0.81,1.71,0.852c1.332,0.071,3.268-0.615,4.594-2.31c1.468-1.879,1.38-5.098-0.207-7.654
		c-2.247-3.614-6.848-5.108-12.623-4.099c-6.798,1.332-10.186,2.694-11.773,3.53c1.243-0.005,2.927,0.392,4.086,2.256
		c2.348,3.777-2.37,6.844-2.418,6.875c-0.109,0.068-0.241,0.069-0.352,0.012l-0.221,0.14l0.101-0.24
		c-0.008-0.008-0.016-0.015-0.022-0.025c-0.058-0.094-0.07-0.214-0.026-0.322c0.007-0.017,0.7-1.735-0.098-3.016
		c-0.267-0.43-0.729-0.722-1.336-0.84c-1.05-0.206-3.497-0.053-8.075,3.269c-8.029,5.831-26.217,22.769-24.03,55.284
		c1.054-5.462,3.61-13.772,10.235-23.786c1.185-1.793,2.536-3.467,4.018-5.017c-0.695-0.319-1.682-0.881-2.984-1.869
		c-0.397-0.301-0.724-0.67-0.98-1.082c-1.361-2.206-0.768-5.632,1.55-7.087c0.419-0.259,0.894-0.452,1.422-0.56
		c2.086-0.43,3.502,0.387,4.206,1.532c0.631,1.018,0.729,2.276,0.329,3.169l-0.122,0.269l-0.181-0.234
		c0.001,0.001-0.254-0.327-0.64-0.581c-0.392-0.253-0.867-0.415-1.361-0.149c-0.033,0.017-0.064,0.036-0.093,0.053
		c-0.878,0.548-1.033,1.793-0.57,2.542c0.277,0.434,0.723,0.698,1.406,0.586c0.597-0.103,1.21-0.341,1.771-0.69
		c1.257-0.783,2.226-2.103,2.187-3.638l-0.009-0.438l0.313,0.309c0.008,0.008,0.1,0.1,0.211,0.278c0.21,0.335,0.477,0.984,0.4,1.939
		c2.463-1.576,5.119-2.867,7.907-3.823c6.443-2.208,13.089-2.441,17.346-0.608c9.746,4.615,20.117,0.906,25.432-1.715
		c8.001-3.947,13.507-9.674,14.208-12.931c0.213-0.856,0.164-1.529-0.141-2.02c-0.361-0.581-1.114-0.892-2.011-0.831
		c-0.862,0.059-1.621,0.449-1.844,0.948c-0.265,0.596-0.28,1.089-0.045,1.469c0.351,0.564,1.154,0.742,1.161,0.745
		c0.098,0.019,0.18,0.079,0.23,0.16c0.032,0.051,0.051,0.111,0.052,0.175c0.005,0.164-0.101,0.311-0.259,0.354
		c-1.647,0.458-3.105-0.108-4.004-1.554c-0.885-1.424-1.019-3.397-0.313-4.594c0.886-1.497,2.403-1.932,3.27-2.057
		c-0.471-0.974-0.5-2.706,0.355-4.368c0.538-1.05,0.072-2.203-0.414-2.985c-0.366-0.589-0.737-0.961-0.808-1.028
		c-0.069-0.068-0.134-0.15-0.193-0.246c-0.338-0.543-0.445-1.466-0.063-1.971c0.149-0.199,0.501-0.503,1.18-0.31
		c0.01,0.002,0.017,0.005,0.024,0.007c3.654,1.34,6.29,3.28,7.837,5.766c2.293,3.689,2.057,8.53-0.665,13.631
		c-2.59,4.858-7.2,9.599-12.98,13.353c-7.841,5.091-14.748,6.569-19.16,6.911c-2.837,0.22-5.011,0.021-6.343-0.188
		c0.588,0.554,1.108,1.193,1.555,1.915c1.524,2.454,2.167,5.824,1.758,9.245c-0.399,3.351-1.711,6.22-3.597,7.872
		c-4.252,3.72-8.759,4.201-12.692,1.356c-0.964-0.697-1.896-0.704-2.626-0.024c-0.867,0.808-1.18,2.31-0.657,3.149
		c0.167,0.267,0.408,0.449,0.722,0.545c0.672,0.205,1.258,0.169,1.741-0.11c0.913-0.526,1.202-1.73,1.205-1.741
		c0.039-0.162,0.181-0.275,0.347-0.275c0.125,0,0.239,0.065,0.302,0.168c0.02,0.032,0.035,0.068,0.044,0.106
		c0.562,2.413-0.898,3.96-2.451,4.602c-1.918,0.793-4.636,0.541-5.897-1.489l-0.024-0.037c-1.813-2.994-1.075-6.443,1.756-8.203
		c2.044-1.271,4.153-0.796,5.177-0.429c-0.139-1.17-0.083-3.531,2.375-4.467c1.609-0.613,3.026-0.094,3.992,1.46
		c0.398,0.639,0.57,1.221,0.577,1.247c0.035,0.124,0,0.252-0.086,0.341l0.105,0.356l-0.266-0.258
		c-0.119,0.033-0.249,0.005-0.343-0.084c-0.43-0.418-0.935-0.507-1.285-0.225c-0.386,0.312-0.51,1.058,0.087,2.021
		c0.265,0.424,0.684,0.605,1.25,0.538c1.632-0.195,4.02-2.352,4.971-5.249c0.788-2.4,0.424-5.172-0.97-7.417
		c-0.834-1.342-1.985-2.404-3.335-3.073c-3.635-1.803-5.824,0.418-5.915,0.514c-0.087,0.091-0.216,0.125-0.337,0.097l-0.072,0.075
		l-0.006-0.105c-0.059-0.029-0.111-0.071-0.145-0.125c-0.03-0.049-0.049-0.106-0.053-0.164c-0.008-0.132-0.103-0.407-0.339-0.788
		c-0.83-1.337-2.814-3.02-5.674-3.369c-2.974-0.364-7.949,0.592-14.756,7.211c-7.193,6.993-11.532,15.579-13.908,21.547
		c-2.577,6.479-3.459,11.363-3.468,11.411c-0.033,0.187-0.208,0.316-0.395,0.29c-0.094-0.011-0.169-0.063-0.225-0.132
		c-0.055-0.03-0.107-0.068-0.14-0.122C398.255,96.23,398.237,96.178,398.231,96.121z"/>
	<path opacity="0.14" fill="#FFFFFF" enable-background="new    " d="M259.453,96.28c0.51-5.462,2.5-33.593-8.289-51.016
		c-5.833-9.416-13.117-17.117-21.649-22.891c-7.95-5.378-16.835-8.87-25.691-10.1c-2.667-0.373-4.593-1.435-5.283-2.908
		c-0.346-0.745-0.319-1.507,0.079-2.148c0.163-0.26,0.38-0.493,0.65-0.691c0.887-0.651,1.58-0.229,1.916,0.081
		c0.594,0.549,0.938,1.609,0.503,2.308c-0.126,0.204-0.313,0.367-0.555,0.485c-0.06,0.03-0.11,0.077-0.145,0.132
		c-0.048,0.077-0.065,0.173-0.044,0.266c0.036,0.161,0.177,0.275,0.342,0.277c0.065,0.002,1.617,0.002,2.508-1.431
		c0.575-0.923,0.726-2.218,0.452-3.851c-0.382-2.282-2.168-4.006-4.661-4.499c-2.985-0.589-6,0.779-7.684,3.486
		c-2.84,4.572-0.169,7.871,0.905,8.926c-0.519,0.303-1.346,0.878-1.855,1.698c-0.462,0.742-0.571,1.523-0.327,2.324
		c0.316,1.037,0.287,1.933-0.081,2.524c-0.286,0.46-0.77,0.7-1.329,0.659c-0.125-0.009-0.246,0.051-0.316,0.154l-0.1-0.007
		l0.063,0.079c-0.046,0.116-0.032,0.249,0.048,0.349c0.071,0.089,1.753,2.188,4.064,2.397c0.755,0.068,1.486-0.072,2.186-0.418
		c-0.481,1.097-1.101,2.843-1.31,4.902c-0.327,3.214,0.338,7.8,5.36,11.405c3.581,2.57,6.277,2.724,7.904,2.4
		c1.616-0.321,2.975-1.253,3.829-2.627c0.636-1.021,0.923-2.181,0.808-3.267c-0.12-1.161-0.698-2.117-1.622-2.692
		c-0.012-0.008-0.025-0.014-0.037-0.021c-1.98-0.92-3.391,0.262-3.859,1.015c-0.065,0.104-0.071,0.235-0.016,0.346
		c0.053,0.11,0.162,0.185,0.282,0.195c0.183,0.019,1.771,0.225,1.64,1.741c-0.028,0.322-0.116,0.605-0.262,0.84
		c-0.316,0.507-0.924,0.81-1.71,0.852c-1.331,0.071-3.268-0.615-4.594-2.31c-1.468-1.879-1.38-5.098,0.208-7.654
		c2.247-3.614,6.847-5.108,12.623-4.099c6.798,1.332,10.186,2.694,11.773,3.53c-1.243-0.005-2.927,0.392-4.086,2.256
		c-2.347,3.777,2.371,6.844,2.419,6.875c0.109,0.068,0.24,0.069,0.352,0.012l0.22,0.14l-0.101-0.24
		c0.008-0.008,0.017-0.015,0.022-0.025c0.058-0.094,0.07-0.214,0.027-0.322c-0.008-0.017-0.7-1.735,0.098-3.016
		c0.266-0.43,0.729-0.722,1.336-0.84c1.05-0.206,3.497-0.053,8.075,3.269c8.029,5.831,26.217,22.769,24.029,55.284
		c-1.053-5.462-3.61-13.772-10.235-23.786c-1.184-1.793-2.536-3.467-4.018-5.017c0.695-0.319,1.682-0.881,2.984-1.869
		c0.396-0.301,0.723-0.67,0.979-1.082c1.362-2.206,0.768-5.632-1.549-7.087c-0.419-0.259-0.894-0.452-1.423-0.56
		c-2.085-0.43-3.502,0.387-4.205,1.532c-0.631,1.018-0.729,2.276-0.329,3.169l0.122,0.269l0.181-0.234
		c-0.002,0.001,0.254-0.327,0.64-0.581c0.391-0.253,0.866-0.415,1.361-0.149c0.033,0.017,0.064,0.036,0.094,0.053
		c0.878,0.548,1.032,1.793,0.57,2.542c-0.278,0.434-0.723,0.698-1.407,0.586c-0.597-0.103-1.209-0.341-1.771-0.69
		c-1.256-0.783-2.225-2.103-2.187-3.638l0.009-0.438l-0.312,0.309c-0.008,0.008-0.101,0.1-0.212,0.278
		c-0.209,0.335-0.477,0.984-0.399,1.939c-2.464-1.576-5.119-2.867-7.907-3.823c-6.443-2.208-13.09-2.441-17.346-0.608
		c-9.746,4.615-20.118,0.906-25.433-1.715c-8.001-3.947-13.507-9.674-14.208-12.932c-0.213-0.855-0.164-1.529,0.14-2.02
		c0.361-0.581,1.114-0.892,2.012-0.831c0.862,0.059,1.621,0.449,1.844,0.948c0.265,0.596,0.28,1.089,0.045,1.469
		c-0.351,0.564-1.154,0.742-1.161,0.745c-0.098,0.019-0.179,0.079-0.23,0.16c-0.032,0.051-0.051,0.111-0.052,0.175
		c-0.005,0.164,0.101,0.311,0.259,0.354c1.647,0.458,3.105-0.108,4.004-1.554c0.885-1.424,1.019-3.397,0.313-4.594
		c-0.886-1.497-2.403-1.932-3.27-2.057c0.471-0.974,0.5-2.706-0.355-4.368c-0.538-1.05-0.071-2.203,0.415-2.985
		c0.365-0.589,0.737-0.961,0.808-1.028c0.069-0.068,0.134-0.15,0.193-0.246c0.338-0.543,0.445-1.466,0.063-1.971
		c-0.149-0.199-0.501-0.503-1.18-0.31c-0.01,0.002-0.018,0.005-0.024,0.007c-3.654,1.34-6.29,3.28-7.837,5.766
		c-2.293,3.689-2.057,8.53,0.665,13.631c2.59,4.858,7.2,9.599,12.98,13.353c7.841,5.091,14.748,6.569,19.16,6.911
		c2.837,0.22,5.011,0.021,6.342-0.188c-0.586,0.554-1.108,1.193-1.555,1.915c-1.524,2.454-2.166,5.824-1.758,9.245
		c0.399,3.351,1.711,6.22,3.597,7.872c4.252,3.72,8.76,4.201,12.692,1.356c0.964-0.696,1.897-0.704,2.626-0.024
		c0.868,0.808,1.18,2.31,0.658,3.149c-0.167,0.267-0.408,0.449-0.722,0.545c-0.672,0.205-1.258,0.169-1.741-0.11
		c-0.913-0.526-1.203-1.73-1.205-1.741c-0.039-0.162-0.181-0.275-0.348-0.275c-0.125,0-0.237,0.065-0.301,0.168
		c-0.019,0.032-0.034,0.068-0.043,0.106c-0.563,2.413,0.897,3.96,2.45,4.602c1.919,0.793,4.636,0.541,5.897-1.488l0.024-0.037
		c1.814-2.994,1.075-6.443-1.756-8.203c-2.043-1.271-4.152-0.796-5.177-0.429c0.14-1.17,0.083-3.531-2.375-4.467
		c-1.609-0.613-3.026-0.094-3.991,1.46c-0.398,0.639-0.57,1.221-0.578,1.247c-0.034,0.124,0,0.252,0.086,0.341l-0.104,0.356
		l0.266-0.258c0.119,0.033,0.249,0.005,0.343-0.084c0.43-0.418,0.935-0.507,1.285-0.225c0.386,0.312,0.51,1.058-0.087,2.021
		c-0.265,0.424-0.683,0.605-1.25,0.538c-1.632-0.195-4.02-2.352-4.97-5.249c-0.789-2.4-0.425-5.172,0.97-7.416
		c0.834-1.342,1.986-2.404,3.335-3.073c3.635-1.803,5.824,0.418,5.915,0.514c0.087,0.091,0.217,0.125,0.337,0.097l0.073,0.075
		l0.006-0.105c0.059-0.029,0.11-0.071,0.144-0.125c0.031-0.049,0.049-0.106,0.053-0.164c0.009-0.132,0.103-0.407,0.34-0.788
		c0.829-1.337,2.813-3.02,5.673-3.369c2.974-0.364,7.95,0.592,14.756,7.211c7.193,6.993,11.532,15.579,13.908,21.547
		c2.576,6.479,3.458,11.363,3.467,11.411c0.034,0.187,0.208,0.316,0.396,0.29c0.094-0.011,0.168-0.063,0.224-0.132
		c0.055-0.03,0.107-0.068,0.14-0.122C259.429,96.389,259.447,96.337,259.453,96.28z"/>
	<path opacity="0.14" fill="#FFFFFF" enable-background="new    " d="M401.047,238.881c-0.509,5.462-2.499,33.592,8.29,51.015
		c5.833,9.417,13.117,17.117,21.649,22.891c7.95,5.377,16.834,8.87,25.691,10.1c2.667,0.373,4.592,1.435,5.282,2.908
		c0.346,0.744,0.319,1.507-0.079,2.148c-0.163,0.26-0.38,0.492-0.649,0.691c-0.887,0.65-1.58,0.229-1.917-0.081
		c-0.594-0.549-0.938-1.609-0.503-2.308c0.126-0.204,0.313-0.367,0.555-0.485c0.06-0.031,0.11-0.078,0.145-0.132
		c0.049-0.077,0.065-0.173,0.044-0.266c-0.036-0.16-0.177-0.275-0.342-0.277c-0.065-0.001-1.618-0.001-2.509,1.431
		c-0.574,0.923-0.726,2.218-0.451,3.85c0.381,2.283,2.168,4.007,4.661,4.499c2.985,0.589,6-0.778,7.684-3.486
		c2.84-4.572,0.169-7.871-0.905-8.926c0.519-0.303,1.346-0.877,1.855-1.698c0.462-0.742,0.571-1.523,0.327-2.324
		c-0.316-1.037-0.287-1.933,0.081-2.524c0.286-0.46,0.77-0.7,1.329-0.659c0.125,0.01,0.246-0.051,0.316-0.154l0.1,0.008
		l-0.063-0.079c0.046-0.116,0.032-0.249-0.049-0.35c-0.071-0.088-1.753-2.187-4.064-2.397c-0.755-0.069-1.486,0.072-2.186,0.418
		c0.481-1.097,1.101-2.843,1.31-4.902c0.327-3.214-0.338-7.8-5.36-11.405c-3.581-2.57-6.277-2.723-7.904-2.4
		c-1.615,0.321-2.975,1.253-3.829,2.628c-0.636,1.021-0.923,2.181-0.808,3.267c0.121,1.161,0.698,2.117,1.622,2.692
		c0.012,0.008,0.025,0.014,0.038,0.02c1.98,0.92,3.391-0.262,3.859-1.015c0.065-0.104,0.071-0.235,0.017-0.345
		c-0.054-0.11-0.162-0.185-0.282-0.195c-0.183-0.019-1.771-0.226-1.641-1.741c0.029-0.322,0.116-0.605,0.262-0.84
		c0.316-0.508,0.925-0.809,1.71-0.852c1.332-0.072,3.268,0.616,4.594,2.309c1.468,1.879,1.38,5.098-0.207,7.654
		c-2.247,3.614-6.848,5.108-12.623,4.099c-6.798-1.332-10.187-2.693-11.773-3.53c1.243,0.005,2.927-0.392,4.086-2.257
		c2.348-3.777-2.37-6.843-2.418-6.875c-0.109-0.068-0.241-0.07-0.352-0.012l-0.221-0.14l0.101,0.24
		c-0.008,0.008-0.015,0.015-0.022,0.024c-0.058,0.094-0.07,0.214-0.026,0.323c0.007,0.017,0.7,1.735-0.098,3.016
		c-0.267,0.43-0.729,0.722-1.336,0.84c-1.05,0.205-3.497,0.053-8.075-3.27c-8.029-5.83-26.217-22.769-24.03-55.284
		c1.054,5.461,3.61,13.771,10.235,23.786c1.185,1.792,2.536,3.467,4.018,5.017c-0.695,0.319-1.682,0.881-2.984,1.869
		c-0.397,0.301-0.724,0.671-0.98,1.083c-1.361,2.205-0.768,5.631,1.55,7.087c0.419,0.259,0.894,0.452,1.422,0.56
		c2.086,0.43,3.502-0.388,4.206-1.532c0.631-1.019,0.729-2.276,0.329-3.17l-0.122-0.269l-0.181,0.233
		c0.001,0-0.254,0.328-0.64,0.582c-0.392,0.253-0.867,0.415-1.361,0.149c-0.033-0.017-0.064-0.036-0.093-0.053
		c-0.878-0.548-1.033-1.794-0.57-2.543c0.277-0.434,0.723-0.698,1.406-0.586c0.597,0.103,1.21,0.341,1.771,0.69
		c1.257,0.783,2.226,2.102,2.187,3.638l-0.009,0.438l0.313-0.309c0.008-0.008,0.1-0.101,0.211-0.279
		c0.21-0.334,0.477-0.983,0.4-1.939c2.463,1.575,5.119,2.867,7.908,3.822c6.443,2.209,13.089,2.441,17.346,0.608
		c9.746-4.615,20.117-0.905,25.432,1.715c8.001,3.947,13.507,9.675,14.208,12.932c0.213,0.855,0.164,1.529-0.14,2.019
		c-0.361,0.581-1.114,0.893-2.012,0.831c-0.862-0.058-1.621-0.449-1.844-0.947c-0.265-0.595-0.28-1.09-0.045-1.47
		c0.351-0.564,1.154-0.742,1.161-0.745c0.098-0.019,0.18-0.079,0.23-0.16c0.032-0.051,0.051-0.112,0.052-0.175
		c0.005-0.165-0.101-0.311-0.259-0.355c-1.647-0.458-3.105,0.109-4.004,1.554c-0.885,1.425-1.019,3.398-0.313,4.594
		c0.886,1.497,2.403,1.932,3.27,2.057c-0.471,0.973-0.5,2.707,0.355,4.368c0.538,1.05,0.071,2.203-0.414,2.985
		c-0.365,0.589-0.737,0.961-0.808,1.028c-0.069,0.067-0.134,0.149-0.193,0.245c-0.338,0.544-0.445,1.467-0.063,1.972
		c0.149,0.199,0.501,0.503,1.18,0.31c0.01-0.003,0.017-0.005,0.024-0.008c3.654-1.34,6.289-3.28,7.837-5.767
		c2.293-3.689,2.057-8.53-0.665-13.631c-2.59-4.858-7.2-9.598-12.98-13.353c-7.841-5.09-14.748-6.569-19.16-6.91
		c-2.837-0.22-5.011-0.021-6.343,0.187c0.587-0.554,1.108-1.193,1.555-1.915c1.524-2.454,2.167-5.823,1.758-9.245
		c-0.399-3.35-1.71-6.221-3.596-7.872c-4.252-3.721-8.76-4.201-12.692-1.356c-0.964,0.696-1.896,0.704-2.626,0.024
		c-0.867-0.808-1.18-2.309-0.657-3.149c0.167-0.267,0.408-0.449,0.722-0.545c0.672-0.205,1.258-0.17,1.741,0.11
		c0.913,0.526,1.202,1.73,1.205,1.741c0.039,0.162,0.181,0.275,0.347,0.275c0.125,0,0.239-0.066,0.302-0.169
		c0.02-0.031,0.035-0.068,0.044-0.106c0.562-2.413-0.898-3.96-2.451-4.603c-1.918-0.792-4.636-0.541-5.897,1.489l-0.024,0.037
		c-1.813,2.994-1.075,6.443,1.756,8.203c2.043,1.271,4.153,0.795,5.177,0.429c-0.139,1.17-0.083,3.531,2.375,4.467
		c1.609,0.613,3.026,0.094,3.992-1.46c0.398-0.64,0.57-1.222,0.577-1.247c0.035-0.124,0-0.253-0.086-0.341l0.105-0.356l-0.266,0.258
		c-0.119-0.033-0.249-0.005-0.343,0.084c-0.431,0.418-0.936,0.507-1.285,0.226c-0.386-0.312-0.51-1.059,0.087-2.021
		c0.265-0.424,0.684-0.605,1.25-0.537c1.633,0.195,4.02,2.352,4.971,5.249c0.788,2.4,0.424,5.172-0.97,7.416
		c-0.834,1.343-1.985,2.404-3.335,3.073c-3.635,1.802-5.824-0.419-5.915-0.515c-0.087-0.091-0.216-0.125-0.337-0.097l-0.072-0.075
		l-0.006,0.104c-0.059,0.03-0.11,0.071-0.145,0.126c-0.03,0.048-0.048,0.106-0.053,0.164c-0.008,0.131-0.103,0.407-0.339,0.787
		c-0.83,1.337-2.814,3.02-5.674,3.37c-2.974,0.364-7.949-0.592-14.756-7.212c-7.193-6.993-11.532-15.578-13.908-21.547
		c-2.577-6.48-3.459-11.364-3.468-11.412c-0.033-0.186-0.208-0.316-0.396-0.291c-0.094,0.012-0.169,0.064-0.225,0.132
		c-0.055,0.03-0.106,0.068-0.14,0.122C401.071,238.771,401.053,238.823,401.047,238.881z"/>
	<path opacity="0.14" fill="#FFFFFF" enable-background="new    " d="M262.269,238.722c0.51,5.462,2.5,33.592-8.289,51.015
		c-5.833,9.416-13.117,17.117-21.649,22.891c-7.95,5.377-16.835,8.87-25.691,10.1c-2.667,0.373-4.592,1.435-5.282,2.908
		c-0.346,0.745-0.319,1.507,0.079,2.148c0.163,0.26,0.38,0.492,0.65,0.691c0.887,0.65,1.58,0.229,1.917-0.081
		c0.594-0.549,0.938-1.609,0.503-2.308c-0.126-0.205-0.313-0.367-0.555-0.485c-0.06-0.031-0.11-0.078-0.145-0.132
		c-0.048-0.077-0.065-0.173-0.044-0.266c0.036-0.16,0.177-0.275,0.342-0.277c0.065-0.001,1.617-0.001,2.508,1.431
		c0.575,0.923,0.726,2.218,0.452,3.85c-0.382,2.283-2.168,4.007-4.661,4.499c-2.985,0.589-6-0.778-7.683-3.486
		c-2.84-4.572-0.169-7.871,0.905-8.926c-0.519-0.302-1.346-0.877-1.855-1.698c-0.462-0.742-0.571-1.523-0.327-2.324
		c0.316-1.037,0.287-1.933-0.081-2.524c-0.286-0.459-0.77-0.7-1.329-0.659c-0.125,0.01-0.246-0.051-0.316-0.154l-0.1,0.008
		l0.063-0.079c-0.046-0.116-0.032-0.249,0.048-0.35c0.071-0.088,1.753-2.187,4.064-2.397c0.755-0.069,1.486,0.072,2.186,0.418
		c-0.481-1.097-1.101-2.843-1.31-4.902c-0.327-3.214,0.338-7.8,5.36-11.405c3.581-2.57,6.277-2.723,7.904-2.4
		c1.616,0.321,2.975,1.253,3.829,2.628c0.636,1.021,0.923,2.181,0.808,3.267c-0.12,1.161-0.698,2.117-1.622,2.692
		c-0.012,0.008-0.025,0.014-0.037,0.02c-1.98,0.92-3.391-0.262-3.859-1.015c-0.065-0.104-0.071-0.235-0.016-0.345
		c0.053-0.11,0.162-0.185,0.282-0.195c0.183-0.019,1.771-0.226,1.64-1.741c-0.028-0.322-0.116-0.605-0.262-0.84
		c-0.316-0.508-0.924-0.809-1.71-0.852c-1.331-0.072-3.268,0.616-4.593,2.309c-1.468,1.879-1.38,5.098,0.208,7.655
		c2.247,3.614,6.847,5.108,12.623,4.099c6.798-1.332,10.186-2.693,11.773-3.53c-1.243,0.005-2.927-0.392-4.086-2.257
		c-2.347-3.777,2.371-6.844,2.419-6.875c0.109-0.068,0.24-0.07,0.352-0.012l0.22-0.14l-0.101,0.24
		c0.008,0.008,0.016,0.014,0.022,0.024c0.058,0.094,0.07,0.214,0.027,0.323c-0.008,0.017-0.7,1.735,0.098,3.016
		c0.266,0.43,0.729,0.722,1.336,0.84c1.05,0.206,3.497,0.053,8.075-3.27c8.029-5.83,26.217-22.768,24.029-55.284
		c-1.053,5.461-3.61,13.771-10.235,23.786c-1.184,1.792-2.536,3.467-4.018,5.017c0.695,0.319,1.682,0.881,2.984,1.869
		c0.396,0.302,0.723,0.671,0.979,1.083c1.362,2.206,0.768,5.631-1.549,7.087c-0.419,0.259-0.894,0.452-1.423,0.56
		c-2.085,0.43-3.502-0.388-4.205-1.532c-0.631-1.019-0.729-2.276-0.329-3.17l0.122-0.268l0.181,0.233
		c-0.002,0,0.254,0.328,0.64,0.582c0.391,0.253,0.866,0.415,1.361,0.149c0.033-0.018,0.064-0.036,0.094-0.053
		c0.878-0.548,1.032-1.794,0.57-2.543c-0.278-0.434-0.723-0.698-1.407-0.587c-0.597,0.103-1.209,0.341-1.771,0.69
		c-1.256,0.783-2.225,2.102-2.187,3.638l0.009,0.438l-0.312-0.309c-0.008-0.008-0.101-0.101-0.212-0.279
		c-0.209-0.334-0.477-0.983-0.399-1.939c-2.464,1.575-5.119,2.867-7.907,3.822c-6.443,2.209-13.09,2.441-17.346,0.608
		c-9.746-4.615-20.117-0.905-25.432,1.715c-8.001,3.947-13.507,9.675-14.208,12.932c-0.213,0.855-0.164,1.529,0.141,2.019
		c0.361,0.581,1.114,0.893,2.012,0.831c0.862-0.058,1.621-0.449,1.844-0.947c0.265-0.596,0.28-1.09,0.045-1.47
		c-0.351-0.564-1.154-0.742-1.161-0.745c-0.098-0.019-0.179-0.08-0.23-0.16c-0.032-0.051-0.051-0.111-0.052-0.175
		c-0.005-0.165,0.101-0.311,0.259-0.355c1.647-0.458,3.105,0.109,4.004,1.554c0.885,1.424,1.019,3.398,0.313,4.594
		c-0.886,1.497-2.403,1.932-3.27,2.057c0.471,0.973,0.5,2.707-0.355,4.368c-0.538,1.05-0.071,2.203,0.415,2.985
		c0.365,0.589,0.737,0.961,0.808,1.028c0.069,0.067,0.134,0.149,0.193,0.245c0.338,0.544,0.445,1.467,0.063,1.972
		c-0.149,0.199-0.501,0.503-1.18,0.31c-0.01-0.003-0.017-0.005-0.024-0.008c-3.654-1.34-6.29-3.28-7.837-5.767
		c-2.293-3.689-2.057-8.53,0.665-13.631c2.59-4.858,7.2-9.598,12.98-13.353c7.841-5.09,14.748-6.569,19.16-6.91
		c2.836-0.22,5.011-0.021,6.342,0.187c-0.586-0.554-1.108-1.193-1.555-1.915c-1.524-2.454-2.166-5.823-1.758-9.245
		c0.399-3.35,1.711-6.221,3.597-7.872c4.252-3.721,8.76-4.201,12.692-1.356c0.964,0.696,1.897,0.704,2.626,0.024
		c0.868-0.807,1.18-2.309,0.658-3.149c-0.167-0.266-0.408-0.449-0.722-0.545c-0.672-0.205-1.258-0.17-1.741,0.11
		c-0.913,0.526-1.203,1.73-1.205,1.741c-0.039,0.162-0.181,0.275-0.348,0.275c-0.125,0-0.237-0.066-0.301-0.169
		c-0.019-0.031-0.034-0.068-0.043-0.106c-0.563-2.413,0.897-3.96,2.45-4.603c1.919-0.792,4.636-0.541,5.897,1.489l0.024,0.037
		c1.814,2.993,1.075,6.443-1.756,8.203c-2.043,1.271-4.152,0.795-5.177,0.428c0.14,1.17,0.083,3.53-2.375,4.467
		c-1.609,0.613-3.026,0.094-3.991-1.46c-0.398-0.64-0.57-1.222-0.578-1.247c-0.034-0.124,0-0.253,0.086-0.341l-0.104-0.356
		l0.266,0.258c0.119-0.033,0.249-0.005,0.343,0.084c0.43,0.418,0.935,0.507,1.285,0.226c0.386-0.312,0.51-1.059-0.087-2.021
		c-0.265-0.424-0.683-0.605-1.25-0.537c-1.632,0.195-4.02,2.352-4.97,5.249c-0.789,2.4-0.425,5.172,0.97,7.416
		c0.834,1.343,1.986,2.404,3.335,3.073c3.635,1.802,5.824-0.419,5.915-0.515c0.087-0.091,0.217-0.125,0.337-0.097l0.073-0.075
		l0.006,0.104c0.059,0.03,0.11,0.072,0.144,0.126c0.031,0.049,0.049,0.106,0.053,0.164c0.009,0.131,0.103,0.407,0.34,0.787
		c0.829,1.337,2.813,3.02,5.673,3.37c2.974,0.364,7.95-0.592,14.756-7.211c7.193-6.993,11.532-15.578,13.908-21.547
		c2.576-6.48,3.458-11.364,3.467-11.412c0.034-0.186,0.208-0.316,0.396-0.291c0.094,0.012,0.168,0.064,0.224,0.132
		c0.055,0.03,0.107,0.068,0.14,0.122C262.246,238.612,262.263,238.664,262.269,238.722z"/>
</g>
</svg>
