<?xml version="1.0" encoding="utf-8"?>
<!-- Generator: Adobe Illustrator 17.0.0, SVG Export Plug-In . SVG Version: 6.00 Build 0)  -->
<!DOCTYPE svg PUBLIC "-//W3C//DTD SVG 1.1//EN" "http://www.w3.org/Graphics/SVG/1.1/DTD/svg11.dtd">
<svg version="1.1" id="Layer_1" xmlns="http://www.w3.org/2000/svg" xmlns:xlink="http://www.w3.org/1999/xlink" x="0px" y="0px"
	 width="60px" height="60px" viewBox="0 0 60 60" enable-background="new 0 0 60 60" xml:space="preserve">
<g>
	<path fill="#FFFFFF" d="M38.31,36.716c-0.371-0.121-2.715-1.178-1.25-5.63h-0.021c3.817-3.931,6.734-10.26,6.734-16.488
		C43.773,5.019,37.404,0,30.002,0c-7.406,0-13.739,5.019-13.739,14.598c0,6.254,2.901,12.608,6.741,16.529
		c1.496,3.926-1.18,5.384-1.74,5.589C13.512,39.52,4.418,44.63,4.418,49.674c0,1.362,0,0.537,0,1.89
		C4.418,58.438,17.743,60,30.075,60c12.35,0,25.507-1.562,25.507-8.435c0-1.353,0-0.528,0-1.89
		C55.582,44.477,46.443,39.408,38.31,36.716z"/>
</g>
</svg>
