<?xml version="1.0" encoding="utf-8"?>
<!-- Generator: Adobe Illustrator 17.0.0, SVG Export Plug-In . SVG Version: 6.00 Build 0)  -->
<!DOCTYPE svg PUBLIC "-//W3C//DTD SVG 1.1//EN" "http://www.w3.org/Graphics/SVG/1.1/DTD/svg11.dtd">
<svg version="1.1" id="Layer_1" xmlns="http://www.w3.org/2000/svg" xmlns:xlink="http://www.w3.org/1999/xlink" x="0px" y="0px"
	 width="62px" height="62px" viewBox="0 0 62 62" enable-background="new 0 0 62 62" xml:space="preserve">
<g>
	<g>
		<path fill="#FFFFFF" d="M21.755,34.475c-0.192-0.063-1.405-0.61-0.647-2.913h-0.011c1.975-2.034,3.484-5.309,3.484-8.531
			c0-4.956-3.295-7.553-7.125-7.553c-3.832,0-7.109,2.597-7.109,7.553c0,3.236,1.501,6.523,3.488,8.552
			c0.774,2.031-0.611,2.786-0.9,2.892c-4.011,1.451-8.716,4.095-8.716,6.705c0,0.705,0,0.278,0,0.978
			c0,3.557,6.894,4.365,13.275,4.365c6.39,0,13.198-0.808,13.198-4.364c0-0.7,0-0.273,0-0.978
			C30.691,38.491,25.963,35.868,21.755,34.475z"/>
	</g>
	<g>
		<path fill="#FFFFFF" d="M52.297,38.877l-0.914-3.479h-6.03l-0.939,3.479h-5.51l6.056-18.637h6.69l6.132,18.637H52.297z
			 M50.342,31.285l-0.8-3.047c-0.186-0.677-0.413-1.553-0.679-2.628s-0.442-1.845-0.527-2.311c-0.076,0.432-0.227,1.143-0.451,2.133
			s-0.722,2.941-1.492,5.853H50.342z"/>
	</g>
</g>
</svg>
