<?xml version="1.0" encoding="utf-8"?>
<!-- Generator: Adobe Illustrator 17.0.0, SVG Export Plug-In . SVG Version: 6.00 Build 0)  -->
<!DOCTYPE svg PUBLIC "-//W3C//DTD SVG 1.1//EN" "http://www.w3.org/Graphics/SVG/1.1/DTD/svg11.dtd">
<svg version="1.1" id="Layer_1" xmlns="http://www.w3.org/2000/svg" xmlns:xlink="http://www.w3.org/1999/xlink" x="0px" y="0px"
	 width="62px" height="62px" viewBox="0 0 62 62" enable-background="new 0 0 62 62" xml:space="preserve">
<g>
	<g>
		<path fill="#FFFFFF" d="M25.543,34.475c-0.192-0.063-1.405-0.61-0.647-2.913h-0.011c1.975-2.034,3.484-5.309,3.484-8.531
			c0-4.956-3.295-7.553-7.125-7.553c-3.832,0-7.109,2.597-7.109,7.553c0,3.236,1.501,6.523,3.488,8.552
			c0.774,2.031-0.611,2.786-0.9,2.892c-4.011,1.451-8.716,4.095-8.716,6.705c0,0.705,0,0.278,0,0.978
			c0,3.557,6.894,4.365,13.275,4.365c6.39,0,13.198-0.808,13.198-4.364c0-0.7,0-0.273,0-0.978
			C34.48,38.491,29.751,35.868,25.543,34.475z"/>
	</g>
	<g>
		<path fill="#FFFFFF" d="M39.698,21.317h6.475c2.522,0,4.395,0.375,5.618,1.124c1.223,0.749,1.834,1.915,1.834,3.498
			c0,1.041-0.267,1.93-0.8,2.666s-1.235,1.21-2.107,1.422v0.127c1.151,0.305,1.985,0.812,2.501,1.523
			c0.517,0.711,0.774,1.633,0.774,2.768c0,1.684-0.633,3.011-1.897,3.98c-1.266,0.969-2.99,1.454-5.174,1.454h-7.224V21.317z
			 M44.712,28.439h1.511c0.72,0,1.276-0.148,1.67-0.444s0.59-0.736,0.59-1.32c0-1.041-0.787-1.562-2.361-1.562h-1.409V28.439z
			 M44.712,32.108v3.897h1.765c1.566,0,2.349-0.66,2.349-1.98c0-0.618-0.209-1.092-0.628-1.422s-1.026-0.495-1.822-0.495H44.712z"/>
	</g>
</g>
</svg>
