<?xml version="1.0" encoding="utf-8"?>
<!-- Generator: Adobe Illustrator 17.0.0, SVG Export Plug-In . SVG Version: 6.00 Build 0)  -->
<!DOCTYPE svg PUBLIC "-//W3C//DTD SVG 1.1//EN" "http://www.w3.org/Graphics/SVG/1.1/DTD/svg11.dtd">
<svg version="1.1" id="Layer_2" xmlns="http://www.w3.org/2000/svg" xmlns:xlink="http://www.w3.org/1999/xlink" x="0px" y="0px"
	 width="100%" height="100%" viewBox="0 0 500 220" enable-background="new 0 0 500 220" xml:space="preserve">
<g>
	<g>
		<path fill="#FFFFFF" d="M378.34,153.124h-4.852v6.943h4.852c2.51,0,3.513-1.882,3.513-3.471
			C381.853,155.006,380.85,153.124,378.34,153.124z"/>
		<path fill="#FFFFFF" d="M311.943,153.124h-5.772v16.145h5.772c4.182,0,7.821-2.928,7.821-7.947
			C319.764,156.302,316.125,153.124,311.943,153.124z"/>
		<path fill="#FFFFFF" d="M151.871,153.124h-4.852v6.943h4.852c2.51,0,3.513-1.882,3.513-3.471
			C155.384,155.006,154.38,153.124,151.871,153.124z"/>
		<path fill="#FFFFFF" d="M120.624,153.124h-4.015v6.943h4.015c2.718,0,4.349-1.296,4.349-3.471
			C124.974,154.42,123.342,153.124,120.624,153.124z"/>
		<path fill="#FFFFFF" d="M451.696,219.027l-22.284-36.321l22.111-36.321h-42.082v-21.792H90.727v21.792H48.645l22.111,36.322
			l-22.453,36.32l56.473,0.103l-13.58-22.561h318.199l-13.948,22.46H451.696z M120.75,166.633h-4.141v9.202h-7.026v-29.278h11.167
			c7.193,0,11.543,3.765,11.543,10.038C132.293,162.869,127.943,166.633,120.75,166.633z M156.054,175.835l-5.438-9.536h-3.597
			v9.536h-7.026v-29.278h10.916c7.361,0,11.795,4.015,11.795,10.038c0,3.932-1.882,6.859-5.27,8.449l6.483,10.791H156.054z
			 M193.382,175.835h-21.54v-29.278h21.289v6.566h-14.262v4.81h11.167v6.148h-11.167v5.187h14.513V175.835z M224.755,153.124h-8.909
			v22.711h-7.027v-22.711h-8.784v-6.566h24.72V153.124z M253.237,175.835h-21.541v-29.278h21.29v6.566h-14.263v4.81h11.167v6.148
			h-11.167v5.187h14.514V175.835z M288.992,175.835h-6.608l-5.981-8.156c-2.677-3.681-6.608-9.243-6.65-9.243h-0.042
			c-0.042,0,0.042,4.517,0.042,10.916v6.483h-7.027v-29.278h6.609l6.232,8.365c1.882,2.509,6.358,8.825,6.399,8.825h0.042
			c0.042,0-0.042-5.186-0.042-10.498v-6.692h7.026V175.835z M311.943,175.835h-12.799v-29.278h12.799
			c8.365,0,15.14,5.981,15.14,14.764C327.082,170.105,320.307,175.835,311.943,175.835z M356.971,175.835h-21.539v-29.278h21.288
			v6.566h-14.262v4.81h11.168v6.148h-11.168v5.187h14.513V175.835z M382.523,175.835l-5.438-9.536h-3.597v9.536h-7.026v-29.278
			h10.916c7.361,0,11.795,4.015,11.795,10.038c0,3.932-1.882,6.859-5.27,8.449l6.483,10.791H382.523z"/>
	</g>
	<path opacity="0.14" fill="#FFFFFF" d="M250.286,96.12c-0.508-5.462-2.499-33.593,8.29-51.016
		c5.833-9.416,13.117-17.117,21.649-22.891c7.95-5.378,16.833-8.87,25.691-10.1c2.666-0.374,4.592-1.435,5.282-2.908
		c0.346-0.745,0.319-1.507-0.079-2.148c-0.163-0.26-0.38-0.492-0.649-0.691c-0.887-0.651-1.581-0.229-1.916,0.081
		c-0.594,0.549-0.939,1.609-0.504,2.308c0.126,0.204,0.313,0.367,0.556,0.485c0.059,0.031,0.11,0.077,0.144,0.132
		c0.049,0.077,0.065,0.173,0.045,0.266c-0.036,0.161-0.178,0.276-0.343,0.277c-0.065,0.001-1.618,0.001-2.509-1.431
		c-0.573-0.923-0.725-2.218-0.45-3.851c0.38-2.283,2.167-4.006,4.661-4.499c2.984-0.589,6,0.779,7.683,3.486
		c2.84,4.572,0.169,7.871-0.905,8.926c0.518,0.303,1.346,0.878,1.855,1.698c0.462,0.741,0.57,1.523,0.327,2.323
		c-0.316,1.036-0.287,1.933,0.08,2.523c0.287,0.46,0.771,0.7,1.33,0.659c0.125-0.009,0.247,0.051,0.316,0.153l0.1-0.007
		l-0.064,0.079c0.046,0.117,0.033,0.25-0.048,0.349c-0.071,0.089-1.753,2.188-4.064,2.397c-0.756,0.069-1.487-0.072-2.187-0.418
		c0.481,1.097,1.101,2.843,1.31,4.902c0.327,3.214-0.339,7.8-5.361,11.405c-3.581,2.57-6.276,2.723-7.904,2.4
		c-1.615-0.321-2.975-1.253-3.83-2.627c-0.636-1.021-0.922-2.181-0.808-3.268c0.122-1.161,0.698-2.118,1.622-2.692
		c0.012-0.007,0.025-0.014,0.039-0.02c1.98-0.92,3.391,0.262,3.859,1.015c0.065,0.104,0.071,0.235,0.016,0.346
		c-0.055,0.11-0.162,0.185-0.282,0.196c-0.183,0.019-1.771,0.225-1.641,1.741c0.03,0.322,0.116,0.605,0.261,0.841
		c0.316,0.507,0.925,0.81,1.71,0.852c1.332,0.072,3.268-0.615,4.595-2.31c1.468-1.879,1.38-5.098-0.208-7.654
		c-2.248-3.614-6.848-5.108-12.622-4.099c-6.799,1.332-10.187,2.694-11.774,3.53c1.242-0.005,2.926,0.391,4.085,2.256
		c2.349,3.777-2.369,6.844-2.417,6.875c-0.108,0.068-0.242,0.069-0.352,0.012l-0.221,0.14l0.101-0.24
		c-0.007-0.009-0.015-0.015-0.022-0.025c-0.058-0.094-0.07-0.215-0.025-0.323c0.006-0.017,0.7-1.735-0.098-3.017
		c-0.267-0.431-0.729-0.722-1.335-0.84c-1.05-0.206-3.497-0.053-8.075,3.269c-8.029,5.831-26.217,22.769-24.03,55.284
		c1.055-5.461,3.611-13.772,10.235-23.787c1.185-1.793,2.537-3.467,4.018-5.017c-0.695-0.319-1.682-0.88-2.983-1.869
		c-0.398-0.302-0.725-0.67-0.98-1.082c-1.361-2.206-0.768-5.632,1.551-7.087c0.419-0.259,0.893-0.452,1.422-0.56
		c2.087-0.431,3.503,0.387,4.207,1.531c0.63,1.018,0.728,2.275,0.328,3.17l-0.122,0.269l-0.181-0.234c0,0-0.254-0.327-0.64-0.581
		c-0.392-0.253-0.867-0.414-1.362-0.149c-0.033,0.017-0.064,0.036-0.092,0.054c-0.878,0.547-1.034,1.794-0.57,2.542
		c0.276,0.434,0.722,0.698,1.405,0.587c0.597-0.103,1.211-0.341,1.771-0.69c1.258-0.783,2.227-2.103,2.187-3.638l-0.009-0.438
		l0.313,0.309c0.007,0.008,0.1,0.101,0.211,0.279c0.211,0.335,0.477,0.984,0.401,1.939c2.463-1.576,5.119-2.867,7.907-3.823
		c6.442-2.208,13.088-2.441,17.346-0.608c9.745,4.615,20.116,0.906,25.433-1.715c8.001-3.947,13.506-9.674,14.207-12.931
		c0.214-0.855,0.163-1.53-0.14-2.02c-0.361-0.581-1.114-0.892-2.011-0.83c-0.863,0.058-1.621,0.449-1.845,0.947
		c-0.264,0.596-0.279,1.089-0.045,1.47c0.352,0.564,1.154,0.742,1.162,0.745c0.098,0.019,0.18,0.079,0.23,0.16
		c0.033,0.051,0.052,0.111,0.053,0.175c0.004,0.164-0.101,0.311-0.26,0.355c-1.646,0.457-3.105-0.108-4.003-1.554
		c-0.884-1.424-1.019-3.398-0.313-4.593c0.887-1.497,2.404-1.932,3.269-2.057c-0.471-0.973-0.499-2.706,0.355-4.368
		c0.539-1.05,0.071-2.203-0.414-2.985c-0.365-0.589-0.737-0.96-0.808-1.028c-0.068-0.068-0.134-0.15-0.193-0.246
		c-0.339-0.543-0.444-1.467-0.062-1.972c0.149-0.199,0.501-0.503,1.179-0.309c0.01,0.003,0.018,0.004,0.025,0.007
		c3.654,1.34,6.289,3.28,7.836,5.766c2.294,3.689,2.057,8.53-0.664,13.631c-2.591,4.858-7.2,9.599-12.98,13.353
		c-7.842,5.091-14.748,6.569-19.161,6.911c-2.837,0.22-5.01,0.02-6.343-0.188c0.588,0.554,1.108,1.193,1.555,1.915
		c1.524,2.454,2.167,5.824,1.759,9.245c-0.398,3.351-1.71,6.22-3.596,7.871c-4.251,3.72-8.76,4.201-12.692,1.356
		c-0.963-0.696-1.895-0.704-2.626-0.024c-0.866,0.808-1.179,2.31-0.657,3.149c0.166,0.267,0.409,0.449,0.722,0.544
		c0.671,0.205,1.258,0.169,1.741-0.11c0.912-0.526,1.202-1.729,1.205-1.741c0.039-0.162,0.181-0.275,0.346-0.275
		c0.125,0,0.239,0.066,0.302,0.168c0.021,0.032,0.036,0.068,0.045,0.107c0.561,2.413-0.899,3.96-2.451,4.602
		c-1.918,0.793-4.636,0.541-5.897-1.489l-0.024-0.036c-1.812-2.994-1.074-6.443,1.756-8.202c2.044-1.271,4.153-0.795,5.177-0.429
		c-0.138-1.17-0.083-3.53,2.375-4.467c1.609-0.613,3.027-0.094,3.993,1.46c0.398,0.639,0.569,1.222,0.576,1.246
		c0.036,0.124,0,0.252-0.086,0.341l0.105,0.356l-0.266-0.258c-0.119,0.033-0.25,0.005-0.343-0.084
		c-0.431-0.418-0.936-0.507-1.286-0.225c-0.386,0.312-0.509,1.058,0.088,2.021c0.266,0.423,0.685,0.605,1.249,0.537
		c1.632-0.196,4.02-2.352,4.972-5.249c0.787-2.4,0.423-5.172-0.972-7.417c-0.833-1.342-1.985-2.404-3.335-3.073
		c-3.635-1.803-5.824,0.419-5.915,0.514c-0.088,0.091-0.215,0.125-0.337,0.097l-0.071,0.075l-0.006-0.105
		c-0.059-0.029-0.111-0.071-0.146-0.125c-0.03-0.049-0.048-0.105-0.053-0.163c-0.007-0.131-0.103-0.407-0.339-0.788
		c-0.83-1.337-2.815-3.02-5.675-3.369c-2.974-0.364-7.949,0.592-14.755,7.211c-7.193,6.994-11.532,15.578-13.908,21.547
		c-2.577,6.479-3.46,11.363-3.469,11.412c-0.033,0.187-0.208,0.315-0.395,0.29c-0.095-0.011-0.169-0.063-0.226-0.132
		c-0.055-0.029-0.105-0.068-0.14-0.122C250.31,96.23,250.292,96.178,250.286,96.12z"/>
	<path opacity="0.14" fill="#FFFFFF" d="M228.937,96.279c0.509-5.462,2.5-33.593-8.289-51.016
		c-5.833-9.416-13.117-17.117-21.649-22.891c-7.95-5.378-16.835-8.87-25.691-10.1c-2.667-0.374-4.592-1.435-5.283-2.908
		c-0.346-0.745-0.319-1.507,0.079-2.148c0.163-0.26,0.38-0.492,0.649-0.691c0.887-0.651,1.581-0.229,1.916,0.081
		c0.594,0.549,0.939,1.609,0.504,2.308c-0.126,0.204-0.313,0.367-0.556,0.485c-0.059,0.031-0.11,0.077-0.144,0.132
		c-0.049,0.077-0.065,0.173-0.045,0.266c0.036,0.161,0.178,0.276,0.343,0.277c0.065,0.001,1.617,0.001,2.508-1.431
		c0.575-0.923,0.726-2.218,0.452-3.851c-0.382-2.283-2.168-4.006-4.662-4.499c-2.984-0.589-6,0.779-7.683,3.486
		c-2.84,4.572-0.169,7.871,0.905,8.926c-0.518,0.303-1.346,0.878-1.855,1.698c-0.462,0.741-0.57,1.523-0.327,2.323
		c0.316,1.036,0.287,1.933-0.08,2.523c-0.287,0.46-0.771,0.7-1.33,0.659c-0.125-0.009-0.247,0.051-0.316,0.153l-0.099-0.007
		l0.064,0.079c-0.046,0.117-0.033,0.25,0.048,0.349c0.071,0.089,1.753,2.188,4.064,2.397c0.756,0.069,1.487-0.072,2.187-0.418
		c-0.481,1.097-1.101,2.843-1.31,4.902c-0.327,3.214,0.339,7.8,5.361,11.405c3.581,2.57,6.277,2.723,7.903,2.4
		c1.616-0.321,2.975-1.253,3.829-2.627c0.636-1.021,0.922-2.181,0.808-3.268c-0.12-1.161-0.698-2.117-1.622-2.692
		c-0.012-0.007-0.025-0.014-0.037-0.02c-1.98-0.92-3.391,0.262-3.859,1.015c-0.065,0.104-0.071,0.235-0.016,0.346
		c0.053,0.11,0.162,0.185,0.282,0.196c0.183,0.019,1.771,0.225,1.64,1.741c-0.028,0.322-0.116,0.605-0.261,0.841
		c-0.316,0.507-0.924,0.81-1.71,0.852c-1.331,0.072-3.268-0.615-4.594-2.31c-1.468-1.879-1.38-5.098,0.208-7.654
		c2.247-3.614,6.847-5.108,12.623-4.099c6.797,1.332,10.186,2.694,11.774,3.53c-1.243-0.005-2.926,0.391-4.087,2.256
		c-2.347,3.777,2.371,6.844,2.418,6.875c0.108,0.068,0.241,0.069,0.352,0.012l0.22,0.14l-0.101-0.24
		c0.007-0.009,0.016-0.015,0.022-0.025c0.058-0.094,0.07-0.215,0.027-0.323c-0.007-0.017-0.7-1.735,0.098-3.017
		c0.266-0.431,0.729-0.722,1.335-0.84c1.05-0.206,3.497-0.053,8.075,3.269c8.029,5.831,26.217,22.769,24.029,55.284
		c-1.053-5.461-3.61-13.772-10.235-23.787c-1.184-1.793-2.536-3.467-4.018-5.017c0.695-0.319,1.682-0.88,2.984-1.869
		c0.397-0.302,0.723-0.67,0.979-1.082c1.362-2.206,0.768-5.632-1.549-7.087c-0.419-0.259-0.894-0.452-1.423-0.56
		c-2.086-0.431-3.501,0.387-4.205,1.532c-0.631,1.018-0.729,2.275-0.328,3.17l0.122,0.269l0.181-0.234
		c-0.001,0,0.254-0.327,0.64-0.581c0.391-0.253,0.866-0.414,1.361-0.149c0.033,0.017,0.064,0.036,0.094,0.053
		c0.878,0.547,1.032,1.794,0.57,2.542c-0.278,0.434-0.723,0.698-1.407,0.587c-0.597-0.103-1.209-0.341-1.771-0.69
		c-1.257-0.783-2.225-2.103-2.187-3.638l0.009-0.438l-0.312,0.309c-0.007,0.008-0.101,0.101-0.212,0.279
		c-0.209,0.335-0.477,0.984-0.4,1.939c-2.464-1.576-5.119-2.867-7.907-3.823c-6.442-2.208-13.09-2.441-17.346-0.608
		c-9.746,4.615-20.117,0.906-25.433-1.715c-8.001-3.947-13.506-9.674-14.207-12.931c-0.214-0.855-0.163-1.53,0.14-2.02
		c0.361-0.581,1.114-0.892,2.011-0.83c0.863,0.058,1.621,0.449,1.845,0.947c0.264,0.596,0.279,1.089,0.045,1.469
		c-0.352,0.564-1.154,0.742-1.162,0.745c-0.098,0.019-0.18,0.079-0.23,0.16c-0.033,0.051-0.052,0.111-0.053,0.175
		c-0.004,0.164,0.101,0.311,0.26,0.355c1.646,0.458,3.105-0.108,4.003-1.554c0.884-1.424,1.019-3.398,0.313-4.593
		c-0.887-1.497-2.403-1.931-3.269-2.057c0.471-0.973,0.499-2.706-0.355-4.368c-0.539-1.05-0.071-2.203,0.414-2.985
		c0.365-0.589,0.737-0.96,0.808-1.028c0.068-0.068,0.134-0.15,0.193-0.246c0.339-0.543,0.444-1.467,0.062-1.972
		c-0.149-0.199-0.501-0.503-1.179-0.309c-0.01,0.003-0.018,0.004-0.025,0.007c-3.654,1.34-6.289,3.28-7.836,5.766
		c-2.294,3.689-2.057,8.53,0.664,13.631c2.591,4.857,7.2,9.599,12.98,13.353c7.842,5.091,14.748,6.569,19.161,6.911
		c2.837,0.22,5.011,0.02,6.342-0.188c-0.587,0.554-1.108,1.193-1.555,1.915c-1.524,2.454-2.166,5.824-1.759,9.245
		c0.4,3.351,1.711,6.22,3.596,7.871c4.251,3.72,8.76,4.201,12.692,1.356c0.964-0.696,1.897-0.704,2.626-0.024
		c0.867,0.808,1.179,2.31,0.658,3.149c-0.166,0.267-0.409,0.449-0.722,0.544c-0.671,0.205-1.258,0.169-1.741-0.11
		c-0.914-0.526-1.203-1.729-1.205-1.741c-0.039-0.162-0.181-0.275-0.348-0.275c-0.125,0-0.238,0.066-0.302,0.168
		c-0.019,0.032-0.034,0.068-0.043,0.107c-0.563,2.413,0.897,3.96,2.45,4.602c1.919,0.793,4.636,0.541,5.897-1.489l0.024-0.036
		c1.814-2.994,1.076-6.443-1.756-8.202c-2.042-1.271-4.152-0.795-5.177-0.429c0.14-1.17,0.083-3.53-2.375-4.467
		c-1.609-0.613-3.026-0.094-3.991,1.46c-0.398,0.639-0.57,1.222-0.578,1.246c-0.034,0.124,0,0.252,0.086,0.341l-0.104,0.356
		l0.266-0.258c0.119,0.033,0.25,0.005,0.343-0.084c0.431-0.418,0.936-0.507,1.285-0.225c0.386,0.312,0.509,1.058-0.088,2.021
		c-0.264,0.423-0.683,0.605-1.249,0.537c-1.633-0.196-4.02-2.352-4.97-5.249c-0.789-2.4-0.425-5.172,0.97-7.417
		c0.833-1.342,1.986-2.404,3.335-3.073c3.635-1.803,5.824,0.418,5.915,0.514c0.088,0.091,0.217,0.125,0.337,0.097l0.073,0.075
		l0.006-0.105c0.059-0.029,0.11-0.071,0.144-0.125c0.031-0.049,0.049-0.105,0.053-0.163c0.009-0.131,0.102-0.407,0.34-0.788
		c0.829-1.337,2.814-3.02,5.673-3.369c2.974-0.364,7.95,0.592,14.757,7.211c7.193,6.994,11.532,15.578,13.908,21.547
		c2.576,6.479,3.458,11.363,3.467,11.412c0.034,0.187,0.208,0.315,0.397,0.29c0.094-0.011,0.168-0.063,0.224-0.132
		c0.055-0.029,0.107-0.068,0.14-0.122C228.913,96.389,228.931,96.337,228.937,96.279z"/>
</g>
</svg>
