<?xml version="1.0" encoding="utf-8"?>
<!-- Generator: Adobe Illustrator 17.0.0, SVG Export Plug-In . SVG Version: 6.00 Build 0)  -->
<!DOCTYPE svg PUBLIC "-//W3C//DTD SVG 1.1//EN" "http://www.w3.org/Graphics/SVG/1.1/DTD/svg11.dtd">
<svg version="1.1" id="Layer_2" xmlns="http://www.w3.org/2000/svg" xmlns:xlink="http://www.w3.org/1999/xlink" x="0px" y="0px"
	 width="100%" height="100%" viewBox="0 0 500 124" enable-background="new 0 0 500 124" xml:space="preserve">
<g>
	<g>
		<path fill="#FFFFFF" d="M174.436,8.848v6.087h-1.703V0.298h4.015c1.795,0,3.122,0.344,3.979,1.031
			c0.857,0.687,1.287,1.722,1.287,3.103c0,1.936-0.981,3.244-2.943,3.924l3.975,6.578h-2.013l-3.544-6.087H174.436z M174.436,7.386
			h2.332c1.201,0,2.082-0.239,2.643-0.716c0.561-0.477,0.841-1.193,0.841-2.147c0-0.968-0.285-1.666-0.856-2.093
			c-0.571-0.427-1.487-0.641-2.748-0.641h-2.212V7.386z"/>
		<path fill="#FFFFFF" d="M200.982,7.596c0,2.343-0.593,4.185-1.777,5.526c-1.185,1.341-2.832,2.013-4.941,2.013
			c-2.156,0-3.82-0.659-4.99-1.977c-1.172-1.318-1.758-3.179-1.758-5.581c0-2.383,0.587-4.23,1.762-5.541
			c1.175-1.311,2.843-1.967,5.006-1.967c2.102,0,3.744,0.667,4.925,2.002C200.391,3.405,200.982,5.247,200.982,7.596z
			 M189.319,7.596c0,1.982,0.422,3.486,1.267,4.51c0.844,1.025,2.07,1.536,3.679,1.536c1.622,0,2.847-0.51,3.674-1.531
			c0.828-1.021,1.241-2.526,1.241-4.515c0-1.968-0.412-3.462-1.237-4.48c-0.825-1.017-2.044-1.527-3.659-1.527
			c-1.622,0-2.855,0.512-3.699,1.537C189.741,4.15,189.319,5.64,189.319,7.596z"/>
		<path fill="#FFFFFF" d="M218.168,0.298v9.47c0,1.668-0.504,2.98-1.512,3.934c-1.008,0.955-2.393,1.432-4.155,1.432
			s-3.125-0.481-4.089-1.442c-0.965-0.961-1.447-2.282-1.447-3.964v-9.43h1.702v9.55c0,1.221,0.334,2.159,1.001,2.813
			c0.667,0.654,1.648,0.981,2.943,0.981c1.235,0,2.185-0.328,2.853-0.986c0.667-0.657,1.001-1.6,1.001-2.828V0.298H218.168z"/>
		<path fill="#FFFFFF" d="M236.345,14.934h-1.943L226.404,2.65h-0.08c0.107,1.442,0.16,2.763,0.16,3.964v8.32h-1.572V0.298h1.922
			l7.979,12.233h0.08c-0.013-0.18-0.043-0.759-0.091-1.737c-0.046-0.978-0.063-1.677-0.05-2.097V0.298h1.592V14.934z"/>
		<path fill="#FFFFFF" d="M254.923,7.476c0,2.416-0.656,4.263-1.967,5.541c-1.311,1.278-3.198,1.917-5.661,1.917h-4.054V0.298h4.485
			c2.275,0,4.044,0.63,5.305,1.892C254.292,3.451,254.923,5.213,254.923,7.476z M253.121,7.536c0-1.908-0.479-3.347-1.436-4.314
			c-0.958-0.968-2.381-1.452-4.27-1.452h-2.473v11.693h2.073c2.029,0,3.554-0.499,4.575-1.496
			C252.611,10.968,253.121,9.492,253.121,7.536z"/>
		<path fill="#FFFFFF" d="M281.957,7.596c0,2.343-0.593,4.185-1.777,5.526c-1.185,1.341-2.831,2.013-4.94,2.013
			c-2.156,0-3.82-0.659-4.991-1.977c-1.172-1.318-1.758-3.179-1.758-5.581c0-2.383,0.587-4.23,1.762-5.541
			c1.175-1.311,2.843-1.967,5.005-1.967c2.103,0,3.745,0.667,4.925,2.002C281.367,3.405,281.957,5.247,281.957,7.596z
			 M270.294,7.596c0,1.982,0.423,3.486,1.267,4.51c0.844,1.025,2.07,1.536,3.68,1.536c1.621,0,2.846-0.51,3.674-1.531
			c0.828-1.021,1.241-2.526,1.241-4.515c0-1.968-0.412-3.462-1.236-4.48c-0.825-1.017-2.044-1.527-3.66-1.527
			c-1.621,0-2.855,0.512-3.699,1.537C270.717,4.15,270.294,5.64,270.294,7.596z"/>
		<path fill="#FFFFFF" d="M296.45,0.298h1.832l-5.275,14.636h-1.682l-5.246-14.636h1.802l3.364,9.47
			c0.387,1.088,0.694,2.146,0.921,3.173c0.24-1.081,0.554-2.159,0.941-3.233L296.45,0.298z"/>
		<path fill="#FFFFFF" d="M311.324,14.934h-8.159V0.298h8.159v1.511h-6.457v4.716h6.067v1.502h-6.067v5.386h6.457V14.934z"/>
		<path fill="#FFFFFF" d="M319.14,8.848v6.087h-1.702V0.298h4.015c1.795,0,3.121,0.344,3.979,1.031
			c0.857,0.687,1.286,1.722,1.286,3.103c0,1.936-0.98,3.244-2.943,3.924l3.974,6.578h-2.012l-3.545-6.087H319.14z M319.14,7.386
			h2.332c1.201,0,2.082-0.239,2.643-0.716c0.561-0.477,0.841-1.193,0.841-2.147c0-0.968-0.285-1.666-0.856-2.093
			c-0.571-0.427-1.486-0.641-2.748-0.641h-2.212V7.386z"/>
	</g>
	<g>
		<path fill="#FFFFFF" d="M215.04,58.943h-4.844v6.932h4.844c2.506,0,3.508-1.879,3.508-3.466
			C218.549,60.823,217.547,58.943,215.04,58.943z"/>
		<path fill="#FFFFFF" d="M475.579,123.832L453.33,87.568l22.076-36.264h-42.015V29.546H66.778v21.757H24.762l22.076,36.264
			l-22.417,36.263l56.384,0.102l-13.559-22.526l366.098,0.001l-13.926,22.424H475.579z M114.659,58.943h-8.895v22.675h-7.015V58.943
			h-8.77v-6.556h24.68V58.943z M146.563,81.619h-7.016V70.26h-10.941v11.358h-7.015V52.387h7.015v11.317h10.941V52.387h7.016V81.619
			z M178.203,81.619h-21.506V52.387h21.255v6.556h-14.24v4.802h11.15v6.139h-11.15v5.178h14.491V81.619z M219.217,81.619
			l-5.429-9.521h-3.591v9.521h-7.015V52.387h10.899c7.349,0,11.776,4.009,11.776,10.022c0,3.925-1.879,6.849-5.262,8.436
			l6.472,10.774H219.217z M256.486,81.619h-21.505V52.387h21.255v6.556h-14.239v4.802h11.15v6.139h-11.15v5.178h14.49V81.619z
			 M275.816,82.204c-6.096,0-10.44-3.383-12.36-8.853l6.723-1.796c0.751,2.213,2.839,4.427,5.93,4.427
			c2.505,0,3.674-1.169,3.674-2.589c0-2.339-3.424-2.923-7.6-4.51c-3.508-1.336-7.558-3.257-7.558-8.393
			c0-4.552,4.593-8.686,10.941-8.686c5.595,0,10.021,3.424,11.399,8.018l-6.764,1.837c-0.71-2.589-2.965-3.8-5.053-3.8
			s-3.298,1.044-3.298,2.214c0,1.921,2.923,2.631,6.472,3.925c4.343,1.587,8.894,4.051,8.894,9.062
			C287.216,78.403,282.623,82.204,275.816,82.204z M320.69,68.632c0,8.769-5.178,13.572-12.903,13.572
			c-7.767,0-12.903-4.802-12.903-13.572V52.387h7.015v16.077c0,5.011,2.046,7.183,5.888,7.183c3.841,0,5.888-2.172,5.888-7.183
			V52.387h7.015V68.632z M351.262,81.619h-20.838V52.387h7.016v22.675h13.822V81.619z M377.026,58.943h-8.894v22.675h-7.016V58.943
			h-8.77v-6.556h24.68V58.943z M394.547,82.204c-6.097,0-10.44-3.383-12.361-8.853l6.724-1.796c0.751,2.213,2.839,4.427,5.93,4.427
			c2.506,0,3.674-1.169,3.674-2.589c0-2.339-3.424-2.923-7.599-4.51c-3.508-1.336-7.559-3.257-7.559-8.393
			c0-4.552,4.593-8.686,10.941-8.686c5.596,0,10.022,3.424,11.4,8.018l-6.764,1.837c-0.71-2.589-2.966-3.8-5.053-3.8
			c-2.088,0-3.299,1.044-3.299,2.214c0,1.921,2.923,2.631,6.472,3.925c4.343,1.587,8.895,4.051,8.895,9.062
			C405.947,78.403,401.354,82.204,394.547,82.204z"/>
	</g>
</g>
</svg>
