<?xml version="1.0" encoding="utf-8"?>
<!-- Generator: Adobe Illustrator 17.0.0, SVG Export Plug-In . SVG Version: 6.00 Build 0)  -->
<!DOCTYPE svg PUBLIC "-//W3C//DTD SVG 1.1//EN" "http://www.w3.org/Graphics/SVG/1.1/DTD/svg11.dtd">
<svg version="1.1" id="Layer_1" xmlns="http://www.w3.org/2000/svg" xmlns:xlink="http://www.w3.org/1999/xlink" x="0px" y="0px"
	 width="128.14px" height="123.255px" viewBox="0 0 128.14 123.255" enable-background="new 0 0 128.14 123.255"
	 xml:space="preserve">
<rect x="0" y="63.133" fill="#D32E3F" width="128.14" height="60.122"/>
<path fill="#FFFFFF" d="M116.847,82.145c-0.691,0.421-3.367,0.45-4.99,0.45c-0.03-1.953-0.03-4.088-0.03-6.102
	c0-1.082,0.059-2.241,0.091-3.383c0.029-0.571-0.151-0.872-1.173-0.872h-1.202c0.09,1.473,0.15,2.902,0.15,4.285v3.157
	c0,1.111-0.03,2.224-0.091,3.366c-0.029,0.451,0.061,0.872,1.083,0.872c4.989,0,5.38,0,5.38,0c0.421,0,0.782-0.511,0.782-0.842
	C116.847,83.077,116.847,82.776,116.847,82.145z M89.077,78.117l-1.292,0.03c0.15,0.451,0.15,1.713,0.15,2.524
	c0,0.571-0.03,1.144-0.03,1.714c-0.691,0.301-1.743,0.391-2.495,0.391c-2.796,0-4.449-1.984-4.449-4.659
	c0-2.675,1.533-4.78,4.359-4.78c1.533,0,3.126,0.932,3.878,1.624l0.36-1.022c0.15-0.541-0.061-0.872-0.391-1.022
	c-1.203-0.511-2.165-0.782-3.848-0.782c-3.908,0-6.764,1.833-6.764,5.982c0,3.969,2.916,5.952,6.674,5.952
	c1.412,0,3.396-0.391,4.809-0.812c0-0.571,0-1.053,0-1.533c0-0.933,0-1.773,0.03-2.735C90.1,78.538,89.739,78.087,89.077,78.117z
	 M100.503,92.4h-1.924c0.03,0.241-0.03,0.722-0.15,0.962c-0.391,0.812-0.872,1.654-1.323,2.466
	c-0.511,0.931-1.442,2.464-1.924,3.216c-1.172-1.894-2.164-3.848-3.217-5.802c-0.239-0.45-0.66-0.812-1.502-0.812h-2.345
	c2.014,2.886,3.576,5.501,5.26,8.356c0,1.654,0.03,3.788-0.119,5.531c-0.031,0.512,0.3,0.812,0.962,0.812h2.134
	c-0.211-2.104-0.211-4.479-0.211-6.492c1.383-2.496,2.977-4.81,4.69-7.335c0.119-0.181,0.18-0.361,0.15-0.511
	C100.984,92.581,100.834,92.4,100.503,92.4z M69.849,74.921c0-1.052,0.932-1.653,1.924-1.653c1.083,0,1.954,0.601,2.525,1.443
	c0.211-0.361,0.632-0.932,0.632-1.443c0-0.992-2.255-1.232-3.007-1.232c-2.014,0-3.997,1.112-3.997,3.307
	c0,3.908,5.471,2.826,5.471,5.381c0,1.232-0.872,1.984-2.104,1.984c-1.263,0-2.675-0.691-3.337-1.714
	c-0.09,0.451-0.3,0.932-0.3,1.413c0,0.48,0.18,0.842,0.631,1.052c0.721,0.391,1.653,0.571,2.465,0.571
	c2.314,0,4.539-1.322,4.539-3.848C75.29,76.515,69.849,77.627,69.849,74.921z M65.127,72.198l-1.563,0.03
	c0,0.421-0.632,1.563-1.292,2.675c-0.661,1.052-1.323,2.104-1.623,2.525c-0.932-1.503-1.834-3.036-2.736-4.539
	c-0.3-0.511-0.721-0.661-1.293-0.661h-1.894c1.623,2.224,3.126,4.509,4.569,6.854v1.323c0.03,1.082-0.09,2.254-0.09,2.886
	c0,0.48,0.421,0.601,0.782,0.601h1.593c-0.18-1.653-0.18-3.366-0.18-5.049c0.841-1.443,1.773-2.826,2.766-4.178
	c0.391-0.601,0.841-1.173,1.232-1.744c0.06-0.121,0.15-0.241,0.15-0.391C65.548,72.289,65.338,72.198,65.127,72.198z M51.776,72.269
	h-6.614c0.03,0.631,0.09,1.202,0.15,1.833c0.03,1.112,0.06,3.46,0.06,4.302c0,2.014-0.09,3.092-0.09,4.655
	c0,0.603,0.331,0.842,0.902,0.842h1.443c-0.09-1.352-0.181-2.671-0.181-4.023v-1.533c1.052,0,3.698,0.03,4.629,0.301
	c0-0.541,0.15-1.564-0.661-1.564c-0.872,0-2.375,0.181-3.968,0.181v-2.438c0-0.451,0.03-0.902,0.061-1.353
	c1.232,0,3.788-0.03,4.96,0.421C52.467,73.291,52.647,72.269,51.776,72.269z M39.541,77.503c0-2.314,0.12-2.855,0.12-4.299
	c0-0.661-0.24-0.992-0.962-0.992h-1.383c0.121,1.142,0.181,2.375,0.181,5.411c0,2.886-0.12,3.518-0.12,5.291
	c0,0.602,0.3,0.962,0.901,0.962h1.443C39.602,82.553,39.541,80.599,39.541,77.503z M48.644,101.671
	c-1.203,0.602-2.796,0.602-4.54,0.602c-0.451,0-0.511-0.271-0.541-0.812c0-0.451,0-1.083,0-1.504v-2.705
	c1.624,0,3.337,0.06,4.419,0.421l0.06-0.932c0.03-0.631-0.331-0.872-1.202-0.872c-0.962,0-2.074,0.15-3.307,0.15
	c0-0.722,0.03-1.653,0.03-2.375c0-0.601,0.03-1.503,0.06-2.104c3.517,0,4.389,0.3,4.9,0.511c0-0.271,0-0.661,0-0.661
	c0-0.602-0.451-1.173-1.142-1.173c0,0-0.631,0-6.613,0c0.3,0.331,0.331,1.533,0.331,1.954c0.06,1.773,0.03,4.299,0.03,6.463
	c0,1.263-0.03,2.556-0.09,3.878c-0.03,0.661,0.12,1.053,0.812,1.053c1.864,0,5.711,0,5.711,0c0.602,0,1.083-0.301,1.083-0.933
	C48.644,102.633,48.644,102.363,48.644,101.671z M28.648,90.068c-2.044-1.052-4.689-1.653-7.094-1.653
	c-8.056,0-13.407,6.493-13.407,14.43c0,7.695,5.862,12.685,13.347,12.685c2.495,0,5.832-0.721,7.846-2.254l-0.301-2.555
	c-1.353,1.413-4.058,2.555-6.012,2.555c-6.643,0-11.062-5.501-11.062-11.904c0-5.471,3.126-10.882,9.138-10.882
	c2.014,0,4.059,0.632,5.562,1.954c0.721,0.632,1.653,1.894,1.743,2.826c0.571-0.872,1.533-2.405,1.533-3.457
	C29.94,91,29.279,90.399,28.648,90.068z M99.84,72.135c-3.848,0-6.464,2.044-6.464,5.982c0,3.698,2.887,5.952,6.464,5.952
	c3.608,0,6.492-2.225,6.492-5.952C106.332,74.389,103.447,72.135,99.84,72.135z M99.84,82.866c-2.705,0-4.059-2.284-4.059-4.749
	c0-2.495,1.354-4.78,4.059-4.78c2.735,0,4.088,2.225,4.088,4.78C103.928,80.882,102.936,82.866,99.84,82.866z M111.431,90.249
	c-2.134,0-4.358,0-6.522,0.03c0.269,0.33,0.451,1.052,0.48,1.533c0.15,1.983,0.241,3.907,0.241,5.921c-2.045,0-4.209,0-6.254,0.03
	c0.271,0.331,0.421,1.053,0.481,1.533c0.181,2.135,0.24,4.148,0.24,6.283c0,2.735-0.06,5.501-0.18,8.236
	c-0.03,0.421,0.36,0.722,0.812,0.722h4.869c5.261,0,9.169-2.825,9.439-8.117c3.337-1.142,5.531-3.878,5.531-8.056
	C120.569,92.533,116.842,90.249,111.431,90.249z M115.009,104.587c-0.421-4.088-2.977-6.103-6.674-6.674
	c0-2.255,0.09-4.208,0.18-6.282c0.691-0.09,1.053-0.15,1.774-0.15c4.328,0,7.334,2.585,7.334,7.034
	C117.623,101.13,116.781,103.355,115.009,104.587z M111.371,105.609h-2.045c-0.511,0-0.781-0.271-0.812-0.691
	c-0.12-1.803-0.21-3.606-0.21-5.23c2.225,0.992,3.668,3.037,3.788,5.892C111.852,105.58,111.611,105.609,111.371,105.609z
	 M105.869,113.095h-2.074c-0.51,0-0.811-0.241-0.842-0.662c-0.119-1.983-0.18-3.788-0.18-5.802c0-2.495,0.061-5.141,0.211-7.516
	c0.66-0.09,1.081-0.12,1.772-0.12c0.302,0,0.603,0,0.873,0.03c0,2.436-0.061,4.87-0.182,7.306c0,0.42,0.361,0.691,0.812,0.691h4.87
	c0.3,0,0.631,0,0.932-0.031C111.762,110.509,109.838,113.095,105.869,113.095z M76.913,90.308c-2.675,0-5.591,0.061-7.906,0.061
	c0.451,0.631,0.632,1.834,0.752,4.269c0.09,1.773,0.15,3.577,0.15,5.381c0,2.194-0.03,4.389-0.091,6.583
	c-0.06,1.202-0.15,2.375-0.15,3.577c0,0.571,0.481,0.872,0.992,0.872h6.013c6.674,0,11.663-3.697,11.663-10.701
	C88.336,93.164,83.586,90.308,76.913,90.308z M76.973,109.277h-2.555c-0.601,0-0.902-0.211-1.021-0.812
	c-0.091-0.602-0.12-1.474-0.15-2.104c-0.061-1.353-0.091-3.366-0.091-5.05c0-3.097,0.15-6.193,0.271-9.259
	c0.722-0.12,1.473-0.181,2.225-0.181c5.351,0,9.048,3.036,9.048,8.657C84.698,105.49,82.294,109.277,76.973,109.277z
	 M60.822,102.934c3.126-0.992,5.381-3.457,5.381-6.854c0-4.328-3.878-5.922-7.636-5.922c-2.435,0-4.9,0.061-7.365,0.091
	c0.3,0.511,0.421,1.743,0.421,2.375c0,2.976,0.06,5.681,0.06,7.755c0,5.742-0.271,9.049-0.271,10.131
	c0,0.451,0.18,0.511,0.571,0.511c1.293,0,2.525-0.029,3.788-0.029c-0.181-0.181-0.301-0.602-0.391-1.143
	c-0.271-1.924-0.391-4.179-0.391-6.282c0.812,0,1.739-0.031,2.55-0.061c1.061,1.68,2.379,3.634,3.878,5.621
	c2.265,2.973,5.344,6.402,8.928,6.402c0.932,0,1.735-0.09,2.667-0.18C68.818,113.872,63.348,106.722,60.822,102.934z
	 M57.064,102.092c-0.722,0-1.383,0.03-2.104,0.03c0-0.932,0-2.225,0-3.638c0-2.164,0.03-4.63,0.181-6.733
	c0.631-0.061,1.353-0.12,2.044-0.12c3.066,0,5.531,1.623,5.531,4.93C62.716,99.898,60.281,102.092,57.064,102.092z M29.778,78.916
	c1.563-0.481,2.916-1.564,2.916-3.427c0-2.495-2.195-3.216-4.269-3.216c-0.932,0-1.894-0.03-2.826-0.03
	c-0.451,0-0.932,0.03-1.383,0.03c0.15,0.21,0.241,0.511,0.271,0.782c0.09,1.292,0.06,3.276,0.06,4.9c0,1.142-0.03,2.314-0.06,3.457
	c-0.03,0.571-0.06,1.112-0.06,1.684c0,0.54,0.331,0.751,0.842,0.751c0.511,0,1.022-0.029,1.533-0.061
	c-0.181-0.961-0.21-3.096-0.21-4.539c0.301,0,1.232,0,1.232,0c0.902,1.443,1.774,2.826,2.826,4.208
	c0.872,1.203,1.864,1.684,3.367,1.684c0.181,0,0.451,0,0.631,0C33.896,84.658,31.371,81.35,29.778,78.916z M27.223,78.284h-0.662
	v-1.172c0-0.872,0.03-2.946,0.06-3.848c0.361,0,0.692-0.03,1.022-0.03c1.533,0,2.976,0.872,2.976,2.525
	C30.62,77.743,28.876,78.314,27.223,78.284z M16.954,72.311l-4.238-0.03c0.18,0.271,0.24,1.203,0.271,2.104
	c0.06,1.684,0,3.397,0,5.05c0,1.172-0.06,2.314-0.06,3.487c0,0.541,0.24,0.962,0.841,0.962h1.443
	c-0.121-1.413-0.15-3.036-0.15-4.539c0.36,0.03,0.721,0.03,1.082,0.03c2.375,0,4.96-1.143,4.96-3.878
	C21.103,73.062,19.028,72.341,16.954,72.311z M15.992,78.414c-0.3,0-0.691-0.06-0.932-0.06c0,0,0-3.607,0-4.99l1.172-0.03
	c1.533-0.03,2.706,0.601,2.706,2.315C18.938,77.481,17.646,78.414,15.992,78.414z M40.736,107.683l-6.252-14.308
	c-0.21-0.541-0.391-0.902-1.022-0.902H33.07l-7.214,15.331c-0.15,0.301-0.181,0.481-0.181,0.722c0,0.301,0.331,0.361,0.602,0.361
	h1.593c-0.03-0.091-0.03-0.241-0.03-0.361c0-0.271,0.06-0.571,0.18-0.901l1.533-3.728h6.192l1.684,4.179
	c0.21,0.511,0.451,0.781,1.052,0.781h3.066C41.247,108.645,40.886,108.014,40.736,107.683z M30.185,102.574l2.615-6.073l2.405,6.073
	H30.185z"/>
<rect x="0" y="0" fill="#D32E3F" width="128.14" height="60.122"/>
<path fill="#FFFFFF" d="M119.582,7.485h-12.385c0.421,2.435,0.48,6.854,0.48,11.964c0,4.119-0.33,11.093-0.33,12.325
	c0,0.781,0.45,1.202,1.232,1.202h3.156c-0.211-0.481-0.301-1.202-0.331-1.743c-0.27-3.698-0.361-7.455-0.361-11.153
	c0.512-0.03,1.715-0.12,1.895-0.12c1.773,0,4.238,0,5.862,0.691c0.15-0.391,0.36-0.811,0.36-1.232c0-0.932-0.962-1.143-1.714-1.143
	h-6.403c0-3.006,0.121-6.012,0.241-9.018h1.983c1.774,0,6.403,0,7.816,0.872c0.15-0.421,0.12-0.932,0.12-1.383
	C121.205,7.906,120.424,7.485,119.582,7.485z M103.739,8.808H93.038c0.602,1.052,0.571,8.507,0.571,10.04
	c0,3.216-0.301,7.816-0.301,9.649c0,0.601,0.271,1.172,0.962,1.172h3.187c-0.301-0.812-0.451-2.254-0.511-4.149
	c-0.061-1.683-0.061-3.757-0.061-6.102c0.451,0,1.293-0.09,1.864-0.09c1.684,0,3.336,0.03,4.9,0.691
	c0-0.451,0.119-0.902,0.119-1.353c0-0.691-0.601-0.992-1.231-0.992h-5.622c0-2.375,0.12-4.72,0.21-7.094
	c0.692,0,1.384-0.03,2.075-0.03c1.954,0,4.719,0.06,6.492,0.872v-0.09C105.693,9.98,105.303,8.808,103.739,8.808z M88.654,19.569
	c0-1.713,0.06-3.427,0.09-5.11c0.029-0.902,0.12-1.834,0.12-2.736c0-0.451-0.451-0.691-0.842-0.691h-2.886
	c0.421,2.134,0.391,5.711,0.391,7.966c0,1.653-0.03,3.336-0.09,5.02c0,0.751-0.061,1.563-0.061,2.315
	c0,0.571,0.361,0.992,0.933,0.992c0.932,0,1.833-0.03,2.766-0.06C88.685,25.882,88.654,21.163,88.654,19.569z M117.177,39.35
	l-1.533,0.03c-0.029,0.391-0.631,1.563-1.322,2.675c-0.632,1.052-1.323,2.104-1.594,2.495c-0.962-1.473-1.833-3.006-2.765-4.509
	c-0.301-0.511-0.691-0.661-1.263-0.661h-1.924c1.653,2.224,3.156,4.509,4.6,6.853v1.293c0,1.112-0.121,2.224-0.121,2.855
	c0,0.451,0.421,0.601,0.812,0.601h1.562c-0.15-1.654-0.18-3.307-0.18-4.99c0.841-1.443,1.803-2.826,2.765-4.179
	c0.421-0.601,0.842-1.172,1.233-1.743c0.091-0.121,0.15-0.241,0.15-0.391C117.598,39.44,117.388,39.35,117.177,39.35z
	 M105.823,39.38h-8.508c-0.631,0-1.263,0.36-1.263,1.052v0.631c0.873-0.18,2.766-0.21,3.818-0.21c0.06,1.383,0.06,2.736,0.06,4.119
	c0,2.375-0.12,3.487-0.12,5.23c0,0.601,0.361,0.782,0.933,0.782h1.442c-0.18-1.654-0.18-3.307-0.18-5.922
	c0-1.383-0.03-3.186,0.029-4.208c1.143,0,2.255,0.15,3.066,0.15c0.571,0,0.722-0.571,0.722-1.052V39.38z M94.121,44.61
	c0-2.315,0.119-2.856,0.119-4.299c0-0.661-0.24-0.992-0.961-0.992h-1.383c0.119,1.143,0.18,2.375,0.18,5.411
	c0,2.886-0.12,3.547-0.12,5.291c0,0.602,0.301,0.962,0.902,0.962h1.442C94.181,49.661,94.121,47.707,94.121,44.61z M83.557,42.025
	c0-1.052,0.932-1.623,1.924-1.623c1.082,0,1.954,0.571,2.525,1.413c0.21-0.36,0.631-0.932,0.631-1.443
	c0-0.992-2.255-1.203-2.977-1.203c-2.043,0-4.027,1.083-4.027,3.277c0,3.908,5.471,2.826,5.471,5.381
	c0,1.232-0.872,2.014-2.104,2.014c-1.264,0-2.676-0.722-3.337-1.744c-0.091,0.451-0.301,0.932-0.301,1.413
	c0,0.481,0.181,0.842,0.631,1.052c0.722,0.391,1.653,0.601,2.466,0.601c2.313,0,4.538-1.323,4.538-3.878
	C88.997,43.618,83.557,44.73,83.557,42.025z M66.801,49.24c-0.933,0.451-2.495,0.481-3.518,0.481h-0.812
	c-0.451,0-0.451-0.241-0.451-0.631c-0.03-0.301-0.03-2.435-0.03-2.735v-0.902c1.173,0,3.156,0.03,4.239,0.36
	c0.029-0.3,0.06-0.631,0.06-0.932c0-0.541-0.391-0.691-0.871-0.691c-1.112,0-2.315,0.12-3.428,0.12c0-0.751,0-1.292,0-1.984
	c0-0.571,0.06-1.172,0.09-1.774c1.113,0,3.608,0,4.629,0.421c0-0.691,0-1.593-0.992-1.593h-6.132c0.121,0.15,0.21,0.48,0.241,0.661
	c0.09,1.413,0.09,2.826,0.09,4.239c0,1.954-0.09,3.908-0.09,5.862c0,0.481,0.15,0.781,0.691,0.781h5.381
	c0.511,0,0.902-0.271,0.902-0.812V49.24z M57.198,39.319H55.57c0.15,0.451-0.211,1.473-0.391,1.864
	c-0.902,2.225-2.107,5.01-3.041,6.898c-0.606-1.261-1.529-3.521-2.281-5.325c-0.391-0.902-0.691-1.693-1.082-2.595
	c-0.301-0.691-0.752-0.812-1.473-0.842c-0.451,0-1.017-0.03-1.498-0.03c1.804,3.848,3.607,7.726,5.201,11.694h1.533
	c1.533-3.728,3.277-7.335,4.99-11.002c0.03-0.06,0.06-0.121,0.06-0.21C57.588,39.53,57.438,39.319,57.198,39.319z M28.708,8.627
	c-2.014-1.052-4.659-1.653-7.064-1.653c-8.056,0-13.407,6.493-13.407,14.429c0,7.726,5.862,12.686,13.347,12.686
	c2.495,0,5.832-0.721,7.846-2.254l-0.301-2.555c-1.353,1.443-4.058,2.555-6.042,2.555c-6.614,0-11.033-5.501-11.033-11.904
	c0-5.471,3.126-10.852,9.139-10.852c2.014,0,4.058,0.631,5.561,1.954c0.691,0.601,1.653,1.864,1.744,2.826
	c0.571-0.902,1.533-2.435,1.533-3.487C30.031,9.559,29.37,8.958,28.708,8.627z M43.348,44.61c0-2.315,0.12-2.856,0.12-4.299
	c0-0.661-0.21-0.992-0.932-0.992h-1.413c0.121,1.143,0.181,2.375,0.181,5.411c0,2.886-0.121,3.547-0.121,5.291
	c0,0.602,0.301,0.962,0.932,0.962h1.413C43.408,49.661,43.348,47.707,43.348,44.61z M37.026,39.38h-1.202
	c0.09,1.954,0.12,3.908,0.12,5.862v2.014c-2.826-2.615-5.441-5.291-8.207-7.996h-0.812c0.03,0.541,0.03,1.112,0.03,1.684
	c0,2.254,0.03,5.321-0.09,6.764c-0.09,1.533-0.21,1.924-0.21,2.766c0,0.391,0.21,0.511,0.602,0.511c0.421,0,0.841-0.03,1.292-0.03
	c-0.181-1.233-0.21-2.465-0.21-3.728c0-1.443,0.06-2.796,0.06-4.239c2.796,2.736,5.562,5.291,8.207,8.177h0.812
	c-0.06-1.954-0.09-3.908-0.09-5.832c0-1.082,0.09-2.074,0.12-3.066c0.03-0.842,0.15-1.774,0.15-2.285
	C37.598,39.59,37.387,39.38,37.026,39.38z M22.636,39.319h-1.082c0.18,1.232,0.21,2.014,0.21,3.247c0,0.691-0.03,1.954-0.03,2.946
	c0,2.375-0.721,4.238-3.487,4.238c-3.187,0-3.517-1.924-3.517-4.629c0-1.743,0.18-3.788,0.18-5.261c0-0.391-0.241-0.541-0.631-0.541
	h-1.684c0.09,1.293,0.121,2.135,0.121,4.148c0,0.842-0.06,1.984-0.06,2.856c0,3.457,1.954,4.84,5.26,4.84
	c3.157,0,5.141-1.684,5.261-4.9c0.09-3.066,0.271-5.291,0.271-6.313C23.447,39.44,23.087,39.319,22.636,39.319z M70.793,8.898
	c-2.705,0-5.621,0.03-7.905,0.03c0.421,0.661,0.601,1.864,0.722,4.298c0.12,1.774,0.149,3.578,0.149,5.381
	c0,2.195-0.029,4.359-0.09,6.553c-0.03,1.203-0.121,2.405-0.121,3.607c0,0.541,0.481,0.872,0.992,0.872h5.982
	c6.704,0,11.694-3.698,11.694-10.702C82.217,11.754,77.467,8.898,70.793,8.898z M70.854,27.866h-2.556
	c-0.631,0-0.932-0.21-1.021-0.841c-0.121-0.601-0.121-1.443-0.15-2.074c-0.061-1.353-0.091-3.367-0.091-5.05
	c0-3.096,0.12-6.193,0.241-9.289c0.751-0.12,1.503-0.15,2.254-0.15c5.351,0,9.019,3.036,9.019,8.658
	C78.549,24.049,76.174,27.866,70.854,27.866z M75.483,45.993c1.562-0.451,2.915-1.533,2.915-3.397c0-2.495-2.164-3.216-4.269-3.216
	c-0.932,0-1.864-0.03-2.825-0.03c-0.451,0-0.902,0-1.383,0.03c0.18,0.21,0.24,0.511,0.271,0.781c0.09,1.293,0.06,3.247,0.06,4.87
	c0,1.172-0.029,2.345-0.06,3.487c-0.03,0.541-0.061,1.112-0.061,1.653c0,0.571,0.331,0.752,0.842,0.752
	c0.511,0,1.022-0.03,1.533-0.03c-0.181-0.962-0.21-3.096-0.21-4.539c0.3,0,1.232,0,1.232,0c0.901,1.443,1.772,2.796,2.825,4.208
	c0.872,1.202,1.863,1.683,3.367,1.683c0.18,0,0.45,0,0.631,0C79.602,51.765,77.105,48.428,75.483,45.993z M72.928,45.392h-0.662
	v-1.172c0-0.872,0.031-2.976,0.091-3.848c0.331,0,0.661-0.03,0.992-0.03c1.532,0,2.976,0.872,2.976,2.525
	C76.324,44.851,74.581,45.392,72.928,45.392z M41.965,26.213l-6.252-14.309c-0.241-0.542-0.391-0.902-1.022-0.902l-0.391,0.03
	l-7.214,15.301c-0.15,0.331-0.181,0.481-0.181,0.751c0,0.271,0.331,0.331,0.602,0.331h1.593c-0.03-0.09-0.03-0.241-0.03-0.361
	c0-0.271,0.06-0.571,0.18-0.902l1.533-3.728h6.163l1.713,4.208c0.21,0.511,0.451,0.751,1.052,0.751h3.066
	C42.476,27.175,42.115,26.544,41.965,26.213z M31.383,21.103l2.646-6.072l2.405,6.072H31.383z M54.125,21.561
	c3.126-0.992,5.381-3.457,5.381-6.854c0-4.329-3.877-5.922-7.635-5.922c-2.435,0-4.9,0.06-7.365,0.09
	c0.3,0.511,0.421,1.743,0.421,2.375c0,2.976,0.06,5.682,0.06,7.756c0,5.742-0.271,9.048-0.271,10.13c0,0.451,0.18,0.511,0.571,0.511
	c1.292,0,2.525-0.03,3.788-0.03c-0.18-0.181-0.3-0.601-0.391-1.142c-0.271-1.924-0.391-4.179-0.391-6.283
	c0.812,0,1.738-0.03,2.55-0.06c1.061,1.68,2.379,3.634,3.877,5.622c2.265,2.973,5.344,6.403,8.929,6.403
	c0.932,0,1.735-0.09,2.668-0.18C62.122,32.499,56.651,25.35,54.125,21.561z M50.368,20.719c-0.722,0-1.383,0.03-2.104,0.03
	c0-0.932,0-2.224,0-3.637c0-2.165,0.03-4.629,0.181-6.733c0.631-0.06,1.353-0.121,2.044-0.121c3.066,0,5.531,1.623,5.531,4.93
	C56.02,18.525,53.584,20.719,50.368,20.719z"/>
</svg>
