<?xml version="1.0" encoding="utf-8"?>
<!-- Generator: Adobe Illustrator 17.0.0, SVG Export Plug-In . SVG Version: 6.00 Build 0)  -->
<!DOCTYPE svg PUBLIC "-//W3C//DTD SVG 1.1//EN" "http://www.w3.org/Graphics/SVG/1.1/DTD/svg11.dtd">
<svg version="1.1" id="Layer_2" xmlns="http://www.w3.org/2000/svg" xmlns:xlink="http://www.w3.org/1999/xlink" x="0px" y="0px"
	 width="100%" height="100%" viewBox="0 0 500 124" enable-background="new 0 0 500 124" xml:space="preserve">
<g>
	<g>
		<path fill="#FFFFFF" d="M147.454,14.89h-1.705V1.745h-4.642V0.23h10.989v1.514h-4.642V14.89z"/>
		<path fill="#FFFFFF" d="M168.307,14.89h-1.705V7.991h-7.72v6.898h-1.705V0.23h1.705v6.237h7.72V0.23h1.705V14.89z"/>
		<path fill="#FFFFFF" d="M183.374,14.89h-8.171V0.23h8.171v1.514h-6.467v4.722h6.076v1.504h-6.076v5.394h6.467V14.89z"/>
		<path fill="#FFFFFF" d="M204.154,7.209h4.984v7.129c-0.775,0.247-1.564,0.435-2.366,0.562c-0.802,0.127-1.731,0.19-2.788,0.19
			c-2.219,0-3.948-0.66-5.184-1.98c-1.237-1.32-1.855-3.17-1.855-5.55c0-1.524,0.306-2.86,0.918-4.006
			c0.61-1.146,1.491-2.022,2.641-2.627c1.15-0.605,2.497-0.907,4.041-0.907c1.564,0,3.021,0.287,4.372,0.862l-0.662,1.504
			c-1.324-0.561-2.597-0.842-3.821-0.842c-1.784,0-3.178,0.531-4.181,1.594c-1.003,1.063-1.504,2.537-1.504,4.422
			c0,1.979,0.483,3.479,1.448,4.502c0.966,1.023,2.386,1.534,4.257,1.534c1.016,0,2.008-0.117,2.978-0.351V8.733h-3.279V7.209z"/>
		<path fill="#FFFFFF" d="M224.747,14.89l-1.826-4.662h-5.875l-1.805,4.662h-1.725l5.795-14.719h1.434l5.766,14.719H224.747z
			 M222.39,8.693l-1.705-4.542c-0.221-0.575-0.448-1.28-0.682-2.116c-0.147,0.642-0.358,1.347-0.631,2.116l-1.725,4.542H222.39z"/>
		<path fill="#FFFFFF" d="M237.889,14.89l-4.973-12.995h-0.08c0.094,1.029,0.141,2.253,0.141,3.67v9.325h-1.575V0.23h2.567
			l4.642,12.092h0.08l4.683-12.092h2.547V14.89h-1.705V5.444c0-1.083,0.047-2.259,0.14-3.529h-0.08l-5.013,12.975H237.889z"/>
		<path fill="#FFFFFF" d="M260.988,14.89h-8.172V0.23h8.172v1.514h-6.467v4.722h6.076v1.504h-6.076v5.394h6.467V14.89z"/>
		<path fill="#FFFFFF" d="M268.195,0.23l0.15,0.221c-0.174,0.668-0.425,1.446-0.752,2.331c-0.328,0.886-0.668,1.71-1.023,2.472
			h-1.223c0.468-1.905,0.808-3.58,1.022-5.024H268.195z"/>
		<path fill="#FFFFFF" d="M281.748,10.99c0,1.29-0.468,2.296-1.404,3.018c-0.936,0.722-2.206,1.083-3.81,1.083
			c-1.738,0-3.075-0.224-4.011-0.671v-1.644c0.602,0.254,1.257,0.455,1.965,0.602c0.709,0.147,1.41,0.221,2.105,0.221
			c1.136,0,1.992-0.216,2.567-0.647c0.575-0.431,0.863-1.031,0.863-1.8c0-0.508-0.102-0.924-0.306-1.249
			c-0.204-0.324-0.545-0.623-1.023-0.897c-0.478-0.274-1.205-0.585-2.181-0.933c-1.364-0.488-2.338-1.066-2.922-1.734
			c-0.585-0.668-0.878-1.541-0.878-2.617c0-1.129,0.425-2.028,1.273-2.697c0.85-0.668,1.973-1.003,3.369-1.003
			c1.457,0,2.798,0.267,4.021,0.802l-0.532,1.484c-1.209-0.508-2.386-0.762-3.529-0.762c-0.902,0-1.607,0.194-2.115,0.582
			c-0.508,0.388-0.762,0.926-0.762,1.614c0,0.508,0.094,0.924,0.281,1.249c0.187,0.325,0.503,0.622,0.948,0.892
			c0.444,0.271,1.125,0.57,2.04,0.898c1.537,0.548,2.595,1.136,3.174,1.765C281.459,9.171,281.748,9.987,281.748,10.99z"/>
		<path fill="#FFFFFF" d="M308.554,7.54c0,2.346-0.593,4.191-1.78,5.535c-1.187,1.344-2.837,2.015-4.949,2.015
			c-2.158,0-3.825-0.66-4.998-1.98c-1.174-1.32-1.76-3.183-1.76-5.59c0-2.386,0.588-4.237,1.765-5.55
			C298.01,0.657,299.681,0,301.847,0c2.105,0,3.749,0.668,4.933,2.005C307.962,3.342,308.554,5.187,308.554,7.54z M296.873,7.54
			c0,1.985,0.422,3.491,1.268,4.517c0.846,1.026,2.074,1.539,3.685,1.539c1.625,0,2.851-0.512,3.68-1.534
			c0.829-1.023,1.243-2.53,1.243-4.522c0-1.972-0.413-3.468-1.238-4.487c-0.826-1.019-2.047-1.529-3.665-1.529
			c-1.625,0-2.86,0.513-3.706,1.539C297.295,4.09,296.873,5.582,296.873,7.54z"/>
		<path fill="#FFFFFF" d="M323.07,0.23h1.835l-5.285,14.659h-1.684L312.682,0.23h1.805l3.369,9.485
			c0.388,1.09,0.695,2.149,0.922,3.179c0.241-1.083,0.555-2.162,0.943-3.239L323.07,0.23z"/>
		<path fill="#FFFFFF" d="M337.967,14.89h-8.172V0.23h8.172v1.514H331.5v4.722h6.076v1.504H331.5v5.394h6.467V14.89z"/>
		<path fill="#FFFFFF" d="M345.796,8.793v6.096h-1.705V0.23h4.02c1.799,0,3.127,0.345,3.985,1.033
			c0.859,0.688,1.289,1.725,1.289,3.108c0,1.939-0.983,3.249-2.949,3.931l3.981,6.587h-2.016l-3.549-6.096H345.796z M345.796,7.329
			h2.337c1.203,0,2.086-0.239,2.647-0.717c0.561-0.478,0.842-1.195,0.842-2.151c0-0.969-0.287-1.667-0.857-2.095
			c-0.572-0.428-1.49-0.642-2.753-0.642h-2.216V7.329z"/>
	</g>
	<g>
		<path fill="#FFFFFF" d="M196.593,58.621h-4.852v6.943h4.852c2.509,0,3.513-1.882,3.513-3.471
			C200.106,60.503,199.102,58.621,196.593,58.621z"/>
		<path fill="#FFFFFF" d="M309.622,58.412c-4.726,0-7.863,3.346-7.863,8.281c0,4.893,3.137,8.281,7.863,8.281
			c4.768,0,7.906-3.388,7.906-8.281C317.527,61.758,314.39,58.412,309.622,58.412z"/>
		<path fill="#FFFFFF" d="M345.166,58.621h-4.852v6.943h4.852c2.51,0,3.513-1.882,3.513-3.471
			C348.679,60.503,347.675,58.621,345.166,58.621z"/>
		<path fill="#FFFFFF" d="M125.995,58.412c-4.726,0-7.863,3.346-7.863,8.281c0,4.893,3.137,8.281,7.863,8.281
			c4.768,0,7.905-3.388,7.905-8.281C133.9,61.758,130.763,58.412,125.995,58.412z"/>
		<path fill="#FFFFFF" d="M477.578,123.764l-22.284-36.321l22.111-36.321h-42.082V29.329H64.845V51.12H22.763l22.111,36.322
			l-22.453,36.32l56.473,0.103l-13.58-22.561h369.963l-13.948,22.46H477.578z M96.768,68.366v12.966h-6.985V68.366L78.574,52.054
			h7.863l5.311,7.822c0.837,1.254,1.465,2.133,1.506,2.133h0.042c0.042,0,0.669-0.878,1.506-2.133l5.311-7.822h7.863L96.768,68.366z
			 M125.995,81.918c-8.407,0-15.182-6.399-15.182-15.225c0-8.825,6.775-15.224,15.182-15.224s15.224,6.399,15.224,15.224
			C141.219,75.518,134.402,81.918,125.995,81.918z M174.965,68.325c0,8.783-5.186,13.593-12.924,13.593
			c-7.779,0-12.924-4.81-12.924-13.593v-16.27h7.026v16.103c0,5.019,2.049,7.194,5.897,7.194c3.847,0,5.897-2.175,5.897-7.194
			V52.054h7.026V68.325z M200.775,81.332l-5.438-9.536h-3.596v9.536h-7.027V52.054h10.916c7.362,0,11.795,4.015,11.795,10.038
			c0,3.932-1.882,6.859-5.27,8.449l6.483,10.791H200.775z M241.937,81.918c-6.107,0-10.456-3.388-12.38-8.867l6.734-1.799
			c0.753,2.217,2.845,4.434,5.939,4.434c2.51,0,3.681-1.171,3.681-2.593c0-2.342-3.43-2.928-7.612-4.517
			c-3.513-1.338-7.571-3.262-7.571-8.407c0-4.559,4.601-8.7,10.958-8.7c5.605,0,10.039,3.43,11.419,8.03l-6.776,1.84
			c-0.711-2.593-2.969-3.806-5.061-3.806c-2.091,0-3.304,1.046-3.304,2.217c0,1.924,2.928,2.635,6.483,3.931
			c4.35,1.589,8.909,4.057,8.909,9.076C253.355,78.112,248.754,81.918,241.937,81.918z M274.802,81.918
			c-8.406,0-15.182-6.399-15.182-15.225c0-8.825,6.776-15.224,15.182-15.224c5.772,0,10.707,3.095,13.301,7.779l-7.153,1.882
			c-1.338-1.673-3.847-2.718-6.148-2.718c-4.852,0-7.863,3.472-7.863,8.281c0,5.061,3.304,8.198,7.863,8.198
			c2.803,0,5.48-1.422,6.692-3.43l7.111,1.84C286.18,78.488,280.951,81.918,274.802,81.918z M309.622,81.918
			c-8.406,0-15.182-6.399-15.182-15.225c0-8.825,6.776-15.224,15.182-15.224c8.407,0,15.224,6.399,15.224,15.224
			C324.846,75.518,318.029,81.918,309.622,81.918z M349.349,81.332l-5.438-9.536h-3.597v9.536h-7.026V52.054h10.916
			c7.361,0,11.795,4.015,11.795,10.038c0,3.932-1.882,6.859-5.27,8.449l6.483,10.791H349.349z M386.676,81.332h-21.54V52.054h21.289
			v6.566h-14.262v4.81h11.167v6.148h-11.167v5.187h14.513V81.332z M406.038,81.918c-6.107,0-10.456-3.388-12.381-8.867l6.734-1.799
			c0.752,2.217,2.844,4.434,5.939,4.434c2.51,0,3.68-1.171,3.68-2.593c0-2.342-3.429-2.928-7.612-4.517
			c-3.514-1.338-7.571-3.262-7.571-8.407c0-4.559,4.6-8.7,10.958-8.7c5.605,0,10.038,3.43,11.418,8.03l-6.775,1.84
			c-0.712-2.593-2.97-3.806-5.061-3.806c-2.092,0-3.304,1.046-3.304,2.217c0,1.924,2.928,2.635,6.483,3.931
			c4.35,1.589,8.909,4.057,8.909,9.076C417.456,78.112,412.855,81.918,406.038,81.918z"/>
	</g>
</g>
</svg>
